<svg xmlns="http://www.w3.org/2000/svg" width="78" height="72.077" viewBox="0 0 78 72.077">
  <g id="Group_1056" data-name="Group 1056" transform="translate(-22.445 -64.515)">
    <g id="Background_Complete" data-name="Background Complete" transform="translate(22.445 81.82)">
      <g id="Group_778" data-name="Group 778" transform="translate(53.961 9.303)">
        <g id="Group_777" data-name="Group 777">
          <g id="Group_759" data-name="Group 759">
            <g id="Group_758" data-name="Group 758">
              <g id="Group_757" data-name="Group 757">
                <g id="Group_750" data-name="Group 750" transform="translate(0.057 0.051)">
                  <g id="Group_749" data-name="Group 749" transform="translate(0 0)">
                    <g id="Group_748" data-name="Group 748">
                      <g id="Group_747" data-name="Group 747">
                        <g id="Group_746" data-name="Group 746">
                          <rect id="Rectangle_241" data-name="Rectangle 241" width="12.988" height="16.246" transform="matrix(0.234, -0.972, 0.972, 0.234, 0, 12.628)" fill="#fafafa"/>
                        </g>
                      </g>
                    </g>
                  </g>
                </g>
                <g id="Group_756" data-name="Group 756">
                  <g id="Group_755" data-name="Group 755">
                    <g id="Group_754" data-name="Group 754">
                      <g id="Group_753" data-name="Group 753">
                        <g id="Group_752" data-name="Group 752">
                          <g id="Group_751" data-name="Group 751">
                            <path id="Path_4495" data-name="Path 4495" d="M355.524,223.293l-.077-.016-.222-.051-.859-.2-3.236-.767-11.411-2.723.051-.031-3.032,12.628h0l-.035-.057,15.794,3.807-.047.029,2.223-9.154.626-2.557.167-.674c.038-.153.06-.233.06-.233s-.015.076-.05.227l-.156.669-.6,2.554-2.189,9.188-.009.038-.038-.009-15.8-3.791-.046-.011.011-.046h0l3.042-12.626.01-.041.041.01,11.427,2.77,3.222.786.849.209.217.055Z" transform="translate(-336.634 -219.443)" fill="#e0e0e0"/>
                          </g>
                        </g>
                      </g>
                    </g>
                  </g>
                </g>
              </g>
            </g>
          </g>
          <g id="Group_764" data-name="Group 764" transform="translate(0.793 0.977)">
            <g id="Group_763" data-name="Group 763">
              <g id="Group_762" data-name="Group 762">
                <g id="Group_761" data-name="Group 761">
                  <g id="Group_760" data-name="Group 760">
                    <rect id="Rectangle_242" data-name="Rectangle 242" width="11.353" height="15.105" transform="translate(0 11.038) rotate(-76.476)" fill="#f5f5f5"/>
                  </g>
                </g>
              </g>
            </g>
          </g>
          <g id="Group_769" data-name="Group 769" transform="translate(0.793 6.388)">
            <g id="Group_768" data-name="Group 768">
              <g id="Group_767" data-name="Group 767">
                <g id="Group_766" data-name="Group 766">
                  <g id="Group_765" data-name="Group 765">
                    <path id="Path_4496" data-name="Path 4496" d="M341.249,262.262l6.78-5.628,2.145,5.057,2.707-1.777,3.054,5.879Z" transform="translate(-341.249 -256.634)" fill="#ebebeb"/>
                  </g>
                </g>
              </g>
            </g>
          </g>
          <g id="Group_776" data-name="Group 776" transform="translate(9.955 5.168)">
            <g id="Group_775" data-name="Group 775">
              <g id="Group_774" data-name="Group 774">
                <g id="Group_773" data-name="Group 773">
                  <g id="Group_772" data-name="Group 772">
                    <g id="Group_771" data-name="Group 771">
                      <g id="Group_770" data-name="Group 770">
                        <path id="Path_4497" data-name="Path 4497" d="M396.941,251a1.189,1.189,0,1,1-.878-1.434A1.189,1.189,0,0,1,396.941,251Z" transform="translate(-394.596 -249.534)" fill="#ebebeb"/>
                      </g>
                    </g>
                  </g>
                </g>
              </g>
            </g>
          </g>
        </g>
      </g>
      <g id="Group_785" data-name="Group 785" transform="translate(0)">
        <g id="Group_779" data-name="Group 779" transform="translate(12.448 1.112)">
          <path id="Path_4498" data-name="Path 4498" d="M94.926,174.734l12.269-2.925a2.136,2.136,0,0,1,2.579,1.5l4.532,17.727,3.039,1.172a2.081,2.081,0,0,1,1.278,1.418l2.795,10.932a2.054,2.054,0,0,1-1.558,2.491l-20.851,4.971Z" transform="translate(-94.926 -171.748)" fill="#7397e1"/>
        </g>
        <g id="Group_780" data-name="Group 780" transform="translate(1.289)">
          <path id="Path_4499" data-name="Path 4499" d="M59.512,195.7l-21.787,5.195-7.777-30.422,21.787-5.195Z" transform="translate(-29.948 -165.275)" fill="#f5f5f5"/>
        </g>
        <g id="Group_781" data-name="Group 781" transform="translate(3.471 2.897)">
          <path id="Path_4500" data-name="Path 4500" d="M73.62,214.01,50.8,219.451l-8.146-31.865,22.82-5.441Z" transform="translate(-42.653 -182.145)" fill="#fff"/>
        </g>
        <g id="Group_782" data-name="Group 782" transform="translate(0 2.183)">
          <path id="Path_4501" data-name="Path 4501" d="M22.445,182.869l9.22,36.065L56.146,213.1a2.289,2.289,0,0,0,1.736-2.775l-4.049-15.838a2.783,2.783,0,0,0-1.866-1.947l-3-.958-2.941-11.506a2.848,2.848,0,0,0-3.438-2.005Z" transform="translate(-22.445 -177.987)" fill="#6185cf"/>
        </g>
        <g id="Group_783" data-name="Group 783" transform="translate(33.675 23.763)">
          <path id="Path_4502" data-name="Path 4502" d="M222.831,314.143l-1.628.388-2.687-10.51,1.628-.388Z" transform="translate(-218.517 -303.633)" fill="#ebebeb"/>
        </g>
        <g id="Group_784" data-name="Group 784" transform="translate(2.965 7.671)">
          <path id="Path_4503" data-name="Path 4503" d="M40.373,212.424l.567,2.218-.449.107-.783-3.063.625-.149.981,1.711-.469-1.834.444-.106.783,3.063-.512.122Z" transform="translate(-39.709 -211.074)" fill="#e0e0e0"/>
          <path id="Path_4504" data-name="Path 4504" d="M51.423,210.561a.442.442,0,0,1,.356-.6.459.459,0,0,1,.6.371l.173.678a.443.443,0,0,1-.356.6.459.459,0,0,1-.6-.371Zm.5.62c.036.14.107.174.211.149s.151-.087.115-.227l-.182-.713c-.036-.14-.111-.173-.211-.149s-.151.087-.115.227Zm.809.494.077.3-.961.229-.077-.3Z" transform="translate(-49.392 -209.941)" fill="#e0e0e0"/>
        </g>
      </g>
      <g id="Group_815" data-name="Group 815" transform="translate(54.066 42.246)">
        <g id="Group_814" data-name="Group 814">
          <g id="Group_789" data-name="Group 789" transform="translate(0.031 0)">
            <g id="Group_788" data-name="Group 788">
              <g id="Group_787" data-name="Group 787">
                <g id="Group_786" data-name="Group 786">
                  <path id="Path_4505" data-name="Path 4505" d="M338.6,411.251V418.3h-1.176v.765H338.6v4.715H360.59v-4.291h-1.629v-.935h1.629v-1.4h.724v-.637h-.86v-5.261Z" transform="translate(-337.425 -411.251)" fill="#7498e2"/>
                </g>
              </g>
            </g>
          </g>
          <g id="Group_793" data-name="Group 793" transform="translate(17.357)">
            <g id="Group_792" data-name="Group 792">
              <g id="Group_791" data-name="Group 791">
                <g id="Group_790" data-name="Group 790">
                  <path id="Path_4506" data-name="Path 4506" d="M438.3,411.271V423.7h5.839v-4.291h-1.629v-.856l1.629.029v-1.4h.738l-.014-.725-.86-.021v-5.183Z" transform="translate(-438.305 -411.251)" fill="#476bb5"/>
                </g>
              </g>
            </g>
          </g>
          <g id="Group_798" data-name="Group 798" transform="translate(0 7.631)">
            <g id="Group_797" data-name="Group 797">
              <g id="Group_796" data-name="Group 796">
                <g id="Group_795" data-name="Group 795">
                  <g id="Group_794" data-name="Group 794">
                    <path id="Path_4507" data-name="Path 4507" d="M355.017,455.76c0,.043-3.979.078-8.886.078s-8.887-.035-8.887-.078,3.978-.078,8.887-.078S355.017,455.717,355.017,455.76Z" transform="translate(-337.244 -455.682)" fill="#e0e0e0"/>
                  </g>
                </g>
              </g>
            </g>
          </g>
          <g id="Group_803" data-name="Group 803" transform="translate(0 6.915)">
            <g id="Group_802" data-name="Group 802">
              <g id="Group_801" data-name="Group 801">
                <g id="Group_800" data-name="Group 800">
                  <g id="Group_799" data-name="Group 799">
                    <path id="Path_4508" data-name="Path 4508" d="M355.017,451.593c0,.043-3.979.078-8.886.078s-8.887-.035-8.887-.078,3.978-.078,8.887-.078S355.017,451.55,355.017,451.593Z" transform="translate(-337.244 -451.515)" fill="#e0e0e0"/>
                  </g>
                </g>
              </g>
            </g>
          </g>
          <g id="Group_808" data-name="Group 808" transform="translate(1.141 4.989)">
            <g id="Group_807" data-name="Group 807">
              <g id="Group_806" data-name="Group 806">
                <g id="Group_805" data-name="Group 805">
                  <g id="Group_804" data-name="Group 804">
                    <path id="Path_4509" data-name="Path 4509" d="M361.663,440.378c0,.043-3.979.078-8.886.078s-8.887-.035-8.887-.078,3.978-.078,8.887-.078S361.663,440.335,361.663,440.378Z" transform="translate(-343.89 -440.3)" fill="#e0e0e0"/>
                  </g>
                </g>
              </g>
            </g>
          </g>
          <g id="Group_813" data-name="Group 813" transform="translate(1.251 10.238)">
            <g id="Group_812" data-name="Group 812">
              <g id="Group_811" data-name="Group 811">
                <g id="Group_810" data-name="Group 810">
                  <g id="Group_809" data-name="Group 809">
                    <path id="Path_4510" data-name="Path 4510" d="M362.3,470.939c0,.043-3.979.078-8.886.078s-8.887-.035-8.887-.078,3.978-.078,8.887-.078S362.3,470.9,362.3,470.939Z" transform="translate(-344.529 -470.861)" fill="#e0e0e0"/>
                  </g>
                </g>
              </g>
            </g>
          </g>
        </g>
      </g>
      <g id="Group_845" data-name="Group 845" transform="translate(5.641 47.823)">
        <g id="Group_844" data-name="Group 844">
          <g id="Group_819" data-name="Group 819" transform="translate(0.039)">
            <g id="Group_818" data-name="Group 818">
              <g id="Group_817" data-name="Group 817">
                <g id="Group_816" data-name="Group 816">
                  <path id="Path_4511" data-name="Path 4511" d="M57.011,443.723v3.729H55.518v.4h1.493v2.5h27.9v-2.271H82.844v-.495H84.91v-.742h.919v-.337H84.738v-2.785Z" transform="translate(-55.518 -443.723)" fill="#ebf2ff"/>
                </g>
              </g>
            </g>
          </g>
          <g id="Group_823" data-name="Group 823" transform="translate(22.023 0)">
            <g id="Group_822" data-name="Group 822">
              <g id="Group_821" data-name="Group 821">
                <g id="Group_820" data-name="Group 820">
                  <path id="Path_4512" data-name="Path 4512" d="M183.517,443.734v6.577h7.409V448.04h-2.067v-.453l2.067.015v-.742h.936l-.018-.383-1.091-.011v-2.743Z" transform="translate(-183.517 -443.723)" fill="#e0e0e0"/>
                </g>
              </g>
            </g>
          </g>
          <g id="Group_828" data-name="Group 828" transform="translate(0 4.039)">
            <g id="Group_827" data-name="Group 827">
              <g id="Group_826" data-name="Group 826">
                <g id="Group_825" data-name="Group 825">
                  <g id="Group_824" data-name="Group 824">
                    <path id="Path_4513" data-name="Path 4513" d="M77.84,467.279c0,.023-5.049.041-11.275.041s-11.276-.019-11.276-.041,5.047-.041,11.276-.041S77.84,467.257,77.84,467.279Z" transform="translate(-55.289 -467.238)" fill="#e0e0e0"/>
                  </g>
                </g>
              </g>
            </g>
          </g>
          <g id="Group_833" data-name="Group 833" transform="translate(0 3.66)">
            <g id="Group_832" data-name="Group 832">
              <g id="Group_831" data-name="Group 831">
                <g id="Group_830" data-name="Group 830">
                  <g id="Group_829" data-name="Group 829">
                    <path id="Path_4514" data-name="Path 4514" d="M77.84,465.074c0,.023-5.049.041-11.275.041s-11.276-.018-11.276-.041,5.047-.041,11.276-.041S77.84,465.052,77.84,465.074Z" transform="translate(-55.289 -465.033)" fill="#e0e0e0"/>
                  </g>
                </g>
              </g>
            </g>
          </g>
          <g id="Group_838" data-name="Group 838" transform="translate(1.448 2.64)">
            <g id="Group_837" data-name="Group 837">
              <g id="Group_836" data-name="Group 836">
                <g id="Group_835" data-name="Group 835">
                  <g id="Group_834" data-name="Group 834">
                    <path id="Path_4515" data-name="Path 4515" d="M86.273,459.138c0,.023-5.049.041-11.275.041s-11.276-.018-11.276-.041S68.769,459.1,75,459.1,86.273,459.116,86.273,459.138Z" transform="translate(-63.722 -459.097)" fill="#e0e0e0"/>
                  </g>
                </g>
              </g>
            </g>
          </g>
          <g id="Group_843" data-name="Group 843" transform="translate(1.587 5.418)">
            <g id="Group_842" data-name="Group 842">
              <g id="Group_841" data-name="Group 841">
                <g id="Group_840" data-name="Group 840">
                  <g id="Group_839" data-name="Group 839">
                    <path id="Path_4516" data-name="Path 4516" d="M87.083,475.313c0,.023-5.049.041-11.275.041s-11.276-.019-11.276-.041,5.047-.041,11.276-.041S87.083,475.291,87.083,475.313Z" transform="translate(-64.532 -475.272)" fill="#e0e0e0"/>
                  </g>
                </g>
              </g>
            </g>
          </g>
        </g>
      </g>
    </g>
    <g id="Desk" transform="translate(25.539 136.359)">
      <g id="Group_847" data-name="Group 847" transform="translate(0)">
        <g id="Group_846" data-name="Group 846">
          <path id="Path_4517" data-name="Path 4517" d="M114.556,482.874c0,.025-16.589.045-37.047.045s-37.051-.02-37.051-.045,16.585-.045,37.051-.045S114.556,482.849,114.556,482.874Z" transform="translate(-40.458 -482.829)" fill="#263238"/>
        </g>
      </g>
    </g>
    <g id="Speech_Bubble" data-name="Speech Bubble" transform="translate(74.825 67.435)">
      <g id="Group_860" data-name="Group 860" transform="translate(0 0)">
        <g id="Group_858" data-name="Group 858">
          <g id="Group_857" data-name="Group 857">
            <g id="Group_856" data-name="Group 856">
              <g id="Group_855" data-name="Group 855">
                <g id="Group_854" data-name="Group 854">
                  <g id="Group_853" data-name="Group 853">
                    <g id="Group_852" data-name="Group 852">
                      <g id="Group_851" data-name="Group 851">
                        <g id="Group_848" data-name="Group 848" transform="translate(0.123 0.051)">
                          <path id="Path_4518" data-name="Path 4518" d="M340.208,86.567l-4.419-4.223-1.047,6.188-5.32.14,3.377,5.382-4.654,4.193,6.4-.712.381,5.975,5.492-4.466,6.662,4.243-.851-6.241,5.008-.349-3.57-4.24,2.411-4.319-4.7.389-.756-6.718Z" transform="translate(-328.144 -81.81)" fill="#fff"/>
                        </g>
                        <g id="Group_850" data-name="Group 850">
                          <g id="Group_849" data-name="Group 849">
                            <path id="Path_4519" data-name="Path 4519" d="M339.614,86.323s.1-.111.292-.321l.853-.927,3.253-3.524.033-.036.005.048.764,6.717-.033-.027,4.7-.393.065-.005-.032.057-2.409,4.32,0-.043,3.572,4.238.052.061-.08.006-5.007.351.039-.048.852,6.24.013.094-.08-.051L339.8,98.837l.052,0-.837.681-4.655,3.785-.067.054-.006-.086q-.194-3.053-.38-5.975l.048.04-6.4.71-.128.014.1-.086,4.656-4.191-.007.049L328.8,88.446l-.032-.051h.06l5.32-.135-.028.025,1.056-6.186.007-.04.029.028,3.272,3.144.845.814c.19.184.287.28.287.28s-.1-.089-.287-.269l-.848-.8-3.3-3.135.036-.012-1.039,6.189,0,.024h-.024l-5.32.144.028-.053,3.38,5.38.017.027-.024.022-4.652,4.2-.032-.072,6.4-.714.045,0,0,.045q.186,2.918.382,5.975l-.072-.032,4.655-3.785.837-.681.025-.02.027.017,6.662,4.244-.067.043-.849-6.241-.006-.045.045,0,5.008-.347-.028.067-3.568-4.241-.017-.02.013-.023,2.414-4.317.033.051-4.7.385-.03,0,0-.029-.747-6.719.038.013-3.28,3.517-.857.916C339.713,86.22,339.614,86.323,339.614,86.323Z" transform="translate(-327.426 -81.515)" fill="#263238"/>
                          </g>
                        </g>
                      </g>
                    </g>
                  </g>
                </g>
              </g>
            </g>
          </g>
        </g>
        <g id="Group_859" data-name="Group 859" transform="translate(7.451 9.226)">
          <path id="Path_4520" data-name="Path 4520" d="M370.807,138.579l.225-.5a1.685,1.685,0,0,0,.945.3c.393,0,.552-.131.552-.307,0-.536-1.665-.168-1.665-1.231,0-.487.393-.892,1.207-.892a1.923,1.923,0,0,1,.994.253l-.2.5a1.618,1.618,0,0,0-.794-.225c-.393,0-.544.147-.544.327,0,.528,1.665.164,1.665,1.215,0,.479-.4.888-1.215.888A2.04,2.04,0,0,1,370.807,138.579Z" transform="translate(-370.807 -135.826)" fill="#263238"/>
          <path id="Path_4521" data-name="Path 4521" d="M389.3,137.009v1.26h-.638v-1.162c0-.356-.164-.52-.446-.52-.307,0-.528.188-.528.593v1.088h-.638v-3.035h.638V136.3a.968.968,0,0,1,.7-.262A.863.863,0,0,1,389.3,137.009Z" transform="translate(-384.264 -135.234)" fill="#263238"/>
          <path id="Path_4522" data-name="Path 4522" d="M405.766,137.009v1.26h-.638v-1.162c0-.356-.164-.52-.446-.52-.307,0-.528.188-.528.593v1.088h-.638v-3.035h.638V136.3a.968.968,0,0,1,.7-.262A.863.863,0,0,1,405.766,137.009Z" transform="translate(-397.898 -135.234)" fill="#263238"/>
          <path id="Path_4523" data-name="Path 4523" d="M419.43,138.758a.394.394,0,0,1,.785,0,.393.393,0,0,1-.785,0Zm.012-2.524h.761l-.127,1.87h-.507Z" transform="translate(-411.079 -136.062)" fill="#263238"/>
        </g>
      </g>
    </g>
    <g id="Character" transform="translate(41.779 64.515)">
      <g id="Group_1055" data-name="Group 1055" transform="translate(0 0)">
        <g id="Group_996" data-name="Group 996" transform="translate(2.193)">
          <g id="Group_994" data-name="Group 994">
            <g id="Group_993" data-name="Group 993">
              <g id="Group_861" data-name="Group 861">
                <path id="Path_4524" data-name="Path 4524" d="M154.446,64.519a6.754,6.754,0,0,0-5.985,3.088,5.248,5.248,0,0,0,.686,6.09,2,2,0,0,0-.894,3,2.62,2.62,0,0,0,3.494.287,2.369,2.369,0,0,0,1.21,3.064,4.527,4.527,0,0,0,3.858-.022,6.889,6.889,0,0,0,2.793-2.5l.51-9.488A6.591,6.591,0,0,0,154.446,64.519Z" transform="translate(-147.787 -64.515)" fill="#111228"/>
              </g>
              <g id="Group_992" data-name="Group 992" transform="translate(5.18 2.211)">
                <g id="Group_865" data-name="Group 865" transform="translate(0.036 0.049)">
                  <g id="Group_864" data-name="Group 864">
                    <g id="Group_863" data-name="Group 863">
                      <g id="Group_862" data-name="Group 862">
                        <path id="Path_4525" data-name="Path 4525" d="M178.779,89.835a2.883,2.883,0,0,1,.129-3.728,1.93,1.93,0,0,1,.118-2.365,5.758,5.758,0,0,1,2.092-1.472,3.961,3.961,0,0,1,4.514-3.019c.971-1.524,3.146-1.833,4.912-1.39a4.709,4.709,0,0,0,1.309.235,7.628,7.628,0,0,0,.964-.166,4.252,4.252,0,0,1,4.332,2.49,3.242,3.242,0,0,0,.4.748,4.465,4.465,0,0,0,.9.664,2.8,2.8,0,0,1,1.162,2.038,5.237,5.237,0,0,0,.172,2.024,10.285,10.285,0,0,1,.554.867c.362.926-.656,1.922-.426,2.889.047.2.144.379.207.572a1.715,1.715,0,0,1-.064,1.215,2.468,2.468,0,0,0-.355.884,2.781,2.781,0,0,0,.169.706,6.305,6.305,0,0,1-1.546,3.2l-15.185.662a2.822,2.822,0,0,1-2.282-2.339A1.019,1.019,0,0,0,180.7,94a1.221,1.221,0,0,0-.424-.252c-1-.485-1.162-1.808-1.1-2.9a1.317,1.317,0,0,0-.025-.458A1.679,1.679,0,0,0,178.779,89.835Z" transform="translate(-178.158 -77.675)" fill="#111228"/>
                      </g>
                    </g>
                  </g>
                </g>
                <g id="Group_869" data-name="Group 869" transform="translate(5.536 3.801)">
                  <g id="Group_868" data-name="Group 868">
                    <g id="Group_867" data-name="Group 867">
                      <g id="Group_866" data-name="Group 866">
                        <path id="Path_4526" data-name="Path 4526" d="M210.193,107.834c-.14-2.655.9-5.8,3.524-7.2a10.14,10.14,0,0,1,3.849-1.061,6.216,6.216,0,0,1,3.609.618c.844.165,4.011,2.835,4.278,5.842a53.023,53.023,0,0,1,.185,9.937,6.519,6.519,0,0,1-5,5.789c0-.008-.026,3.269-.026,3.269h0c-2.416,3.67-6.717,3.846-9.563.506h0Z" transform="translate(-210.18 -99.517)" fill="#ffbf9d"/>
                      </g>
                    </g>
                  </g>
                </g>
                <g id="Group_873" data-name="Group 873" transform="translate(13.761 18.827)">
                  <g id="Group_872" data-name="Group 872">
                    <g id="Group_871" data-name="Group 871">
                      <g id="Group_870" data-name="Group 870">
                        <path id="Path_4527" data-name="Path 4527" d="M258.07,187.936a.981.981,0,0,1,.295-.633,1.027,1.027,0,0,1,1.226-.166,1.11,1.11,0,0,1,.445,1.144h0c-.187.3-.318.595-.671.653a1.448,1.448,0,0,1-.166.018,1.122,1.122,0,0,1-.771-.234A.976.976,0,0,1,258.07,187.936Z" transform="translate(-258.068 -187.006)" fill="#ff9a6c"/>
                      </g>
                    </g>
                  </g>
                </g>
                <g id="Group_882" data-name="Group 882" transform="translate(17.517 13.9)">
                  <g id="Group_881" data-name="Group 881">
                    <g id="Group_880" data-name="Group 880">
                      <g id="Group_879" data-name="Group 879">
                        <g id="Group_878" data-name="Group 878">
                          <g id="Group_877" data-name="Group 877">
                            <g id="Group_876" data-name="Group 876">
                              <g id="Group_875" data-name="Group 875">
                                <g id="Group_874" data-name="Group 874">
                                  <path id="Path_4528" data-name="Path 4528" d="M281.237,158.885a.647.647,0,0,1-.612.665.621.621,0,0,1-.686-.564.647.647,0,0,1,.611-.665A.622.622,0,0,1,281.237,158.885Z" transform="translate(-279.938 -158.319)" fill="#263238"/>
                                </g>
                              </g>
                            </g>
                          </g>
                        </g>
                      </g>
                    </g>
                  </g>
                </g>
                <g id="Group_892" data-name="Group 892" transform="translate(17.113 11.628)">
                  <g id="Group_891" data-name="Group 891">
                    <g id="Group_890" data-name="Group 890">
                      <g id="Group_889" data-name="Group 889">
                        <g id="Group_888" data-name="Group 888">
                          <g id="Group_887" data-name="Group 887">
                            <g id="Group_886" data-name="Group 886">
                              <g id="Group_885" data-name="Group 885">
                                <g id="Group_884" data-name="Group 884">
                                  <g id="Group_883" data-name="Group 883">
                                    <path id="Path_4529" data-name="Path 4529" d="M280.162,145.741c-.079.086-.581-.263-1.282-.244s-1.206.378-1.284.295c-.038-.037.04-.19.26-.357a1.8,1.8,0,0,1,1.026-.34,1.733,1.733,0,0,1,1.023.3C280.124,145.552,280.2,145.7,280.162,145.741Z" transform="translate(-277.586 -145.094)" fill="#263238"/>
                                  </g>
                                </g>
                              </g>
                            </g>
                          </g>
                        </g>
                      </g>
                    </g>
                  </g>
                </g>
                <g id="Group_901" data-name="Group 901" transform="translate(15.252 12.08)">
                  <g id="Group_900" data-name="Group 900">
                    <g id="Group_899" data-name="Group 899">
                      <g id="Group_898" data-name="Group 898">
                        <g id="Group_897" data-name="Group 897">
                          <g id="Group_896" data-name="Group 896">
                            <g id="Group_895" data-name="Group 895">
                              <g id="Group_894" data-name="Group 894">
                                <g id="Group_893" data-name="Group 893">
                                  <path id="Path_4530" data-name="Path 4530" d="M267.221,153.489a4.706,4.706,0,0,1,1.134-.23c.178-.023.347-.062.374-.183a.892.892,0,0,0-.132-.521l-.563-1.334a23.02,23.02,0,0,1-1.276-3.495,23.047,23.047,0,0,1,1.558,3.385q.283.7.541,1.343a1.014,1.014,0,0,1,.11.692.448.448,0,0,1-.288.266,1.233,1.233,0,0,1-.3.049A4.612,4.612,0,0,1,267.221,153.489Z" transform="translate(-266.751 -147.724)" fill="#263238"/>
                                </g>
                              </g>
                            </g>
                          </g>
                        </g>
                      </g>
                    </g>
                  </g>
                </g>
                <g id="Group_909" data-name="Group 909" transform="translate(9.135 24.402)">
                  <g id="Group_908" data-name="Group 908">
                    <g id="Group_907" data-name="Group 907">
                      <g id="Group_906" data-name="Group 906">
                        <g id="Group_905" data-name="Group 905">
                          <g id="Group_904" data-name="Group 904">
                            <g id="Group_903" data-name="Group 903">
                              <g id="Group_902" data-name="Group 902">
                                <path id="Path_4531" data-name="Path 4531" d="M238,221.1a13.108,13.108,0,0,1-6.87-1.627s1.734,3.562,6.806,2.97Z" transform="translate(-231.132 -219.472)" fill="#ff9a6c"/>
                              </g>
                            </g>
                          </g>
                        </g>
                      </g>
                    </g>
                  </g>
                </g>
                <g id="Group_920" data-name="Group 920" transform="translate(16.574 8.945)">
                  <g id="Group_919" data-name="Group 919">
                    <g id="Group_918" data-name="Group 918">
                      <g id="Group_917" data-name="Group 917">
                        <g id="Group_916" data-name="Group 916">
                          <g id="Group_915" data-name="Group 915">
                            <g id="Group_914" data-name="Group 914">
                              <g id="Group_913" data-name="Group 913">
                                <g id="Group_912" data-name="Group 912">
                                  <g id="Group_911" data-name="Group 911">
                                    <g id="Group_910" data-name="Group 910">
                                      <path id="Path_4532" data-name="Path 4532" d="M277.034,130.039c-.114.172-.653.072-1.279.139-.628.047-1.141.242-1.283.093-.063-.073,0-.24.214-.415a2.013,2.013,0,0,1,2.065-.187C276.991,129.8,277.083,129.956,277.034,130.039Z" transform="translate(-274.448 -129.468)" fill="#263238"/>
                                    </g>
                                  </g>
                                </g>
                              </g>
                            </g>
                          </g>
                        </g>
                      </g>
                    </g>
                  </g>
                </g>
                <g id="Group_929" data-name="Group 929" transform="translate(10.949 13.901)">
                  <g id="Group_928" data-name="Group 928">
                    <g id="Group_927" data-name="Group 927">
                      <g id="Group_926" data-name="Group 926">
                        <g id="Group_925" data-name="Group 925">
                          <g id="Group_924" data-name="Group 924">
                            <g id="Group_923" data-name="Group 923">
                              <g id="Group_922" data-name="Group 922">
                                <g id="Group_921" data-name="Group 921">
                                  <path id="Path_4533" data-name="Path 4533" d="M241.7,158.947a.648.648,0,0,0,.668.61.62.62,0,0,0,.634-.62.649.649,0,0,0-.667-.611A.62.62,0,0,0,241.7,158.947Z" transform="translate(-241.696 -158.326)" fill="#263238"/>
                                </g>
                              </g>
                            </g>
                          </g>
                        </g>
                      </g>
                    </g>
                  </g>
                </g>
                <g id="Group_939" data-name="Group 939" transform="translate(10.092 12.022)">
                  <g id="Group_938" data-name="Group 938">
                    <g id="Group_937" data-name="Group 937">
                      <g id="Group_936" data-name="Group 936">
                        <g id="Group_935" data-name="Group 935">
                          <g id="Group_934" data-name="Group 934">
                            <g id="Group_933" data-name="Group 933">
                              <g id="Group_932" data-name="Group 932">
                                <g id="Group_931" data-name="Group 931">
                                  <g id="Group_930" data-name="Group 930">
                                    <path id="Path_4534" data-name="Path 4534" d="M236.719,148.142c.086.079.556-.312,1.256-.353s1.235.274,1.305.184c.035-.04-.057-.186-.29-.333a1.807,1.807,0,0,0-1.051-.251,1.728,1.728,0,0,0-.993.385C236.74,147.951,236.677,148.107,236.719,148.142Z" transform="translate(-236.706 -147.386)" fill="#263238"/>
                                  </g>
                                </g>
                              </g>
                            </g>
                          </g>
                        </g>
                      </g>
                    </g>
                  </g>
                </g>
                <g id="Group_950" data-name="Group 950" transform="translate(9.983 9.259)">
                  <g id="Group_949" data-name="Group 949">
                    <g id="Group_948" data-name="Group 948">
                      <g id="Group_947" data-name="Group 947">
                        <g id="Group_946" data-name="Group 946">
                          <g id="Group_945" data-name="Group 945">
                            <g id="Group_944" data-name="Group 944">
                              <g id="Group_943" data-name="Group 943">
                                <g id="Group_942" data-name="Group 942">
                                  <g id="Group_941" data-name="Group 941">
                                    <g id="Group_940" data-name="Group 940">
                                      <path id="Path_4535" data-name="Path 4535" d="M236.094,132.105c.148.149.678-.047,1.326-.095.647-.067,1.206.032,1.322-.14.05-.083-.046-.235-.3-.369a2.027,2.027,0,0,0-1.1-.191,2,2,0,0,0-1.039.381C236.094,131.866,236.029,132.032,236.094,132.105Z" transform="translate(-236.07 -131.301)" fill="#263238"/>
                                    </g>
                                  </g>
                                </g>
                              </g>
                            </g>
                          </g>
                        </g>
                      </g>
                    </g>
                  </g>
                </g>
                <g id="Group_958" data-name="Group 958" transform="translate(2.349 15.49)">
                  <g id="Group_957" data-name="Group 957">
                    <g id="Group_956" data-name="Group 956">
                      <g id="Group_955" data-name="Group 955">
                        <g id="Group_954" data-name="Group 954">
                          <g id="Group_953" data-name="Group 953">
                            <g id="Group_952" data-name="Group 952">
                              <g id="Group_951" data-name="Group 951">
                                <path id="Path_4536" data-name="Path 4536" d="M195.219,168.906c-.01-.374-.469-1.245-.844-1.293-1-.13-2.8-.007-2.752,2.5.062,3.423,3.6,2.634,3.6,2.536C195.23,172.569,195.255,170.2,195.219,168.906Z" transform="translate(-191.622 -167.578)" fill="#ffbf9d"/>
                              </g>
                            </g>
                          </g>
                        </g>
                      </g>
                    </g>
                  </g>
                </g>
                <g id="Group_967" data-name="Group 967" transform="translate(3.333 16.648)">
                  <g id="Group_966" data-name="Group 966">
                    <g id="Group_965" data-name="Group 965">
                      <g id="Group_964" data-name="Group 964">
                        <g id="Group_963" data-name="Group 963">
                          <g id="Group_962" data-name="Group 962">
                            <g id="Group_961" data-name="Group 961">
                              <g id="Group_960" data-name="Group 960">
                                <g id="Group_959" data-name="Group 959">
                                  <path id="Path_4537" data-name="Path 4537" d="M198.92,177.019c-.015-.011-.059.043-.16.091a.61.61,0,0,1-.451.017,1.472,1.472,0,0,1-.715-1.312,1.949,1.949,0,0,1,.153-.857.693.693,0,0,1,.446-.466.309.309,0,0,1,.359.157c.048.1.027.164.046.169s.073-.058.043-.2a.379.379,0,0,0-.14-.212.459.459,0,0,0-.335-.081.845.845,0,0,0-.621.542,2.006,2.006,0,0,0-.192.958,1.547,1.547,0,0,0,.907,1.463.653.653,0,0,0,.55-.1C198.915,177.1,198.932,177.025,198.92,177.019Z" transform="translate(-197.35 -174.322)" fill="#ff9a6c"/>
                                </g>
                              </g>
                            </g>
                          </g>
                        </g>
                      </g>
                    </g>
                  </g>
                </g>
                <g id="Group_971" data-name="Group 971" transform="translate(3.238 2.196)">
                  <g id="Group_970" data-name="Group 970">
                    <g id="Group_969" data-name="Group 969">
                      <g id="Group_968" data-name="Group 968">
                        <path id="Path_4538" data-name="Path 4538" d="M215.139,98.327a1.989,1.989,0,0,1-1.15-1.807c-.46.148-.947-.431-1.227-.821s-.617-.582-.609-1.061a.535.535,0,0,0-.042-.277.589.589,0,0,0-.384-.209A2.307,2.307,0,0,1,210.16,92.6a4.961,4.961,0,0,1-2.364.446,1.888,1.888,0,0,1-3.178-.058,1.678,1.678,0,0,1-1.1.848,5.038,5.038,0,0,1-1.434.113,1.96,1.96,0,0,1-1.251,2.255c-.122.041-.264.081-.318.2s.012.257.063.38a1.542,1.542,0,0,1-1,1.993,1.144,1.144,0,0,1-.059,1.808c-.124.078-.286.173-.263.317a.324.324,0,0,0,.08.144,2.232,2.232,0,0,1,.575,1.118.829.829,0,0,1-.663.933,1.1,1.1,0,0,1,.459.739c.013.3-.284.608-.568.508-.121-.043-1.854-.335-1.932-.435-1.013-1.29.182-2.773.238-4.406a10.526,10.526,0,0,1,1.379-4.661,7.766,7.766,0,0,1,1.188-1.68,10.441,10.441,0,0,1,1.869-1.433,9.6,9.6,0,0,1,2.745-1.378,8.854,8.854,0,0,1,5.58.893,8.167,8.167,0,0,1,1.909,1.049,7.3,7.3,0,0,1,1.637,2.006,9.014,9.014,0,0,1,1.343,3.473" transform="translate(-196.801 -90.174)" fill="#111228"/>
                      </g>
                    </g>
                  </g>
                </g>
                <g id="Group_975" data-name="Group 975">
                  <g id="Group_974" data-name="Group 974">
                    <g id="Group_973" data-name="Group 973">
                      <g id="Group_972" data-name="Group 972">
                        <path id="Path_4539" data-name="Path 4539" d="M200.171,86.523a1.3,1.3,0,0,0-.2-.363c-.076-.112-.183-.242-.286-.409a1.581,1.581,0,0,1-.211-.634,4.935,4.935,0,0,1-.007-.847,3.717,3.717,0,0,0-.054-1.015,2.833,2.833,0,0,0-.484-1.066,2.8,2.8,0,0,0-.439-.474,4.241,4.241,0,0,0-.558-.388,2.146,2.146,0,0,1-.538-.435,2.768,2.768,0,0,1-.345-.636,4.467,4.467,0,0,0-.877-1.3,4.514,4.514,0,0,0-1.369-.985,4.155,4.155,0,0,0-.842-.288,3.778,3.778,0,0,0-.913-.078,4.325,4.325,0,0,0-.465.049c-.154.028-.306.064-.459.095a2.257,2.257,0,0,1-.925.025c-.312-.052-.619-.155-.941-.225a6.152,6.152,0,0,0-2-.128,5.33,5.33,0,0,0-1.011.212,3.415,3.415,0,0,0-1.713,1.183l-.124.172.055-.023a3.918,3.918,0,0,0-2.966.674,3.808,3.808,0,0,0-1.608,2.387l.026-.035a11.041,11.041,0,0,0-1.2.665,3.638,3.638,0,0,0-.967.9,2.329,2.329,0,0,0-.419,1.193A1.6,1.6,0,0,0,178.7,85.9l0-.057a2.818,2.818,0,0,0-.75,1.778,2.876,2.876,0,0,0,.406,1.691,2.807,2.807,0,0,0,.239.333,3.65,3.65,0,0,1,.247.3.725.725,0,0,1,.132.332,2.064,2.064,0,0,1,0,.356,5.558,5.558,0,0,0,.072,1.3,2.7,2.7,0,0,0,.368.98,1.691,1.691,0,0,0,.554.541c.182.112.341.153.431.214a.8.8,0,0,1,.129.1.4.4,0,0,0-.122-.111c-.089-.066-.249-.112-.424-.225a1.684,1.684,0,0,1-.535-.539,2.679,2.679,0,0,1-.351-.968,5.551,5.551,0,0,1-.061-1.286,2.1,2.1,0,0,0,0-.366.789.789,0,0,0-.14-.361,3.717,3.717,0,0,0-.249-.306,2.72,2.72,0,0,1-.231-.325,2.809,2.809,0,0,1-.388-1.65,2.742,2.742,0,0,1,.734-1.724l.027-.028-.025-.029a1.519,1.519,0,0,1-.338-1.088,2.244,2.244,0,0,1,.406-1.145,3.549,3.549,0,0,1,.944-.876,10.969,10.969,0,0,1,1.188-.657l.022-.011,0-.024a3.713,3.713,0,0,1,1.569-2.321,3.818,3.818,0,0,1,2.886-.656l.033.007.021-.03.12-.166a3.315,3.315,0,0,1,1.661-1.146,5.213,5.213,0,0,1,.989-.208,6.05,6.05,0,0,1,1.967.124c.317.068.626.171.947.225a2.412,2.412,0,0,0,.486.037,2.891,2.891,0,0,0,.476-.064c.155-.032.306-.068.456-.1a4.217,4.217,0,0,1,.452-.048,3.665,3.665,0,0,1,.889.074,4.065,4.065,0,0,1,.823.279,4.541,4.541,0,0,1,2.211,2.236,2.817,2.817,0,0,0,.359.651,2.213,2.213,0,0,0,.559.449,4.2,4.2,0,0,1,.552.379,2.786,2.786,0,0,1,.911,1.5,3.689,3.689,0,0,1,.062,1,4.864,4.864,0,0,0,.017.854,1.6,1.6,0,0,0,.225.645c.107.168.217.3.3.405a2.018,2.018,0,0,1,.166.257C200.156,86.491,200.169,86.524,200.171,86.523Z" transform="translate(-177.946 -77.388)" fill="#455a64"/>
                      </g>
                    </g>
                  </g>
                </g>
                <g id="Group_979" data-name="Group 979" transform="translate(9.116 0.346)">
                  <g id="Group_978" data-name="Group 978">
                    <g id="Group_977" data-name="Group 977">
                      <g id="Group_976" data-name="Group 976">
                        <path id="Path_4540" data-name="Path 4540" d="M231.024,79.885c.005.007.09-.054.256-.14a2.35,2.35,0,0,1,.749-.238,2.21,2.21,0,0,1,1.143.133,2.252,2.252,0,0,1,1.061.9,1.9,1.9,0,0,1,.183.383.424.424,0,0,1-.015.361l-.081.119.139-.043a1.449,1.449,0,0,1,1.074.1,1.373,1.373,0,0,1,.6.618,1.484,1.484,0,0,1,.151.56c.008.137,0,.212.007.213s.008-.018.014-.054a.941.941,0,0,0,.013-.16,1.392,1.392,0,0,0-.127-.587,1.414,1.414,0,0,0-.623-.667,1.525,1.525,0,0,0-1.146-.116l.057.076a.519.519,0,0,0,.03-.447,1.953,1.953,0,0,0-.193-.406,2.313,2.313,0,0,0-1.115-.934,2.237,2.237,0,0,0-1.19-.117,2.184,2.184,0,0,0-.757.275,1.491,1.491,0,0,0-.18.123C231.041,79.865,231.022,79.883,231.024,79.885Z" transform="translate(-231.024 -79.402)" fill="#455a64"/>
                      </g>
                    </g>
                  </g>
                </g>
                <g id="Group_983" data-name="Group 983" transform="translate(3.605 4.909)">
                  <g id="Group_982" data-name="Group 982">
                    <g id="Group_981" data-name="Group 981">
                      <g id="Group_980" data-name="Group 980">
                        <path id="Path_4541" data-name="Path 4541" d="M198.939,105.969s.038.049.125.119a2.228,2.228,0,0,0,.4.258,1.669,1.669,0,0,0,.7.186,1.247,1.247,0,0,0,.853-.28l-.077-.009.105.138c.038.045.081.087.122.132a2.1,2.1,0,0,0,.88.509,2.174,2.174,0,0,0,.828.08,1.931,1.931,0,0,0,.542-.138.69.69,0,0,0,.178-.1,3.029,3.029,0,0,1-.726.165,2.222,2.222,0,0,1-.794-.1,2.072,2.072,0,0,1-.835-.491c-.039-.042-.079-.082-.115-.124l-.1-.13-.035-.046-.042.036a1.174,1.174,0,0,1-.782.266,1.682,1.682,0,0,1-.668-.157C199.134,106.119,198.95,105.954,198.939,105.969Z" transform="translate(-198.939 -105.968)" fill="#455a64"/>
                      </g>
                    </g>
                  </g>
                </g>
                <g id="Group_987" data-name="Group 987" transform="translate(1.862 7.753)">
                  <g id="Group_986" data-name="Group 986">
                    <g id="Group_985" data-name="Group 985">
                      <g id="Group_984" data-name="Group 984">
                        <path id="Path_4542" data-name="Path 4542" d="M188.788,122.913s0,.022.01.063a.577.577,0,0,0,.082.164.924.924,0,0,0,.568.352,1.783,1.783,0,0,0,.986-.133,5.652,5.652,0,0,0,.541-.228.943.943,0,0,0,.466-.444l.02-.056-.081.027a3.978,3.978,0,0,0,1.044.582,1.8,1.8,0,0,0,.975.073,1.291,1.291,0,0,0,.592-.285.789.789,0,0,0,.122-.13c.024-.033.035-.051.032-.053s-.06.061-.179.153a1.349,1.349,0,0,1-.581.245,1.779,1.779,0,0,1-.929-.091,4.074,4.074,0,0,1-1.014-.576l-.056-.041-.025.068-.017.046a.853.853,0,0,1-.418.393c-.174.09-.357.16-.527.228a1.76,1.76,0,0,1-.937.15.922.922,0,0,1-.55-.3A1.5,1.5,0,0,1,188.788,122.913Z" transform="translate(-188.787 -122.533)" fill="#455a64"/>
                      </g>
                    </g>
                  </g>
                </g>
                <g id="Group_991" data-name="Group 991" transform="translate(13.615 19.112)">
                  <g id="Group_990" data-name="Group 990">
                    <g id="Group_989" data-name="Group 989">
                      <g id="Group_988" data-name="Group 988">
                        <path id="Path_4543" data-name="Path 4543" d="M257.238,188.675c.083-.055.426.51,1.16.623s1.306-.309,1.358-.233c.03.031-.07.19-.323.349a1.679,1.679,0,0,1-1.115.226,1.451,1.451,0,0,1-.935-.544C257.217,188.873,257.2,188.694,257.238,188.675Z" transform="translate(-257.219 -188.671)" fill="#263238"/>
                      </g>
                    </g>
                  </g>
                </g>
              </g>
            </g>
          </g>
          <g id="Group_995" data-name="Group 995" transform="translate(8.762 22.226)">
            <path id="Path_4544" data-name="Path 4544" d="M200.127,196.6a1.333,1.333,0,0,1-1.323-1.339,1.349,1.349,0,0,1,.322-.875l.131.112a1.176,1.176,0,0,0-.28.763,1.152,1.152,0,1,0,1.152-1.167v-.172a1.339,1.339,0,0,1,0,2.678Z" transform="translate(-198.804 -193.925)" fill="#455a64"/>
          </g>
        </g>
        <g id="Group_1002" data-name="Group 1002" transform="translate(4.172 30.095)">
          <g id="Group_997" data-name="Group 997" transform="translate(25.038 3.352)">
            <path id="Path_4545" data-name="Path 4545" d="M305.866,279.435c.308,0,11.334-2.213,11.334-2.213s-3.005-17.034-8.767-17.964L305.1,273.11l.386,6.325Z" transform="translate(-305.095 -259.258)" fill="#51d1fe"/>
          </g>
          <g id="Group_998" data-name="Group 998">
            <path id="Path_4546" data-name="Path 4546" d="M189.746,263.473c1.31-6.732-.668-10.84-.668-10.84l-1.391-9.539-7.583-1.551s-1.244,2.289-5.867,2.225c-2.412-.033-5.506-4.026-5.506-4.026l-6.824,1.8,1.566,26.287s-1.935,7.362-4.163,13.706l31.355.085c-.544-3.226-2.79-13.2-2.79-13.2C188.49,266.912,189.589,264.846,189.746,263.473Z" transform="translate(-159.309 -239.742)" fill="#51d1fe"/>
          </g>
          <g id="Group_999" data-name="Group 999" transform="translate(19.807 30.766)" opacity="0.3">
            <path id="Path_4547" data-name="Path 4547" d="M274.638,419.347l.326,1.586h9.35l-.454-2.057Z" transform="translate(-274.638 -418.876)"/>
          </g>
          <g id="Group_1001" data-name="Group 1001" transform="translate(27.209 7.534)">
            <g id="Group_1000" data-name="Group 1000">
              <path id="Path_4548" data-name="Path 4548" d="M317.732,283.611a.261.261,0,0,1,.026.049l.068.148.255.571c.222.5.555,1.209.966,2.089s.9,1.931,1.368,3.13c.232.6.456,1.239.643,1.915a11.706,11.706,0,0,1,.37,2.137,21.159,21.159,0,0,1-.086,4.182,26.268,26.268,0,0,1-.593,3.365,15.993,15.993,0,0,1-.689,2.2c-.095.255-.192.444-.252.573l-.071.147a.251.251,0,0,1-.027.048.262.262,0,0,1,.019-.053l.063-.15c.055-.132.147-.322.236-.578a17.22,17.22,0,0,0,.66-2.2,27.154,27.154,0,0,0,.573-3.359,21.472,21.472,0,0,0,.078-4.166,11.728,11.728,0,0,0-.365-2.122c-.185-.672-.407-1.309-.635-1.908-.463-1.2-.948-2.249-1.349-3.133s-.728-1.6-.941-2.1c-.108-.25-.187-.445-.24-.578l-.059-.152A.257.257,0,0,1,317.732,283.611Z" transform="translate(-317.732 -283.611)" fill="#263238"/>
            </g>
          </g>
        </g>
        <g id="Group_1028" data-name="Group 1028" transform="translate(0 20.998)">
          <g id="Group_1003" data-name="Group 1003" transform="translate(0.75 24.336)">
            <path id="Path_4549" data-name="Path 4549" d="M139.417,335.712s-.68,1.946,4.276,1.537,6.343-3.518,6.343-3.518l-.984-3.778-6.34-1.477-2.651,2.178Z" transform="translate(-139.385 -328.476)" fill="#455a64"/>
          </g>
          <g id="Group_1004" data-name="Group 1004" transform="translate(0.75 24.336)" opacity="0.3">
            <path id="Path_4550" data-name="Path 4550" d="M139.417,335.712s-.68,1.946,4.276,1.537,6.343-3.518,6.343-3.518l-.984-3.778-6.34-1.477-2.651,2.178Z" transform="translate(-139.385 -328.476)" fill="#3bbfe2"/>
          </g>
          <g id="Group_1006" data-name="Group 1006" transform="translate(7.279 12.784)" opacity="0.3">
            <g id="Group_1005" data-name="Group 1005">
              <path id="Path_4551" data-name="Path 4551" d="M194.166,261.519c-.469-.55-1.643-.318-1.571.405l-15.2,27.222c2.337,1.385,5.121,2.754,7.641,1.751,2.448-.975,3.585-3.773,4.4-6.305a127.991,127.991,0,0,0,5.02-20.984A2.619,2.619,0,0,0,194.166,261.519Z" transform="translate(-177.398 -261.215)"/>
            </g>
          </g>
          <g id="Group_1007" data-name="Group 1007" transform="translate(0.817 13.923)">
            <path id="Path_4552" data-name="Path 4552" d="M139.776,276.349c0,.338,4.317,12.912,5.281,15.636,1.276,3.605,6.9,5.717,9.825,1.6C158.057,289.112,162.9,270,162.9,270l-4.409-1.812L150.672,284l-4.214-16.16Z" transform="translate(-139.776 -267.843)" fill="#ffbf9d"/>
          </g>
          <g id="Group_1022" data-name="Group 1022" transform="translate(18.957)">
            <g id="Group_1011" data-name="Group 1011">
              <g id="Group_1008" data-name="Group 1008" transform="translate(0 0.043)">
                <path id="Path_4553" data-name="Path 4553" d="M250.219,203.914s1.117-2.236,1.181-2.342c.016-.027-.051-.072-.02-.049a.593.593,0,0,0,.7-.025c.52-.375,1.4-.943,1.568-1.36a1.614,1.614,0,0,0,.676-1.2c.073-.835.176-2.747.176-2.747s.845-.308.785-1.035-1.184-.546-1.184-.546-.2-.86-.825-1.045a17.054,17.054,0,0,0-2.848-.139s-.07-2.94-.114-4.159a4.312,4.312,0,0,0-.46-1.93.574.574,0,0,0-1.078.21,7.219,7.219,0,0,0,.02,1.469,14.684,14.684,0,0,1-.949,5.024,3.394,3.394,0,0,0-1.154,2.228,18.9,18.9,0,0,1-1.3,6.231" transform="translate(-245.394 -187.027)" fill="#ffbf9d"/>
              </g>
              <g id="Group_1010" data-name="Group 1010">
                <g id="Group_1009" data-name="Group 1009">
                  <path id="Path_4554" data-name="Path 4554" d="M245.394,202.288s.011-.033.038-.1.068-.156.116-.28c.094-.249.228-.619.363-1.107s.28-1.09.413-1.8a20.983,20.983,0,0,0,.322-2.419c0-.112.012-.227.012-.342s0-.231,0-.353a2.241,2.241,0,0,1,.167-.715,4.028,4.028,0,0,1,.882-1.269l.071-.071.034-.035.018-.036c.024-.056.05-.121.071-.184.045-.127.086-.257.128-.387q.121-.394.229-.8c.144-.548.274-1.117.371-1.706a7.979,7.979,0,0,0,.122-1.82c-.027-.312-.054-.63-.052-.952,0-.161.005-.323.019-.485a.7.7,0,0,1,.182-.471.63.63,0,0,1,.48-.18.609.609,0,0,1,.455.244,3.176,3.176,0,0,1,.377.943,5.343,5.343,0,0,1,.139,1.014q.015.512.03,1.03c.03,1.091.059,2.162.087,3.2l-.045-.043c.741-.01,1.466-.008,2.176.043.177.015.354.031.529.063a.986.986,0,0,1,.489.219,1.792,1.792,0,0,1,.52.893l-.047-.031a1.825,1.825,0,0,1,.753.042.742.742,0,0,1,.329.192.619.619,0,0,1,.148.349.934.934,0,0,1-.048.366,1.029,1.029,0,0,1-.186.312,1.567,1.567,0,0,1-.578.4l.025-.034q-.077,1.162-.145,2.208l-.034.515a1.835,1.835,0,0,1-.11.495,1.622,1.622,0,0,1-.586.757l.013-.015a1.575,1.575,0,0,1-.406.493c-.154.137-.313.259-.469.374s-.31.223-.459.327l-.219.154a.743.743,0,0,1-.237.122.58.58,0,0,1-.492-.063l-.025-.018,0,0c-.016.035.038-.041.028-.035l0,0,0,0,.012.012a.086.086,0,0,1,.019.034.043.043,0,0,1,0,.029l-.007.014-.052.1-.1.2-.361.707-.5.975-.132.252c-.03.056-.048.084-.048.084s.012-.031.04-.088l.124-.256.487-.983.355-.712.1-.2.052-.1s0-.012.009-.01-.007,0,0,0a.049.049,0,0,0-.01-.016l-.008-.009,0,0h0c-.011.006.042-.072.027-.036l.007.005.023.016a.535.535,0,0,0,.453.054.7.7,0,0,0,.222-.117l.219-.156c.148-.105.3-.214.456-.329s.312-.237.463-.373a1.534,1.534,0,0,0,.388-.473l0-.009.009-.006a1.562,1.562,0,0,0,.556-.728,3.367,3.367,0,0,0,.136-.992l.138-2.207,0-.024.024-.01a1.5,1.5,0,0,0,.545-.376.954.954,0,0,0,.171-.287.854.854,0,0,0,.042-.333.539.539,0,0,0-.128-.3.661.661,0,0,0-.294-.169,1.749,1.749,0,0,0-.716-.038l-.037,0-.01-.036a1.714,1.714,0,0,0-.494-.847,1.681,1.681,0,0,0-.97-.261c-.7-.049-1.43-.051-2.167-.04h-.044v-.044l-.088-3.2a9.666,9.666,0,0,0-.166-2.026,3.121,3.121,0,0,0-.361-.91.521.521,0,0,0-.389-.209.543.543,0,0,0-.412.154.613.613,0,0,0-.157.416c-.014.159-.019.319-.019.478,0,.318.024.632.051.945a8.035,8.035,0,0,1-.126,1.841c-.1.592-.231,1.163-.376,1.712q-.109.412-.232.807c-.042.132-.083.262-.13.39-.022.065-.046.126-.076.193-.01.018-.019.036-.03.052l-.036.037-.071.07a3.962,3.962,0,0,0-.871,1.243,2.169,2.169,0,0,0-.165.692c0,.115,0,.233,0,.35s-.009.231-.013.345a20.668,20.668,0,0,1-.336,2.424c-.139.707-.288,1.31-.429,1.8a11.285,11.285,0,0,1-.38,1.1c-.051.123-.1.215-.125.277S245.394,202.288,245.394,202.288Z" transform="translate(-245.394 -186.777)" fill="#ff9a6c"/>
                </g>
              </g>
            </g>
            <g id="Group_1013" data-name="Group 1013" transform="translate(2.651 9.089)">
              <g id="Group_1012" data-name="Group 1012">
                <path id="Path_4555" data-name="Path 4555" d="M266.14,243.964a.4.4,0,0,1,.039-.09l.126-.249a4.279,4.279,0,0,0,.369-.948,2.009,2.009,0,0,0,.04-.692,1.379,1.379,0,0,0-.294-.723,1.991,1.991,0,0,0-.719-.494c-.28-.132-.579-.252-.889-.365s-.616-.214-.912-.313a7.75,7.75,0,0,0-.859-.246,2.111,2.111,0,0,0-1.46.129,1.4,1.4,0,0,0-.672.723,1.68,1.68,0,0,0-.075.364.411.411,0,0,1-.006-.1,1.01,1.01,0,0,1,.048-.277,1.405,1.405,0,0,1,.674-.767,1.681,1.681,0,0,1,.686-.209,2.837,2.837,0,0,1,.82.054,7.607,7.607,0,0,1,.87.244c.3.1.6.2.915.312s.612.235.9.37a2.057,2.057,0,0,1,.746.521,1.447,1.447,0,0,1,.3.766,2.043,2.043,0,0,1-.052.715,3.937,3.937,0,0,1-.4.95c-.059.106-.107.187-.141.241A.394.394,0,0,1,266.14,243.964Z" transform="translate(-260.829 -239.7)" fill="#ff9a6c"/>
              </g>
            </g>
            <g id="Group_1015" data-name="Group 1015" transform="translate(4.987 11.141)">
              <g id="Group_1014" data-name="Group 1014">
                <path id="Path_4556" data-name="Path 4556" d="M274.433,257.11a.424.424,0,0,1,.038-.091l.123-.254c.054-.11.12-.244.191-.4a2.813,2.813,0,0,0,.194-.552,3.244,3.244,0,0,0,.05-.709,3.53,3.53,0,0,0-.107-.81c-.126-.567-.364-1.17-.464-1.851l-.005-.039.039-.01a.92.92,0,0,0,.187-.072.963.963,0,0,0,.474-.569l.031-.1.051.095a.913.913,0,0,0,.8.475h.066l-.027.06a1.708,1.708,0,0,0-.076,1.213l.012.036-.037.009a.98.98,0,0,0-.615.475.99.99,0,0,0-.117.592.8.8,0,0,0,.147.36c.053.074.088.109.084.112s-.011-.006-.029-.022a.741.741,0,0,1-.072-.077.778.778,0,0,1-.17-.366,1.017,1.017,0,0,1,.107-.625,1.034,1.034,0,0,1,.649-.517l-.025.045a1.771,1.771,0,0,1,.068-1.27l.039.059a1,1,0,0,1-.875-.517l.081-.008a1.049,1.049,0,0,1-.517.623,1.015,1.015,0,0,1-.205.08l.033-.049c.1.664.331,1.271.454,1.844a3.545,3.545,0,0,1,.1.829,3.225,3.225,0,0,1-.062.723,2.756,2.756,0,0,1-.211.559c-.076.158-.147.29-.205.4s-.105.191-.138.246A.426.426,0,0,1,274.433,257.11Z" transform="translate(-274.433 -251.646)" fill="#ff9a6c"/>
              </g>
            </g>
            <g id="Group_1017" data-name="Group 1017" transform="translate(2.416 7.587)">
              <g id="Group_1016" data-name="Group 1016">
                <path id="Path_4557" data-name="Path 4557" d="M265.919,232.949a2.788,2.788,0,0,0-.078-.3,1.523,1.523,0,0,0-.5-.664,2.333,2.333,0,0,0-1.156-.437c-.47-.066-1-.041-1.55-.081a3.674,3.674,0,0,1-.8-.14c-.252-.076-.484-.17-.713-.23a1.36,1.36,0,0,0-.652-.04.937.937,0,0,0-.484.284,2.254,2.254,0,0,0-.412.732,2.944,2.944,0,0,1-.112.294.282.282,0,0,1,.015-.08c.013-.052.034-.128.064-.225a2.144,2.144,0,0,1,.4-.763,1,1,0,0,1,.514-.314,1.42,1.42,0,0,1,.69.033c.235.06.47.152.717.226a3.663,3.663,0,0,0,.783.135c.546.039,1.076.016,1.555.088a2.349,2.349,0,0,1,1.184.469,1.5,1.5,0,0,1,.495.7,1.089,1.089,0,0,1,.046.231A.277.277,0,0,1,265.919,232.949Z" transform="translate(-259.458 -230.954)" fill="#ff9a6c"/>
              </g>
            </g>
            <g id="Group_1019" data-name="Group 1019" transform="translate(3.525 6.359)">
              <g id="Group_1018" data-name="Group 1018">
                <path id="Path_4558" data-name="Path 4558" d="M265.917,223.924a4,4,0,0,0,1.656-.119,2.04,2.04,0,0,1-1.656.119Z" transform="translate(-265.917 -223.802)" fill="#ff9a6c"/>
              </g>
            </g>
            <g id="Group_1021" data-name="Group 1021" transform="translate(8.658 7.589)">
              <g id="Group_1020" data-name="Group 1020">
                <path id="Path_4559" data-name="Path 4559" d="M296.25,232.576c-.03,0-.054-.377-.167-.822s-.3-.777-.275-.791a1.945,1.945,0,0,1,.362.768A2.205,2.205,0,0,1,296.25,232.576Z" transform="translate(-295.806 -230.962)" fill="#ff9a6c"/>
              </g>
            </g>
          </g>
          <g id="Group_1023" data-name="Group 1023" transform="translate(0 10.898)">
            <path id="Path_4560" data-name="Path 4560" d="M135.8,270.9c0-.213-1.66-11.474-.142-15.48,1.545-4.077,6.129-5.195,6.129-5.195l4.112,15.855a10.125,10.125,0,0,0-5.98.663A9.8,9.8,0,0,0,135.8,270.9Z" transform="translate(-135.017 -250.229)" fill="#51d1fe"/>
          </g>
          <g id="Group_1025" data-name="Group 1025" transform="translate(8.334 16.452)">
            <g id="Group_1024" data-name="Group 1024">
              <path id="Path_4561" data-name="Path 4561" d="M183.545,282.57c.024-.006.614,2.3,1.317,5.139s1.254,5.155,1.23,5.161-.613-2.295-1.317-5.14S183.522,282.576,183.545,282.57Z" transform="translate(-183.545 -282.57)" fill="#263238"/>
            </g>
          </g>
          <g id="Group_1027" data-name="Group 1027" transform="translate(10.226 29.995)">
            <g id="Group_1026" data-name="Group 1026">
              <path id="Path_4562" data-name="Path 4562" d="M194.841,367.083a1.23,1.23,0,0,1-.078-.225,2.334,2.334,0,0,1-.071-.271c-.022-.107-.054-.228-.069-.365a4.269,4.269,0,0,1-.049-.448c-.016-.161-.013-.335-.014-.517a5.906,5.906,0,0,1,.519-2.3c.078-.165.151-.322.234-.461a4.4,4.4,0,0,1,.235-.384c.072-.117.153-.213.218-.3a2.431,2.431,0,0,1,.179-.216,1.2,1.2,0,0,1,.166-.171c.014.012-.217.262-.509.722-.072.116-.151.242-.223.385s-.148.3-.223.459a6.182,6.182,0,0,0-.512,2.268c0,.18-.007.351.006.51s.021.308.038.443C194.754,366.754,194.859,367.078,194.841,367.083Z" transform="translate(-194.559 -361.426)" fill="#ff9a6c"/>
            </g>
          </g>
        </g>
        <g id="Group_1054" data-name="Group 1054" transform="translate(23.102 41.514)">
          <g id="Group_1036" data-name="Group 1036">
            <g id="Group_1029" data-name="Group 1029">
              <path id="Path_4563" data-name="Path 4563" d="M295.461,309.213l-15.338.1h0l-2.426-2.421a2.266,2.266,0,0,0-1.6-.664h-5.9a.676.676,0,0,0-.67.722l.39,18.053A1.091,1.091,0,0,0,271,326.077l22.191.02a2.613,2.613,0,0,0,2.6-2.563l.345-13.623A.676.676,0,0,0,295.461,309.213Z" transform="translate(-269.527 -306.228)" fill="#eac250"/>
            </g>
            <g id="Group_1030" data-name="Group 1030" transform="translate(0.603 1.718)" opacity="0.3">
              <path id="Path_4564" data-name="Path 4564" d="M274.406,316.49l-.091-.258s-.372-.039-.577,1.258-.7,15.283-.7,15.283l1.619-15.861Z" transform="translate(-273.038 -316.231)"/>
            </g>
            <g id="Group_1034" data-name="Group 1034" transform="translate(0.601 1.057)">
              <g id="Group_1033" data-name="Group 1033">
                <g id="Group_1032" data-name="Group 1032">
                  <g id="Group_1031" data-name="Group 1031">
                    <path id="Path_4565" data-name="Path 4565" d="M273.607,330.178l24.529-1.569a.549.549,0,0,0,.51-.522l.78-15.125a.549.549,0,0,0-.544-.581H274.9a.547.547,0,0,0-.543.508l-1.328,16.694A.548.548,0,0,0,273.607,330.178Z" transform="translate(-273.028 -312.382)" fill="#fafafa"/>
                  </g>
                </g>
              </g>
            </g>
            <g id="Group_1035" data-name="Group 1035" transform="translate(0.551 2.157)">
              <path id="Path_4566" data-name="Path 4566" d="M300.045,318.787H276.12a1.11,1.11,0,0,0-1.094.957l-2.291,15.791.824.966h23.906a1.11,1.11,0,0,0,1.09-.933l2.58-15.475A1.115,1.115,0,0,0,300.045,318.787Z" transform="translate(-272.735 -318.787)" fill="#f9dd66"/>
            </g>
          </g>
          <g id="Group_1038" data-name="Group 1038" transform="translate(23.848 6.98)" opacity="0.3">
            <g id="Group_1037" data-name="Group 1037">
              <path id="Path_4567" data-name="Path 4567" d="M409.857,346.868a1.3,1.3,0,0,0,.5,1.118c.425.323,1.034.361,1.4.75a1.279,1.279,0,0,1,.254,1.178,2.348,2.348,0,0,1-.654,1.053c-.3.295-.632.542-.947.816a5.1,5.1,0,0,0-1.144,1.369,7.776,7.776,0,0,0-.385.859l-.378.944c-.107.267-.2.6-.012.816a.763.763,0,0,0,.533.181,8.682,8.682,0,0,0,2.47-.058q.006-.213.011-.425s1.374-4.848,1.374-4.8.154-3.065.154-3.065Z" transform="translate(-408.381 -346.868)"/>
            </g>
          </g>
          <g id="Group_1053" data-name="Group 1053" transform="translate(23.647 5.969)">
            <g id="Group_1052" data-name="Group 1052">
              <g id="Group_1051" data-name="Group 1051">
                <g id="Group_1041" data-name="Group 1041">
                  <g id="Group_1040" data-name="Group 1040">
                    <g id="Group_1039" data-name="Group 1039">
                      <path id="Path_4568" data-name="Path 4568" d="M412.861,342.9a1.215,1.215,0,0,0-.966-1.582c-.9-.258-3.671-.8-3.242.522a1.279,1.279,0,0,0,1.1.831,2.423,2.423,0,0,1,1.195.6.961.961,0,0,1,.377.752,1.748,1.748,0,0,1-1.217,1.772,3.294,3.294,0,0,0-2.167,1.679c-.338.69.087.988.087.988s-.742.572-.618,1.117a.905.905,0,0,1-.13.606l0,.007a.6.6,0,0,0,.431.845l.061.011s3.67-.135,4.493-1.082a3.909,3.909,0,0,0,.948-1.811s.675-1.15-.088-1.822c.28-1.317,0-1.985-.518-2.375Z" transform="translate(-407.211 -340.982)" fill="#ffbf9d"/>
                    </g>
                  </g>
                </g>
                <g id="Group_1044" data-name="Group 1044" transform="translate(0.816 5.358)">
                  <g id="Group_1043" data-name="Group 1043">
                    <g id="Group_1042" data-name="Group 1042">
                      <path id="Path_4569" data-name="Path 4569" d="M411.964,374.292a2.478,2.478,0,0,0,.759-.1c.462-.092,1.094-.277,1.776-.48a3.961,3.961,0,0,0,.963-.371,3.7,3.7,0,0,0,.668-.518c.353-.334.461-.638.431-.646a4.578,4.578,0,0,1-.523.541,4.4,4.4,0,0,1-.664.463,4.326,4.326,0,0,1-.927.339l-1.757.535A3.562,3.562,0,0,0,411.964,374.292Z" transform="translate(-411.964 -372.177)" fill="#ff9a6c"/>
                    </g>
                  </g>
                </g>
                <g id="Group_1047" data-name="Group 1047" transform="translate(0.293 6.605)">
                  <g id="Group_1046" data-name="Group 1046">
                    <g id="Group_1045" data-name="Group 1045">
                      <path id="Path_4570" data-name="Path 4570" d="M408.917,381.838a2.259,2.259,0,0,0,.952.132,8.126,8.126,0,0,0,2.275-.431l.627-.2a2.472,2.472,0,0,0,.583-.246,2.8,2.8,0,0,0,.728-.781,1.922,1.922,0,0,0,.413-.878,9.47,9.47,0,0,1-.525.795,2.923,2.923,0,0,1-.709.708,7.4,7.4,0,0,1-1.173.41,10,10,0,0,1-2.224.481C409.283,381.87,408.922,381.805,408.917,381.838Z" transform="translate(-408.917 -379.437)" fill="#ff9a6c"/>
                    </g>
                  </g>
                </g>
                <g id="Group_1050" data-name="Group 1050" transform="translate(2.551 1.665)">
                  <g id="Group_1049" data-name="Group 1049">
                    <g id="Group_1048" data-name="Group 1048">
                      <path id="Path_4571" data-name="Path 4571" d="M422.068,350.689a4.055,4.055,0,0,0,1.144.528,4.26,4.26,0,0,0,.862.254c.235.03.381-.011.379-.036s-.14-.04-.351-.1-.495-.183-.822-.3A4.037,4.037,0,0,0,422.068,350.689Z" transform="translate(-422.067 -350.679)" fill="#ff9a6c"/>
                    </g>
                  </g>
                </g>
              </g>
            </g>
          </g>
        </g>
      </g>
    </g>
  </g>
</svg>
