<svg id="equal" xmlns="http://www.w3.org/2000/svg" width="14.01" height="10.826" viewBox="0 0 14.01 10.826">
  <g id="Group_1118" data-name="Group 1118" transform="translate(0.011 0)">
    <g id="Group_1117" data-name="Group 1117" transform="translate(0 0)">
      <path id="Path_4656" data-name="Path 4656" d="M13.442,32.837a4.153,4.153,0,0,1-5.856,0,5.237,5.237,0,0,0-7.374,0l.77.77a4.142,4.142,0,0,1,5.834,0l.39-.38-.38.38a5.237,5.237,0,0,0,7.384,0Z" transform="translate(-0.213 -31.319)" fill="#75769d"/>
    </g>
  </g>
  <g id="Group_1120" data-name="Group 1120" transform="translate(0 7.011)">
    <g id="Group_1119" data-name="Group 1119">
      <path id="Path_4657" data-name="Path 4657" d="M13.229,170.78a4.142,4.142,0,0,1-5.856,0,5.227,5.227,0,0,0-7.374,0l.77.77a4.142,4.142,0,0,1,5.845,0,5.237,5.237,0,0,0,7.384,0Z" transform="translate(0 -169.258)" fill="#75769d"/>
    </g>
  </g>
</svg>
