<svg width="50" height="50" viewBox="0 0 50 50" fill="none" xmlns="http://www.w3.org/2000/svg">
<circle cx="25" cy="25" r="25" fill="black" fill-opacity="0.04"/>
<path d="M32.1719 33.5938H32.0312V33.7344C32.0312 34.5259 31.7168 35.285 31.1571 35.8446C30.5975 36.4043 29.8384 36.7188 29.0469 36.7188H17.8281C17.0366 36.7188 16.2775 36.4043 15.7179 35.8446C15.1582 35.285 14.8438 34.5259 14.8438 33.7344V19.3906C14.8438 18.5991 15.1582 17.84 15.7179 17.2804C16.2775 16.7207 17.0366 16.4062 17.8281 16.4062H17.9688V16.2656C17.9688 15.8737 18.0459 15.4856 18.1959 15.1236C18.3459 14.7615 18.5657 14.4325 18.8429 14.1554C19.12 13.8782 19.449 13.6584 19.8111 13.5084C20.1731 13.3584 20.5612 13.2812 20.9531 13.2812H32.1719C32.9634 13.2812 33.7225 13.5957 34.2821 14.1554C34.8418 14.715 35.1562 15.4741 35.1562 16.2656V30.6094C35.1562 31.4009 34.8418 32.16 34.2821 32.7196C33.7225 33.2793 32.9634 33.5938 32.1719 33.5938ZM17.8281 17.9688C17.4517 17.9708 17.0912 18.1213 16.825 18.3875C16.5588 18.6537 16.4083 19.0142 16.4062 19.3906V33.7344C16.4083 34.1108 16.5588 34.4713 16.825 34.7375C17.0912 35.0037 17.4517 35.1542 17.8281 35.1562H29.0469C29.4233 35.1542 29.7838 35.0037 30.05 34.7375C30.3162 34.4713 30.4667 34.1108 30.4688 33.7344V19.3906C30.4667 19.0142 30.3162 18.6537 30.05 18.3875C29.7838 18.1213 29.4233 17.9708 29.0469 17.9688H17.8281ZM33.5938 16.2656C33.5917 15.8892 33.4412 15.5287 33.175 15.2625C32.9088 14.9963 32.5483 14.8458 32.1719 14.8438H20.9531C20.5767 14.8458 20.2162 14.9963 19.95 15.2625C19.6838 15.5287 19.5333 15.8892 19.5312 16.2656V16.4062H29.0469C29.8384 16.4062 30.5975 16.7207 31.1571 17.2804C31.7168 17.84 32.0312 18.5991 32.0312 19.3906V32.0312H32.1719C32.5483 32.0292 32.9088 31.8787 33.175 31.6125C33.4412 31.3463 33.5917 30.9858 33.5938 30.6094V16.2656Z" fill="black"/>
</svg>
