<svg width="23" height="23" viewBox="0 0 23 23" fill="none" xmlns="http://www.w3.org/2000/svg">
<circle cx="11.299" cy="11.7473" r="10.5576" fill="#38FF8E" stroke="#38FF8E" stroke-width="0.541416"/>
<path d="M6.46777 9.99268H11.6754" stroke="#292D32" stroke-width="0.710125" stroke-miterlimit="10" stroke-linecap="round" stroke-linejoin="round"/>
<path d="M8.36133 13.78H9.30816" stroke="#292D32" stroke-width="0.710125" stroke-miterlimit="10" stroke-linecap="round" stroke-linejoin="round"/>
<path d="M10.4912 13.78H12.3849" stroke="#292D32" stroke-width="0.710125" stroke-miterlimit="10" stroke-linecap="round" stroke-linejoin="round"/>
<path d="M15.9361 11.3326V13.5955C15.9361 15.2572 15.5148 15.6738 13.8341 15.6738H8.56974C6.88911 15.6738 6.46777 15.2572 6.46777 13.5955V9.70404C6.46777 8.04235 6.88911 7.62573 8.56974 7.62573H11.8079" stroke="#292D32" stroke-width="0.710125" stroke-linecap="round" stroke-linejoin="round"/>
<path d="M13.5693 7.50732H15.0511C15.3778 7.50732 15.6429 7.80558 15.6429 8.09909C15.6429 8.42575 15.3778 8.69087 15.0511 8.69087H13.5693V7.50732Z" stroke="#292D32" stroke-width="0.710125" stroke-miterlimit="10" stroke-linecap="round" stroke-linejoin="round"/>
<path d="M13.5693 8.69092H15.2594C15.6334 8.69092 15.9364 8.95603 15.9364 9.28269C15.9364 9.60935 15.6334 9.87446 15.2594 9.87446H13.5693V8.69092Z" stroke="#292D32" stroke-width="0.710125" stroke-miterlimit="10" stroke-linecap="round" stroke-linejoin="round"/>
<path d="M14.4023 9.87427V10.466" stroke="#292D32" stroke-width="0.710125" stroke-miterlimit="10" stroke-linecap="round" stroke-linejoin="round"/>
<path d="M14.4023 6.91553V7.5073" stroke="#292D32" stroke-width="0.710125" stroke-miterlimit="10" stroke-linecap="round" stroke-linejoin="round"/>
<path d="M14.1325 7.50732H13.0957" stroke="#292D32" stroke-width="0.710125" stroke-miterlimit="10" stroke-linecap="round" stroke-linejoin="round"/>
<path d="M14.1325 9.87427H13.0957" stroke="#292D32" stroke-width="0.710125" stroke-miterlimit="10" stroke-linecap="round" stroke-linejoin="round"/>
</svg>
