<svg width="19" height="19" viewBox="0 0 19 19" fill="none" xmlns="http://www.w3.org/2000/svg">
<path d="M2.59473 1.41651C2.28194 1.41651 1.98196 1.54087 1.76078 1.76223C1.5396 1.98359 1.41535 2.28382 1.41535 2.59687V5.4299C1.41535 5.52291 1.39704 5.615 1.36148 5.70093C1.32592 5.78686 1.27379 5.86494 1.20808 5.93071C1.14236 5.99648 1.06435 6.04865 0.97849 6.08424C0.892631 6.11983 0.800607 6.13815 0.707674 6.13815C0.614741 6.13815 0.522718 6.11983 0.436859 6.08424C0.351 6.04865 0.272987 5.99648 0.207273 5.93071C0.141559 5.86494 0.0894326 5.78686 0.0538686 5.70093C0.0183046 5.615 -1.95842e-09 5.52291 0 5.4299V2.59687C0 1.16268 1.16172 0 2.59473 0H5.42543C5.51836 -1.96003e-09 5.61038 0.0183197 5.69624 0.053913C5.7821 0.0895062 5.86012 0.141676 5.92583 0.207444C5.99154 0.273211 6.04367 0.351289 6.07923 0.437219C6.1148 0.523149 6.1331 0.615248 6.1331 0.708257C6.1331 0.801267 6.1148 0.893366 6.07923 0.979295C6.04367 1.06523 5.99154 1.1433 5.92583 1.20907C5.86012 1.27484 5.7821 1.32701 5.69624 1.3626C5.61038 1.39819 5.51836 1.41651 5.42543 1.41651H2.59473ZM15.8048 16.9982C16.1176 16.9982 16.4176 16.8738 16.6387 16.6525C16.8599 16.4311 16.9842 16.1309 16.9842 15.8178V12.9848C16.9842 12.7969 17.0587 12.6168 17.1915 12.484C17.3242 12.3512 17.5042 12.2765 17.6919 12.2765C17.8795 12.2765 18.0595 12.3512 18.1923 12.484C18.325 12.6168 18.3995 12.7969 18.3995 12.9848V15.8178C18.3995 17.252 17.2378 18.4147 15.8048 18.4147H12.9741C12.7864 18.4147 12.6064 18.3401 12.4737 18.2072C12.341 18.0744 12.2664 17.8943 12.2664 17.7064C12.2664 17.5186 12.341 17.3384 12.4737 17.2056C12.6064 17.0728 12.7864 16.9982 12.9741 16.9982H15.8048ZM16.9842 2.59687C16.9842 2.28382 16.8599 1.98359 16.6387 1.76223C16.4176 1.54087 16.1176 1.41651 15.8048 1.41651H12.9741C12.8812 1.41651 12.7891 1.39819 12.7033 1.3626C12.6174 1.32701 12.5394 1.27484 12.4737 1.20907C12.408 1.1433 12.3559 1.06523 12.3203 0.979295C12.2847 0.893366 12.2664 0.801267 12.2664 0.708257C12.2664 0.615248 12.2847 0.523149 12.3203 0.437219C12.3559 0.351289 12.408 0.273211 12.4737 0.207444C12.5394 0.141676 12.6174 0.0895062 12.7033 0.053913C12.7891 0.0183197 12.8812 -1.96003e-09 12.9741 0H15.8048C17.2378 0 18.3995 1.16268 18.3995 2.59687V5.4299C18.3995 5.61774 18.325 5.79789 18.1923 5.93071C18.0595 6.06353 17.8795 6.13815 17.6919 6.13815C17.5042 6.13815 17.3242 6.06353 17.1915 5.93071C17.0587 5.79789 16.9842 5.61774 16.9842 5.4299V2.59687ZM2.59473 16.9982C2.28194 16.9982 1.98196 16.8738 1.76078 16.6525C1.5396 16.4311 1.41535 16.1309 1.41535 15.8178V12.9848C1.41535 12.8918 1.39704 12.7997 1.36148 12.7138C1.32592 12.6278 1.27379 12.5497 1.20808 12.484C1.14236 12.4182 1.06435 12.366 0.97849 12.3304C0.892631 12.2949 0.800607 12.2765 0.707674 12.2765C0.614741 12.2765 0.522718 12.2949 0.436859 12.3304C0.351 12.366 0.272987 12.4182 0.207273 12.484C0.141559 12.5497 0.0894326 12.6278 0.0538686 12.7138C0.0183046 12.7997 -1.95842e-09 12.8918 0 12.9848V15.8178C0 17.252 1.16172 18.4147 2.59473 18.4147H5.42543C5.61311 18.4147 5.79311 18.3401 5.92583 18.2072C6.05854 18.0744 6.1331 17.8943 6.1331 17.7064C6.1331 17.5186 6.05854 17.3384 5.92583 17.2056C5.79311 17.0728 5.61311 16.9982 5.42543 16.9982H2.59473ZM0.707674 8.49909C0.519987 8.49909 0.339988 8.57371 0.207273 8.70653C0.0745582 8.83935 0 9.0195 0 9.20734C0 9.39518 0.0745582 9.57533 0.207273 9.70816C0.339988 9.84098 0.519987 9.9156 0.707674 9.9156H17.6919C17.8795 9.9156 18.0595 9.84098 18.1923 9.70816C18.325 9.57533 18.3995 9.39518 18.3995 9.20734C18.3995 9.0195 18.325 8.83935 18.1923 8.70653C18.0595 8.57371 17.8795 8.49909 17.6919 8.49909H0.707674Z" fill="black"/>
</svg>
