<svg width="41" height="41" viewBox="0 0 41 41" fill="none" xmlns="http://www.w3.org/2000/svg">
<rect x="0.940674" y="0.97168" width="39.549" height="39.549" rx="11.7182" fill="#38FF8E"/>
<path d="M12.9512 22.3066H27.8919" stroke="#292D32" stroke-width="1.28168" stroke-miterlimit="10" stroke-linecap="round" stroke-linejoin="round"/>
<path d="M27.8919 20.2599V26.5438C27.8655 29.0485 27.18 29.6813 24.5698 29.6813H16.2733C13.6191 29.6813 12.9512 29.0222 12.9512 26.4031V20.2599C12.9512 17.8869 13.5049 17.1223 15.5878 16.9993C15.7987 16.9905 16.0272 16.9817 16.2733 16.9817H24.5698C27.2239 16.9817 27.8919 17.6408 27.8919 20.2599Z" stroke="#292D32" stroke-width="1.28168" stroke-linecap="round" stroke-linejoin="round"/>
<path d="M30.5286 17.1395V23.2828C30.5286 25.6557 29.9749 26.4203 27.892 26.5434V20.2595C27.892 17.6405 27.2241 16.9813 24.5699 16.9813H16.2734C16.0273 16.9813 15.7988 16.9901 15.5879 16.9989C15.6143 14.4941 16.2998 13.8613 18.91 13.8613H27.2065C29.8606 13.8613 30.5286 14.5205 30.5286 17.1395Z" stroke="#292D32" stroke-width="1.28168" stroke-linecap="round" stroke-linejoin="round"/>
<path d="M15.8076 26.8777H17.3192" stroke="#292D32" stroke-width="1.28168" stroke-miterlimit="10" stroke-linecap="round" stroke-linejoin="round"/>
<path d="M19.1995 26.8777H22.2228" stroke="#292D32" stroke-width="1.28168" stroke-miterlimit="10" stroke-linecap="round" stroke-linejoin="round"/>
</svg>
