<svg width="182" height="199" viewBox="0 0 182 199" fill="none" xmlns="http://www.w3.org/2000/svg">
<circle cx="75.9184" cy="106.692" r="45.9184" fill="#2B5AF3"/>
<path d="M87.685 111.395C84.595 114.47 80.17 115.415 76.285 114.2L69.22 121.25C68.71 121.775 67.705 122.09 66.985 121.985L63.715 121.535C62.635 121.385 61.63 120.365 61.465 119.285L61.015 116.015C60.91 115.295 61.255 114.29 61.75 113.78L68.8 106.73C67.6 102.83 68.53 98.4055 71.62 95.3305C76.045 90.9055 83.23 90.9055 87.67 95.3305C92.11 99.7555 92.11 106.97 87.685 111.395Z" stroke="white" stroke-width="1.5" stroke-miterlimit="10" stroke-linecap="round" stroke-linejoin="round"/>
<path d="M68.3359 115.235L71.7859 118.685" stroke="white" stroke-width="1.5" stroke-miterlimit="10" stroke-linecap="round" stroke-linejoin="round"/>
<path d="M79.75 105.5C80.9926 105.5 82 104.493 82 103.25C82 102.007 80.9926 101 79.75 101C78.5074 101 77.5 102.007 77.5 103.25C77.5 104.493 78.5074 105.5 79.75 105.5Z" stroke="white" stroke-width="1.5" stroke-linecap="round" stroke-linejoin="round"/>
<circle cx="75.9995" cy="106.773" r="59.6939" stroke="black" stroke-opacity="0.15" stroke-linecap="round" stroke-dasharray="5 5"/>
<circle cx="76" cy="106.773" r="75" stroke="black" stroke-opacity="0.15" stroke-linecap="round" stroke-dasharray="5 5"/>
<path d="M139 179.773V193.773" stroke="#38FF8E" stroke-width="2" stroke-linecap="round" stroke-linejoin="round"/>
<path d="M132 186.773H146" stroke="#38FF8E" stroke-width="2" stroke-linecap="round" stroke-linejoin="round"/>
<path d="M40.4531 1V13.2765" stroke="#38FF8E" stroke-width="2" stroke-linecap="round" stroke-linejoin="round"/>
<path d="M34.3203 7.13818H46.5867" stroke="#38FF8E" stroke-width="2" stroke-linecap="round" stroke-linejoin="round"/>
<path d="M28.8926 123.103L21.8926 135.228" stroke="#2B5AF3" stroke-width="2" stroke-linecap="round" stroke-linejoin="round"/>
<path d="M19.3301 125.666L31.4544 132.666" stroke="#2B5AF3" stroke-width="2" stroke-linecap="round" stroke-linejoin="round"/>
<path d="M176 69.7732L164 81.7732" stroke="#2B5AF3" stroke-width="2" stroke-linecap="round" stroke-linejoin="round"/>
<path d="M164 69.7732L176 81.7732" stroke="#2B5AF3" stroke-width="2" stroke-linecap="round" stroke-linejoin="round"/>
</svg>
