<svg width="25" height="25" viewBox="0 0 25 25" fill="none" xmlns="http://www.w3.org/2000/svg">
<path d="M19.6719 21.0938H19.5312V21.2344C19.5312 22.0259 19.2168 22.785 18.6571 23.3446C18.0975 23.9043 17.3384 24.2188 16.5469 24.2188H5.32812C4.53662 24.2188 3.77753 23.9043 3.21785 23.3446C2.65817 22.785 2.34375 22.0259 2.34375 21.2344V6.89062C2.34375 6.09912 2.65817 5.34003 3.21785 4.78035C3.77753 4.22067 4.53662 3.90625 5.32812 3.90625H5.46875V3.76563C5.46875 3.37371 5.54594 2.98564 5.69592 2.62355C5.8459 2.26147 6.06573 1.93248 6.34285 1.65535C6.61998 1.37823 6.94897 1.1584 7.31105 1.00842C7.67313 0.858443 8.06121 0.78125 8.45312 0.78125H19.6719C20.4634 0.78125 21.2225 1.09567 21.7821 1.65535C22.3418 2.21503 22.6562 2.97412 22.6562 3.76563V18.1094C22.6562 18.9009 22.3418 19.66 21.7821 20.2196C21.2225 20.7793 20.4634 21.0938 19.6719 21.0938ZM5.32812 5.46875C4.95165 5.4708 4.59118 5.62126 4.32497 5.88747C4.05876 6.15368 3.9083 6.51415 3.90625 6.89062V21.2344C3.9083 21.6108 4.05876 21.9713 4.32497 22.2375C4.59118 22.5037 4.95165 22.6542 5.32812 22.6562H16.5469C16.9233 22.6542 17.2838 22.5037 17.55 22.2375C17.8162 21.9713 17.9667 21.6108 17.9688 21.2344V6.89062C17.9667 6.51415 17.8162 6.15368 17.55 5.88747C17.2838 5.62126 16.9233 5.4708 16.5469 5.46875H5.32812ZM21.0938 3.76563C21.0917 3.38915 20.9412 3.02868 20.675 2.76247C20.4088 2.49626 20.0483 2.3458 19.6719 2.34375H8.45312C8.07665 2.3458 7.71618 2.49626 7.44997 2.76247C7.18376 3.02868 7.0333 3.38915 7.03125 3.76563V3.90625H16.5469C17.3384 3.90625 18.0975 4.22067 18.6571 4.78035C19.2168 5.34003 19.5312 6.09912 19.5312 6.89062V19.5312H19.6719C20.0483 19.5292 20.4088 19.3787 20.675 19.1125C20.9412 18.8463 21.0917 18.4858 21.0938 18.1094V3.76563Z" fill="black"/>
</svg>
