<svg width="41" height="41" viewBox="0 0 41 41" fill="none" xmlns="http://www.w3.org/2000/svg">
<rect x="0.918213" y="0.736084" width="39.4276" height="39.4276" rx="11.6822" fill="#38FF8E"/>
<path d="M29.8317 20.8879V25.2688C29.8317 27.8973 28.0794 29.6496 25.4509 29.6496H16.6892C14.0607 29.6496 12.3083 27.8973 12.3083 25.2688V20.8879C12.3083 18.5047 13.7453 16.84 15.9795 16.5596C16.2073 16.5246 16.4439 16.5071 16.6892 16.5071H25.4509C25.6787 16.5071 25.8977 16.5158 26.108 16.5509C28.3685 16.8137 29.8317 18.4872 29.8317 20.8879Z" stroke="#292D32" stroke-width="1.31425" stroke-linecap="round" stroke-linejoin="round"/>
<path d="M26.1092 16.5511C25.8989 16.5161 25.6799 16.5073 25.4521 16.5073H16.6904C16.4451 16.5073 16.2085 16.5248 15.9807 16.5599C16.1034 16.3146 16.2786 16.0868 16.4889 15.8765L19.3364 13.0202C20.5368 11.8286 22.4819 11.8286 23.6822 13.0202L25.2155 14.571C25.7763 15.123 26.0742 15.8239 26.1092 16.5511Z" stroke="#292D32" stroke-width="1.31425" stroke-linecap="round" stroke-linejoin="round"/>
<path d="M29.8318 21.3262H27.2033C26.2395 21.3262 25.4509 22.1147 25.4509 23.0785C25.4509 24.0423 26.2395 24.8308 27.2033 24.8308H29.8318" stroke="#292D32" stroke-width="1.31425" stroke-linecap="round" stroke-linejoin="round"/>
</svg>
