<svg width="28" height="28" viewBox="0 0 28 28" fill="none" xmlns="http://www.w3.org/2000/svg">
<circle cx="14" cy="14" r="14" fill="black" fill-opacity="0.04"/>
<path d="M17.8031 19.6562H17.7188V19.7406C17.7188 20.2155 17.5301 20.671 17.1943 21.0068C16.8585 21.3426 16.403 21.5312 15.9281 21.5312H9.19687C8.72197 21.5312 8.26652 21.3426 7.93071 21.0068C7.5949 20.671 7.40625 20.2155 7.40625 19.7406V11.1344C7.40625 10.6595 7.5949 10.204 7.93071 9.86821C8.26652 9.5324 8.72197 9.34375 9.19687 9.34375H9.28125V9.25938C9.28125 9.02423 9.32757 8.79138 9.41755 8.57413C9.50754 8.35688 9.63944 8.15949 9.80571 7.99321C9.97199 7.82694 10.1694 7.69504 10.3866 7.60505C10.6039 7.51507 10.8367 7.46875 11.0719 7.46875H17.8031C18.278 7.46875 18.7335 7.6574 19.0693 7.99321C19.4051 8.32902 19.5938 8.78447 19.5938 9.25938V17.8656C19.5938 18.3405 19.4051 18.796 19.0693 19.1318C18.7335 19.4676 18.278 19.6562 17.8031 19.6562ZM9.19687 10.2812C8.97099 10.2825 8.75471 10.3728 8.59498 10.5325C8.43526 10.6922 8.34498 10.9085 8.34375 11.1344V19.7406C8.34498 19.9665 8.43526 20.1828 8.59498 20.3425C8.75471 20.5022 8.97099 20.5925 9.19687 20.5938H15.9281C16.154 20.5925 16.3703 20.5022 16.53 20.3425C16.6897 20.1828 16.78 19.9665 16.7812 19.7406V11.1344C16.78 10.9085 16.6897 10.6922 16.53 10.5325C16.3703 10.3728 16.154 10.2825 15.9281 10.2812H9.19687ZM18.6562 9.25938C18.655 9.03349 18.5647 8.81721 18.405 8.65748C18.2453 8.49776 18.029 8.40748 17.8031 8.40625H11.0719C10.846 8.40748 10.6297 8.49776 10.47 8.65748C10.3103 8.81721 10.22 9.03349 10.2188 9.25938V9.34375H15.9281C16.403 9.34375 16.8585 9.5324 17.1943 9.86821C17.5301 10.204 17.7188 10.6595 17.7188 11.1344V18.7188H17.8031C18.029 18.7175 18.2453 18.6272 18.405 18.4675C18.5647 18.3078 18.655 18.0915 18.6562 17.8656V9.25938Z" fill="black"/>
</svg>
