<svg xmlns="http://www.w3.org/2000/svg" width="50" height="50" viewBox="0 0 50 50">
  <g id="Group_1085" data-name="Group 1085" transform="translate(-283 -375)">
    <rect id="Rectangle_166" data-name="Rectangle 166" width="50" height="50" rx="15" transform="translate(283 375)" fill="#202148"/>
    <path id="cog" d="M17.456,8.04l-1.512-.5.712-1.424A.8.8,0,0,0,16.5,5.2L14.8,3.5a.8.8,0,0,0-.92-.152l-1.424.712-.5-1.512A.8.8,0,0,0,11.2,2H8.8a.8.8,0,0,0-.76.544l-.5,1.512L6.112,3.344A.8.8,0,0,0,5.2,3.5L3.5,5.2a.8.8,0,0,0-.152.92l.712,1.424-1.512.5A.8.8,0,0,0,2,8.8v2.4a.8.8,0,0,0,.544.76l1.512.5-.712,1.424A.8.8,0,0,0,3.5,14.8l1.7,1.7a.8.8,0,0,0,.92.152l1.424-.712.5,1.512a.8.8,0,0,0,.76.544h2.4a.8.8,0,0,0,.76-.544l.5-1.512,1.424.712a.8.8,0,0,0,.9-.152l1.7-1.7a.8.8,0,0,0,.152-.92l-.712-1.424,1.512-.5A.8.8,0,0,0,18,11.2V8.8a.8.8,0,0,0-.544-.76ZM16.4,10.624l-.96.32a1.6,1.6,0,0,0-.928,2.256l.456.912-.88.88-.888-.48a1.6,1.6,0,0,0-2.232.928l-.32.96H9.376l-.32-.96A1.6,1.6,0,0,0,6.8,14.512l-.912.456-.88-.88.48-.888a1.6,1.6,0,0,0-.928-2.256l-.96-.32V9.376l.96-.32A1.6,1.6,0,0,0,5.488,6.8l-.456-.888.88-.88.888.456A1.6,1.6,0,0,0,9.056,4.56l.32-.96h1.248l.32.96a1.6,1.6,0,0,0,2.256.928l.912-.456.88.88-.48.888a1.6,1.6,0,0,0,.928,2.232l.96.32ZM10,6.8A3.2,3.2,0,1,0,13.2,10,3.2,3.2,0,0,0,10,6.8Zm0,4.8A1.6,1.6,0,1,1,11.6,10,1.6,1.6,0,0,1,10,11.6Z" transform="translate(298 390)" fill="#fff"/>
  </g>
</svg>
