<svg width="64" height="64" viewBox="0 0 64 64" fill="none" xmlns="http://www.w3.org/2000/svg">
<circle cx="31.6279" cy="31.6279" r="31.6279" fill="white"/>
<mask id="mask0_532_4276" style="mask-type:luminance" maskUnits="userSpaceOnUse" x="18" y="10" width="26" height="45">
<path d="M43.2592 10.1208H18.9756V54.135H43.2592V10.1208Z" fill="white"/>
</mask>
<g mask="url(#mask0_532_4276)">
<path d="M25.571 35.0627L22.3792 30.4338C21.8092 29.6066 21.5392 28.59 21.6652 27.5835C21.6901 27.3825 21.7253 27.2249 21.7728 27.154L26.0932 23.06L30.5609 22.8041C31.0692 22.7752 31.5563 22.6074 31.9779 22.3109C32.4609 21.9711 32.7868 21.491 33.1385 21.0152C33.6047 20.3847 34.057 19.7441 34.495 19.0933C34.8017 18.6364 35.1685 18.1909 35.3701 17.6689C35.4135 17.5547 35.447 17.4187 35.3856 17.3131C35.3337 17.2249 35.2286 17.1859 35.1305 17.1685C34.7931 17.1078 34.4181 17.1656 34.0778 17.1772C33.7069 17.1888 33.3344 17.1989 32.9618 17.1845C32.4077 17.1642 31.8532 17.1309 31.2987 17.1093C30.0375 17.0615 29.0699 17.0558 27.8083 17.0167C26.6155 16.9777 25.3318 16.8706 24.1389 16.8316C21.6497 16.7477 19.4013 12.6523 18.9756 10.1245C22.5473 10.1245 26.1186 10.1245 29.6915 10.1245C31.9329 10.1245 34.1731 10.1245 36.4146 10.1245C37.6087 10.1245 38.5942 10.0479 39.7213 10.5352C40.7616 10.9849 41.7009 11.6993 42.3606 12.6509C43.6385 14.4961 43.3993 16.379 42.6084 18.3312C42.1128 19.5546 41.5611 20.7549 40.9632 21.9277C40.1748 23.4722 39.3348 25.2697 38.1268 26.5032C35.3897 29.2986 31.9849 29.2653 28.4189 29.4461C29.3807 30.8488 30.9335 32.3933 30.8353 34.2199C30.7585 35.6745 30.0346 36.7794 29.2993 37.9347C28.4218 39.3157 27.5454 40.6955 26.6674 42.0765L20.2875 52.1169L19.0063 54.1342" fill="#2B5AF3"/>
<path opacity="0.54" d="M26.0585 23.0619C26.0585 23.0619 25.3346 26.6482 28.3825 29.4465L31.6054 29.2527C31.6054 29.2527 36.4301 29.0922 38.6604 25.8485L35.6359 23.7802L32.6359 21.73C32.6359 21.73 31.8769 22.6419 30.8987 22.7813C29.6412 22.858 26.0585 23.0619 26.0585 23.0619Z" fill="url(#paint0_linear_532_4276)"/>
<path opacity="0.62" d="M34.9255 17.1417C34.9255 17.1417 41.2003 16.6528 42.1049 19.5234C42.1049 19.5234 39.8659 24.4677 38.6955 25.8487C37.1873 24.9185 32.6714 21.7302 32.6714 21.7302C32.6714 21.7302 34.959 18.6152 35.4264 17.522C35.5078 17.334 35.1549 17.1344 34.9255 17.1417Z" fill="url(#paint1_linear_532_4276)"/>
</g>
<defs>
<linearGradient id="paint0_linear_532_4276" x1="29.3087" y1="29.9772" x2="33.819" y2="22.4132" gradientUnits="userSpaceOnUse">
<stop/>
<stop offset="0.24" stop-color="#121619"/>
<stop offset="0.5" stop-color="#23282F"/>
<stop offset="0.76" stop-color="#2C343C"/>
<stop offset="1" stop-color="#303841"/>
</linearGradient>
<linearGradient id="paint1_linear_532_4276" x1="39.3102" y1="17.1561" x2="34.9705" y2="24.4327" gradientUnits="userSpaceOnUse">
<stop/>
<stop offset="0.04" stop-color="#020304"/>
<stop offset="0.44" stop-color="#1B2025"/>
<stop offset="0.78" stop-color="#2A3139"/>
<stop offset="1" stop-color="#303841"/>
</linearGradient>
</defs>
</svg>
