<svg width="40" height="40" viewBox="0 0 40 40" fill="none" xmlns="http://www.w3.org/2000/svg">
<rect width="40" height="40" rx="20" fill="#2B5AF3"/>
<mask id="mask0_538_3611" style="mask-type:luminance" maskUnits="userSpaceOnUse" x="15" y="10" width="11" height="20">
<path d="M25.8049 10H15V29.6001H25.8049V10Z" fill="white"/>
</mask>
<g mask="url(#mask0_538_3611)">
<path d="M17.9346 21.107L16.5144 19.0457C16.2608 18.6774 16.1407 18.2247 16.1967 17.7765C16.2078 17.6869 16.2235 17.6167 16.2446 17.5852L18.167 15.7621L20.1549 15.6481C20.381 15.6352 20.5978 15.5605 20.7854 15.4285C21.0003 15.2772 21.1453 15.0634 21.3018 14.8515C21.5092 14.5707 21.7104 14.2854 21.9053 13.9956C22.0418 13.7922 22.205 13.5938 22.2947 13.3613C22.314 13.3105 22.3289 13.2499 22.3016 13.2029C22.2785 13.1636 22.2317 13.1462 22.1881 13.1385C22.038 13.1115 21.8711 13.1372 21.7197 13.1424C21.5547 13.1475 21.3889 13.1521 21.2232 13.1456C20.9766 13.1366 20.7299 13.1218 20.4831 13.1121C19.922 13.0909 19.4915 13.0883 18.9301 13.0709C18.3993 13.0535 17.8282 13.0059 17.2974 12.9885C16.1898 12.9511 15.1894 11.1274 15 10.0017C16.5892 10.0017 18.1783 10.0017 19.768 10.0017C20.7653 10.0017 21.7621 10.0017 22.7594 10.0017C23.2907 10.0017 23.7293 9.96758 24.2307 10.1846C24.6936 10.3849 25.1116 10.703 25.4051 11.1267C25.9737 11.9484 25.8673 12.7869 25.5154 13.6563C25.2948 14.2011 25.0494 14.7356 24.7833 15.2578C24.4325 15.9456 24.0588 16.7461 23.5213 17.2954C22.3034 18.5402 20.7885 18.5254 19.2018 18.6059C19.6297 19.2305 20.3206 19.9183 20.277 20.7317C20.2428 21.3795 19.9207 21.8715 19.5935 22.386C19.2031 23.001 18.8131 23.6154 18.4225 24.2304L15.5837 28.7015L15.0136 29.5998" fill="white"/>
<path opacity="0.54" d="M18.1506 15.7629C18.1506 15.7629 17.8285 17.36 19.1847 18.6061L20.6187 18.5198C20.6187 18.5198 22.7654 18.4483 23.7578 17.0038L22.412 16.0828L21.0772 15.1698C21.0772 15.1698 20.7395 15.5759 20.3042 15.638C19.7447 15.6721 18.1506 15.7629 18.1506 15.7629Z" fill="url(#paint0_linear_538_3611)"/>
<path opacity="0.62" d="M22.0967 13.1266C22.0967 13.1266 24.8887 12.9089 25.2912 14.1872C25.2912 14.1872 24.2949 16.389 23.7742 17.004C23.1031 16.5897 21.0938 15.1699 21.0938 15.1699C21.0938 15.1699 22.1116 13.7828 22.3196 13.296C22.3558 13.2122 22.1988 13.1234 22.0967 13.1266Z" fill="url(#paint1_linear_538_3611)"/>
</g>
<defs>
<linearGradient id="paint0_linear_538_3611" x1="19.5968" y1="18.8424" x2="21.606" y2="15.4755" gradientUnits="userSpaceOnUse">
<stop/>
<stop offset="0.24" stop-color="#121619"/>
<stop offset="0.5" stop-color="#23282F"/>
<stop offset="0.76" stop-color="#2C343C"/>
<stop offset="1" stop-color="#303841"/>
</linearGradient>
<linearGradient id="paint1_linear_538_3611" x1="24.0477" y1="13.133" x2="22.1144" y2="16.372" gradientUnits="userSpaceOnUse">
<stop/>
<stop offset="0.04" stop-color="#020304"/>
<stop offset="0.44" stop-color="#1B2025"/>
<stop offset="0.78" stop-color="#2A3139"/>
<stop offset="1" stop-color="#303841"/>
</linearGradient>
</defs>
</svg>
