<svg width="20" height="20" viewBox="0 0 20 20" fill="none" xmlns="http://www.w3.org/2000/svg">
<circle cx="10" cy="10" r="10" fill="#2B5AF3"/>
<path d="M6.62295 9.92048C6.43954 9.92099 6.26001 9.97342 6.10515 10.0717C5.95029 10.17 5.82642 10.3101 5.74787 10.4759C5.66933 10.6416 5.63931 10.8262 5.6613 11.0083C5.68329 11.1904 5.75639 11.3626 5.87214 11.5048L8.33957 14.5274C8.42755 14.6367 8.54032 14.7234 8.66852 14.7803C8.79671 14.8372 8.93664 14.8627 9.07667 14.8546C9.37616 14.8385 9.64655 14.6783 9.81895 14.4149L14.9444 6.16033C14.9453 6.15895 14.9461 6.15758 14.947 6.15624C14.9951 6.0824 14.9795 5.93606 14.8803 5.84413C14.853 5.81889 14.8209 5.7995 14.7858 5.78714C14.7508 5.77479 14.7136 5.76975 14.6765 5.77232C14.6394 5.77489 14.6033 5.78502 14.5703 5.8021C14.5373 5.81917 14.5081 5.84281 14.4846 5.87158C14.4827 5.87384 14.4808 5.87607 14.4789 5.87827L9.30976 11.7186C9.29009 11.7408 9.26621 11.7589 9.23948 11.7718C9.21276 11.7847 9.18374 11.7922 9.15411 11.7938C9.12447 11.7954 9.09481 11.7911 9.06685 11.7812C9.0389 11.7712 9.01319 11.7558 8.99124 11.7358L7.27571 10.1747C7.09754 10.0113 6.86466 9.92066 6.62295 9.92048Z" fill="white"/>
</svg>
