<svg id="Group_9236" data-name="Group 9236" xmlns="http://www.w3.org/2000/svg" xmlns:xlink="http://www.w3.org/1999/xlink" width="375" height="812" viewBox="0 0 375 812">
  <defs>
    <radialGradient id="radial-gradient" cx="0.196" cy="0.438" r="0.738" gradientUnits="objectBoundingBox">
      <stop offset="0" stop-color="#20173d"/>
      <stop offset="1" stop-color="#050626"/>
    </radialGradient>
    <clipPath id="clip-path">
      <rect id="Rectangle_274" data-name="Rectangle 274" width="375" height="812" fill="url(#radial-gradient)"/>
    </clipPath>
  </defs>
  <rect id="Rectangle_275" data-name="Rectangle 275" width="375" height="812" fill="url(#radial-gradient)"/>
  <g id="Group_9235" data-name="Group 9235">
    <g id="Mask_Group_15" data-name="Mask Group 15" clip-path="url(#clip-path)">
      <g id="Component_5_1" data-name="Component 5 – 1" transform="translate(-21.424 425.435)">
        <g id="Group_213" data-name="Group 213" transform="translate(0)" opacity="0.15">
          <path id="Path_11" data-name="Path 11" d="M-115.885,213a8.358,8.358,0,0,0-1.506-4.427L-264.1-1.27a8.364,8.364,0,0,0-5.427-3.462,8.382,8.382,0,0,0-6.292,1.379L-486.259,143.021a8.357,8.357,0,0,0-3.6,7.26,8.361,8.361,0,0,0,1.506,4.428l146.713,209.843a8.355,8.355,0,0,0,5.425,3.461,8.378,8.378,0,0,0,6.293-1.38l210.435-146.373A8.355,8.355,0,0,0-115.885,213Zm-373.3-62.752a7.684,7.684,0,0,1,3.308-6.679L-275.437-2.8a7.71,7.71,0,0,1,5.789-1.269,7.686,7.686,0,0,1,4.991,3.185l146.714,209.844a7.682,7.682,0,0,1,1.384,4.072,7.691,7.691,0,0,1-3.308,6.68L-330.3,366.083a7.713,7.713,0,0,1-5.789,1.27,7.694,7.694,0,0,1-4.991-3.185L-487.8,154.324A7.676,7.676,0,0,1-489.181,150.251Z" transform="translate(489.862 22.228)" fill="#be8af8"/>
          <path id="Path_12" data-name="Path 12" d="M-128.318,202.984a8.136,8.136,0,0,0-1.529-4.4L-275.456-4.142a8.158,8.158,0,0,0-5.337-3.311,8.178,8.178,0,0,0-6.122,1.423l-203.294,145.27a8.163,8.163,0,0,0-3.424,7.023,8.15,8.15,0,0,0,1.529,4.406l145.609,202.721a8.236,8.236,0,0,0,11.459,1.887l203.295-145.271A8.165,8.165,0,0,0-128.318,202.984ZM-492.96,146.235a7.493,7.493,0,0,1,3.142-6.448l203.3-145.27A7.5,7.5,0,0,1-280.9-6.791,7.494,7.494,0,0,1-276-3.751L-130.394,198.97a7.479,7.479,0,0,1,1.4,4.044,7.491,7.491,0,0,1-3.143,6.448L-335.428,354.734A7.561,7.561,0,0,1-345.947,353L-491.556,150.279A7.467,7.467,0,0,1-492.96,146.235Z" transform="translate(503.417 24.127)" fill="#be8af8"/>
          <path id="Path_13" data-name="Path 13" d="M-140.756,192.976a7.929,7.929,0,0,0-1.554-4.383l-144.5-195.6a8.033,8.033,0,0,0-11.2-1.691L-494.168,135.468a7.978,7.978,0,0,0-3.252,6.788,7.928,7.928,0,0,0,1.554,4.384l144.5,195.6a7.959,7.959,0,0,0,5.249,3.159,7.975,7.975,0,0,0,5.951-1.467l196.154-144.167A7.98,7.98,0,0,0-140.756,192.976Zm-355.992-50.749a7.313,7.313,0,0,1,2.978-6.218L-297.616-8.158a7.358,7.358,0,0,1,10.259,1.549l144.5,195.6a7.267,7.267,0,0,1,1.425,4.016,7.3,7.3,0,0,1-2.979,6.217L-340.559,343.391a7.31,7.31,0,0,1-5.453,1.345,7.291,7.291,0,0,1-4.809-2.893l-144.5-195.6A7.259,7.259,0,0,1-496.748,142.227Z" transform="translate(516.979 26.018)" fill="#be8af8"/>
          <path id="Path_14" data-name="Path 14" d="M-153.194,182.941a7.72,7.72,0,0,0-1.581-4.362L-298.175-9.9a7.764,7.764,0,0,0-5.16-3.008,7.78,7.78,0,0,0-5.782,1.513L-498.13,131.671a7.789,7.789,0,0,0-3.082,6.551,7.731,7.731,0,0,0,1.581,4.363l143.4,188.478a7.832,7.832,0,0,0,10.942,1.494l189.012-143.065A7.786,7.786,0,0,0-153.194,182.941ZM-500.54,138.192a7.123,7.123,0,0,1,2.817-5.987L-308.711-10.859a7.109,7.109,0,0,1,5.284-1.383,7.09,7.09,0,0,1,4.714,2.749l143.4,188.479a7.066,7.066,0,0,1,1.445,3.986,7.118,7.118,0,0,1-2.816,5.986L-345.7,332.022a7.159,7.159,0,0,1-10-1.365l-143.4-188.479A7.069,7.069,0,0,1-500.54,138.192Z" transform="translate(530.543 27.936)" fill="#be8af8"/>
          <path id="Path_15" data-name="Path 15" d="M-165.636,172.915a7.534,7.534,0,0,0-1.61-4.341l-142.3-181.355a7.563,7.563,0,0,0-5.071-2.856,7.579,7.579,0,0,0-5.613,1.558L-502.095,127.882a7.6,7.6,0,0,0-2.914,6.315,7.533,7.533,0,0,0,1.608,4.341l142.3,181.355a7.55,7.55,0,0,0,5.072,2.855,7.565,7.565,0,0,0,5.611-1.556l181.872-141.961A7.607,7.607,0,0,0-165.636,172.915Zm-338.7-38.747a6.931,6.931,0,0,1,2.656-5.757L-319.81-13.551A6.906,6.906,0,0,1-314.7-14.97a6.892,6.892,0,0,1,4.623,2.6l142.3,181.356a6.854,6.854,0,0,1,1.467,3.955,6.934,6.934,0,0,1-2.656,5.757l-181.87,141.962a6.91,6.91,0,0,1-5.115,1.419,6.9,6.9,0,0,1-4.623-2.6l-142.3-181.356A6.85,6.85,0,0,1-504.336,134.168Z" transform="translate(544.112 29.844)" fill="#be8af8"/>
          <path id="Path_16" data-name="Path 16" d="M-178.079,162.893a7.317,7.317,0,0,0-1.64-4.319L-320.911-15.66a7.434,7.434,0,0,0-10.424-1.1L-506.066,124.1a7.418,7.418,0,0,0-2.746,6.077,7.328,7.328,0,0,0,1.64,4.32l141.193,174.233a7.362,7.362,0,0,0,4.982,2.7,7.369,7.369,0,0,0,5.441-1.6l174.73-140.858A7.417,7.417,0,0,0-178.079,162.893Zm-330.06-32.747a6.746,6.746,0,0,1,2.5-5.526l174.73-140.859a6.758,6.758,0,0,1,9.477,1L-180.242,159a6.655,6.655,0,0,1,1.491,3.925,6.745,6.745,0,0,1-2.5,5.526l-174.73,140.858a6.7,6.7,0,0,1-4.946,1.458,6.7,6.7,0,0,1-4.53-2.458L-506.648,134.072A6.649,6.649,0,0,1-508.139,130.146Z" transform="translate(557.683 31.748)" fill="#be8af8"/>
          <path id="Path_17" data-name="Path 17" d="M-190.524,152.847a7.117,7.117,0,0,0-1.672-4.3L-332.284-18.56a7.17,7.17,0,0,0-4.895-2.552,7.183,7.183,0,0,0-5.271,1.648L-510.037,120.291a7.146,7.146,0,0,0-2.582,5.841,7.109,7.109,0,0,0,1.674,4.3l140.088,167.113a7.238,7.238,0,0,0,10.165.9L-193.1,158.69A7.142,7.142,0,0,0-190.524,152.847ZM-511.946,126.1a6.474,6.474,0,0,1,2.34-5.3L-342.018-18.95a6.517,6.517,0,0,1,4.779-1.494A6.5,6.5,0,0,1-332.8-18.13l140.089,167.112a6.448,6.448,0,0,1,1.517,3.895,6.479,6.479,0,0,1-2.341,5.3L-361.125,297.93a6.561,6.561,0,0,1-9.216-.82L-510.429,130A6.447,6.447,0,0,1-511.946,126.1Z" transform="translate(571.258 33.675)" fill="#be8af8"/>
          <path id="Path_18" data-name="Path 18" d="M-202.973,142.807a6.919,6.919,0,0,0-1.708-4.275L-343.664-21.459a6.981,6.981,0,0,0-4.807-2.4,6.989,6.989,0,0,0-5.1,1.694L-514.017,116.487a6.966,6.966,0,0,0-2.419,5.6,6.929,6.929,0,0,0,1.708,4.277l138.985,159.988a6.976,6.976,0,0,0,4.805,2.4,6.99,6.99,0,0,0,5.1-1.695l160.448-138.652A6.964,6.964,0,0,0-202.973,142.807Zm-312.79-20.745a6.3,6.3,0,0,1,2.186-5.067L-353.13-21.656a6.315,6.315,0,0,1,4.611-1.532,6.313,6.313,0,0,1,4.346,2.169L-205.19,138.97a6.253,6.253,0,0,1,1.545,3.866,6.3,6.3,0,0,1-2.186,5.067L-366.278,286.556a6.324,6.324,0,0,1-4.612,1.531,6.308,6.308,0,0,1-4.344-2.168L-514.218,125.928A6.247,6.247,0,0,1-515.763,122.062Z" transform="translate(584.841 35.598)" fill="#be8af8"/>
          <path id="Path_19" data-name="Path 19" d="M-215.425,132.762a6.809,6.809,0,0,0-1.746-4.255L-355.051-24.362a6.791,6.791,0,0,0-4.718-2.247,6.8,6.8,0,0,0-4.929,1.739L-518,112.681a6.785,6.785,0,0,0-2.256,5.366,6.82,6.82,0,0,0,1.746,4.256l137.88,152.869a6.792,6.792,0,0,0,4.718,2.246,6.79,6.79,0,0,0,4.929-1.74l153.306-137.551A6.786,6.786,0,0,0-215.425,132.762Zm-304.162-14.744a6.116,6.116,0,0,1,2.034-4.838L-364.247-24.37a6.123,6.123,0,0,1,4.443-1.567,6.119,6.119,0,0,1,4.252,2.025l137.88,152.868a6.139,6.139,0,0,1,1.574,3.835,6.122,6.122,0,0,1-2.034,4.837L-371.439,275.179a6.13,6.13,0,0,1-4.444,1.568,6.128,6.128,0,0,1-4.252-2.024L-518.014,121.853A6.131,6.131,0,0,1-519.588,118.017Z" transform="translate(598.429 37.526)" fill="#be8af8"/>
          <path id="Path_20" data-name="Path 20" d="M-227.879,122.711a6.618,6.618,0,0,0-1.785-4.235L-366.44-27.27a6.6,6.6,0,0,0-4.629-2.094,6.61,6.61,0,0,0-4.759,1.785L-521.993,108.869a6.612,6.612,0,0,0-2.1,5.128,6.621,6.621,0,0,0,1.786,4.235l136.776,145.746a6.661,6.661,0,0,0,9.387.307l146.165-136.447A6.613,6.613,0,0,0-227.879,122.711Zm-295.539-8.744a5.944,5.944,0,0,1,1.885-4.609L-375.368-27.088a5.937,5.937,0,0,1,4.276-1.6,5.938,5.938,0,0,1,4.161,1.881l136.775,145.746a5.944,5.944,0,0,1,1.6,3.8,5.947,5.947,0,0,1-1.884,4.609L-376.6,263.795a5.986,5.986,0,0,1-8.436-.276L-521.812,117.772A5.947,5.947,0,0,1-523.418,113.967Z" transform="translate(612.018 39.459)" fill="#be8af8"/>
          <path id="Path_21" data-name="Path 21" d="M-240.338,112.658a6.418,6.418,0,0,0-1.829-4.213L-377.839-30.179a6.474,6.474,0,0,0-9.127-.109L-525.99,105.057a6.437,6.437,0,0,0-1.94,4.89,6.41,6.41,0,0,0,1.829,4.214L-390.43,252.784a6.474,6.474,0,0,0,9.128.11l139.022-135.345A6.439,6.439,0,0,0-240.338,112.658Zm-286.92-2.74a5.768,5.768,0,0,1,1.737-4.38L-386.5-29.807a5.8,5.8,0,0,1,8.177.1l135.671,138.624a5.742,5.742,0,0,1,1.638,3.773,5.765,5.765,0,0,1-1.738,4.381L-381.772,252.414a5.8,5.8,0,0,1-8.176-.1L-525.619,113.692A5.752,5.752,0,0,1-527.258,109.917Z" transform="translate(625.618 41.392)" fill="#be8af8"/>
          <path id="Path_22" data-name="Path 22" d="M-252.8,102.593a6.232,6.232,0,0,0-1.877-4.194L-389.245-33.1a6.292,6.292,0,0,0-8.869.091L-530,101.232a6.269,6.269,0,0,0-1.786,4.651,6.23,6.23,0,0,0,1.876,4.194l134.566,131.5a6.292,6.292,0,0,0,8.869-.091l131.883-134.242A6.278,6.278,0,0,0-252.8,102.593Zm-278.308,3.26a5.592,5.592,0,0,1,1.594-4.151L-397.633-32.54a5.616,5.616,0,0,1,7.917-.082l134.567,131.5a5.561,5.561,0,0,1,1.675,3.744,5.6,5.6,0,0,1-1.6,4.152L-386.95,241.018a5.616,5.616,0,0,1-7.918.078L-529.435,109.6A5.559,5.559,0,0,1-531.11,105.853Z" transform="translate(639.225 43.339)" fill="#be8af8"/>
          <path id="Path_23" data-name="Path 23" d="M-265.267,92.514a6.027,6.027,0,0,0-1.925-4.171L-400.656-36.038a6.057,6.057,0,0,0-4.365-1.632,6.061,6.061,0,0,0-4.244,1.924L-534.006,97.393a6.02,6.02,0,0,0-1.636,4.413,6.025,6.025,0,0,0,1.927,4.173l133.463,124.38a6.111,6.111,0,0,0,8.608-.291L-266.9,96.928A6.023,6.023,0,0,0-265.267,92.514Zm-269.7,9.262a5.354,5.354,0,0,1,1.455-3.925L-408.772-35.287A5.386,5.386,0,0,1-405-37a5.391,5.391,0,0,1,3.883,1.451L-267.654,88.832a5.364,5.364,0,0,1,1.714,3.712,5.357,5.357,0,0,1-1.453,3.925L-392.135,229.608a5.435,5.435,0,0,1-7.657.259L-533.255,105.488A5.365,5.365,0,0,1-534.969,101.776Z" transform="translate(652.836 45.3)" fill="#be8af8"/>
          <path id="Path_24" data-name="Path 24" d="M-277.74,82.44a5.846,5.846,0,0,0-1.981-4.152L-412.08-38.971a5.932,5.932,0,0,0-8.349.494L-538.029,93.56a5.854,5.854,0,0,0-1.486,4.173,5.844,5.844,0,0,0,1.98,4.153l132.359,117.26a5.935,5.935,0,0,0,8.35-.5l117.6-132.035A5.861,5.861,0,0,0-277.74,82.44ZM-538.842,97.7a5.189,5.189,0,0,1,1.317-3.7l117.6-132.035a5.257,5.257,0,0,1,7.4-.438L-280.168,78.79a5.173,5.173,0,0,1,1.755,3.679,5.191,5.191,0,0,1-1.318,3.7L-397.331,218.2a5.256,5.256,0,0,1-7.4.437L-537.088,101.383A5.174,5.174,0,0,1-538.842,97.7Z" transform="translate(666.459 47.256)" fill="#be8af8"/>
          <path id="Path_25" data-name="Path 25" d="M-290.216,72.343a5.734,5.734,0,0,0-2.038-4.132L-423.509-41.925a5.716,5.716,0,0,0-4.189-1.322,5.71,5.71,0,0,0-3.9,2.019L-542.056,89.7a5.7,5.7,0,0,0-1.343,3.933,5.737,5.737,0,0,0,2.039,4.134l131.255,110.135a5.757,5.757,0,0,0,8.087-.7L-291.56,76.276A5.7,5.7,0,0,0-290.216,72.343Zm-252.51,21.265a5.034,5.034,0,0,1,1.185-3.473L-431.082-40.8a5.033,5.033,0,0,1,3.441-1.781,5.041,5.041,0,0,1,3.7,1.167L-292.689,68.725a5.061,5.061,0,0,1,1.8,3.647,5.033,5.033,0,0,1-1.185,3.473L-402.533,206.778a5.083,5.083,0,0,1-7.139.613L-540.927,97.256A5.062,5.062,0,0,1-542.727,93.608Z" transform="translate(680.088 49.235)" fill="#be8af8"/>
          <path id="Path_26" data-name="Path 26" d="M-302.7,62.243a5.546,5.546,0,0,0-2.1-4.112L-434.952-44.883a5.543,5.543,0,0,0-4.1-1.166,5.538,5.538,0,0,0-3.727,2.067L-546.1,85.846a5.542,5.542,0,0,0-1.2,3.693,5.546,5.546,0,0,0,2.1,4.112l130.152,103.015a5.587,5.587,0,0,0,7.825-.9L-303.9,65.938A5.558,5.558,0,0,0-302.7,62.243ZM-546.626,89.51a4.876,4.876,0,0,1,1.056-3.247L-442.251-43.566a4.871,4.871,0,0,1,3.277-1.817,4.869,4.869,0,0,1,3.6,1.025L-305.22,58.657a4.882,4.882,0,0,1,1.848,3.616,4.884,4.884,0,0,1-1.057,3.246L-407.745,195.349a4.912,4.912,0,0,1-6.882.791L-544.777,93.126A4.878,4.878,0,0,1-546.626,89.51Z" transform="translate(693.728 51.216)" fill="#be8af8"/>
          <path id="Path_27" data-name="Path 27" d="M-315.187,52.138a5.372,5.372,0,0,0-2.172-4.092L-446.4-47.845a5.423,5.423,0,0,0-7.566,1.1L-550.146,81.986a5.392,5.392,0,0,0-1.067,3.453,5.372,5.372,0,0,0,2.171,4.092L-420,185.422a5.424,5.424,0,0,0,7.565-1.1l96.177-128.727A5.4,5.4,0,0,0-315.187,52.138ZM-550.54,85.41a4.724,4.724,0,0,1,.933-3.023L-453.43-46.34a4.748,4.748,0,0,1,6.624-.966l129.044,95.892a4.7,4.7,0,0,1,1.9,3.581,4.739,4.739,0,0,1-.933,3.024l-96.178,128.727a4.746,4.746,0,0,1-6.622.965L-548.64,88.992A4.7,4.7,0,0,1-550.54,85.41Z" transform="translate(707.378 53.202)" fill="#be8af8"/>
          <path id="Path_28" data-name="Path 28" d="M-327.683,42.014a5.191,5.191,0,0,0-2.246-4.07L-457.87-50.825a5.262,5.262,0,0,0-7.3,1.308L-554.208,78.107a5.17,5.17,0,0,0-.935,3.212A5.2,5.2,0,0,0-552.9,85.39l127.944,88.77a5.262,5.262,0,0,0,7.3-1.308l89.035-127.625A5.171,5.171,0,0,0-327.683,42.014ZM-554.471,81.291a4.517,4.517,0,0,1,.814-2.8l89.036-127.624a4.588,4.588,0,0,1,6.367-1.141L-330.312,38.5a4.526,4.526,0,0,1,1.957,3.547,4.513,4.513,0,0,1-.816,2.8l-89.034,127.626a4.586,4.586,0,0,1-6.367,1.14L-552.514,84.839A4.527,4.527,0,0,1-554.471,81.291Z" transform="translate(721.041 55.206)" fill="#be8af8"/>
          <path id="Path_29" data-name="Path 29" d="M-340.186,31.877a5.085,5.085,0,0,0-2.327-4.049L-469.35-53.82a5.107,5.107,0,0,0-7.04,1.514L-558.283,74.216a5.029,5.029,0,0,0-.81,2.971,5.081,5.081,0,0,0,2.327,4.049l126.837,81.648a5.107,5.107,0,0,0,7.04-1.513L-341,34.849A5.045,5.045,0,0,0-340.186,31.877ZM-558.421,77.158a4.36,4.36,0,0,1,.7-2.578l81.894-126.522a4.434,4.434,0,0,1,6.11-1.313l126.837,81.647a4.416,4.416,0,0,1,2.019,3.515,4.364,4.364,0,0,1-.7,2.577l-81.893,126.524a4.432,4.432,0,0,1-6.109,1.311L-556.4,80.671A4.418,4.418,0,0,1-558.421,77.158Z" transform="translate(734.716 57.223)" fill="#be8af8"/>
          <path id="Path_30" data-name="Path 30" d="M-352.7,21.724a4.915,4.915,0,0,0-2.414-4.028L-480.844-56.829a4.958,4.958,0,0,0-6.776,1.721L-562.372,70.309a4.9,4.9,0,0,0-.691,2.73,4.92,4.92,0,0,0,2.414,4.029l125.734,74.525a4.959,4.959,0,0,0,6.776-1.72l74.753-125.419A4.9,4.9,0,0,0-352.7,21.724ZM-562.39,73.009a4.235,4.235,0,0,1,.6-2.356l74.752-125.419a4.285,4.285,0,0,1,5.855-1.486l125.733,74.525a4.249,4.249,0,0,1,2.086,3.48,4.235,4.235,0,0,1-.6,2.358L-428.718,149.53a4.281,4.281,0,0,1-5.853,1.485L-560.305,76.49A4.247,4.247,0,0,1-562.39,73.009Z" transform="translate(748.406 59.256)" fill="#be8af8"/>
          <path id="Path_31" data-name="Path 31" d="M-365.218,11.556a4.814,4.814,0,0,0-2.509-4.006l-124.629-67.4a4.816,4.816,0,0,0-6.512,1.928L-566.479,66.39a4.787,4.787,0,0,0-.577,2.488,4.822,4.822,0,0,0,2.509,4.006l124.63,67.4a4.816,4.816,0,0,0,6.512-1.929L-365.8,14.044A4.768,4.768,0,0,0-365.218,11.556ZM-566.383,68.849a4.092,4.092,0,0,1,.5-2.138L-498.275-57.6a4.141,4.141,0,0,1,5.6-1.658l124.629,67.4a4.089,4.089,0,0,1,2.157,3.445,4.1,4.1,0,0,1-.5,2.139L-434,138.04a4.141,4.141,0,0,1-5.6,1.657l-124.629-67.4A4.086,4.086,0,0,1-566.383,68.849Z" transform="translate(762.111 61.303)" fill="#be8af8"/>
          <path id="Path_32" data-name="Path 32" d="M-377.749,1.369a4.655,4.655,0,0,0-2.612-3.982L-503.886-62.9a4.682,4.682,0,0,0-6.247,2.137L-570.6,62.454a4.658,4.658,0,0,0-.472,2.245,4.654,4.654,0,0,0,2.614,3.983l123.525,60.281a4.679,4.679,0,0,0,6.246-2.136L-378.22,3.614A4.649,4.649,0,0,0-377.749,1.369ZM-570.4,64.67A3.973,3.973,0,0,1-570,62.75l60.47-123.213a4,4,0,0,1,5.344-1.829L-380.657-2.011A3.984,3.984,0,0,1-378.422,1.4a3.976,3.976,0,0,1-.4,1.922L-439.3,126.533a4,4,0,0,1-5.345,1.828L-568.166,68.08A3.99,3.99,0,0,1-570.4,64.67Z" transform="translate(775.835 63.368)" fill="#be8af8"/>
        </g>
      </g>
    </g>
    <g id="Mask_Group_14" data-name="Mask Group 14" clip-path="url(#clip-path)">
      <g id="Component_4_4" data-name="Component 4 – 4" transform="translate(-41.424 -54.565)">
        <g id="Group_212" data-name="Group 212" transform="translate(571.08 63.368)" opacity="0.15">
          <path id="Path_11-2" data-name="Path 11" d="M-489.854,213a8.358,8.358,0,0,1,1.506-4.427L-341.636-1.27a8.364,8.364,0,0,1,5.427-3.462,8.382,8.382,0,0,1,6.292,1.379l210.436,146.373a8.357,8.357,0,0,1,3.6,7.26,8.361,8.361,0,0,1-1.506,4.428L-264.1,364.552a8.355,8.355,0,0,1-5.425,3.461,8.378,8.378,0,0,1-6.293-1.38L-486.257,220.261A8.355,8.355,0,0,1-489.854,213Zm373.3-62.752a7.684,7.684,0,0,0-3.308-6.679L-330.3-2.8a7.71,7.71,0,0,0-5.789-1.269,7.686,7.686,0,0,0-4.991,3.185L-487.8,208.959a7.682,7.682,0,0,0-1.384,4.072,7.691,7.691,0,0,0,3.308,6.68l210.436,146.372a7.713,7.713,0,0,0,5.789,1.27,7.694,7.694,0,0,0,4.991-3.185l146.713-209.844A7.676,7.676,0,0,0-116.559,150.251Z" transform="translate(-57.111 -41.14)" fill="#be8af8"/>
          <path id="Path_12-2" data-name="Path 12" d="M-493.633,202.984a8.136,8.136,0,0,1,1.529-4.4L-346.5-4.142a8.158,8.158,0,0,1,5.337-3.311,8.178,8.178,0,0,1,6.122,1.423l203.294,145.27a8.163,8.163,0,0,1,3.424,7.023,8.15,8.15,0,0,1-1.529,4.406L-275.457,353.392a8.236,8.236,0,0,1-11.459,1.887L-490.21,210.009A8.165,8.165,0,0,1-493.633,202.984Zm364.641-56.749a7.493,7.493,0,0,0-3.142-6.448l-203.3-145.27a7.5,7.5,0,0,0-5.619-1.308,7.494,7.494,0,0,0-4.9,3.039L-491.557,198.97a7.479,7.479,0,0,0-1.4,4.044,7.491,7.491,0,0,0,3.143,6.448l203.295,145.271A7.561,7.561,0,0,0-276,353L-130.4,150.279A7.466,7.466,0,0,0-128.992,146.235Z" transform="translate(-54.454 -39.241)" fill="#be8af8"/>
          <path id="Path_13-2" data-name="Path 13" d="M-497.42,192.976a7.929,7.929,0,0,1,1.554-4.383l144.5-195.6a8.033,8.033,0,0,1,11.2-1.691l196.153,144.167a7.978,7.978,0,0,1,3.252,6.788,7.929,7.929,0,0,1-1.554,4.384l-144.5,195.6a7.959,7.959,0,0,1-5.249,3.159,7.975,7.975,0,0,1-5.951-1.467L-494.168,199.764A7.98,7.98,0,0,1-497.42,192.976Zm355.992-50.749a7.313,7.313,0,0,0-2.978-6.218L-340.56-8.158A7.358,7.358,0,0,0-350.82-6.609l-144.5,195.6a7.267,7.267,0,0,0-1.425,4.016,7.3,7.3,0,0,0,2.979,6.217l196.152,144.168a7.31,7.31,0,0,0,5.453,1.345,7.291,7.291,0,0,0,4.809-2.893l144.5-195.6A7.259,7.259,0,0,0-141.428,142.227Z" transform="translate(-51.791 -37.35)" fill="#be8af8"/>
          <path id="Path_14-2" data-name="Path 14" d="M-501.212,182.941a7.72,7.72,0,0,1,1.581-4.362L-356.231-9.9a7.764,7.764,0,0,1,5.16-3.008,7.78,7.78,0,0,1,5.782,1.513l189.012,143.065a7.789,7.789,0,0,1,3.082,6.551,7.731,7.731,0,0,1-1.581,4.363l-143.4,188.478a7.832,7.832,0,0,1-10.942,1.494L-498.13,189.492A7.786,7.786,0,0,1-501.212,182.941Zm347.346-44.749a7.123,7.123,0,0,0-2.817-5.987L-345.7-10.859a7.109,7.109,0,0,0-5.284-1.383,7.09,7.09,0,0,0-4.714,2.749l-143.4,188.479a7.066,7.066,0,0,0-1.445,3.986,7.118,7.118,0,0,0,2.816,5.986L-308.71,332.022a7.159,7.159,0,0,0,10-1.365l143.4-188.479A7.069,7.069,0,0,0-153.866,138.192Z" transform="translate(-49.125 -35.433)" fill="#be8af8"/>
          <path id="Path_15-2" data-name="Path 15" d="M-505.009,172.915a7.534,7.534,0,0,1,1.61-4.341L-361.1-12.781a7.563,7.563,0,0,1,5.071-2.856,7.579,7.579,0,0,1,5.613,1.558L-168.55,127.882a7.6,7.6,0,0,1,2.914,6.315,7.533,7.533,0,0,1-1.608,4.341l-142.3,181.355a7.55,7.55,0,0,1-5.072,2.855,7.565,7.565,0,0,1-5.611-1.556L-502.1,179.231A7.607,7.607,0,0,1-505.009,172.915Zm338.7-38.747a6.931,6.931,0,0,0-2.656-5.757L-350.835-13.551a6.906,6.906,0,0,0-5.115-1.419,6.892,6.892,0,0,0-4.623,2.6l-142.3,181.356a6.854,6.854,0,0,0-1.467,3.955,6.934,6.934,0,0,0,2.656,5.757l181.87,141.962a6.91,6.91,0,0,0,5.115,1.419,6.9,6.9,0,0,0,4.623-2.6l142.3-181.356A6.849,6.849,0,0,0-166.309,134.168Z" transform="translate(-46.455 -33.525)" fill="#be8af8"/>
          <path id="Path_16-2" data-name="Path 16" d="M-508.812,162.893a7.317,7.317,0,0,1,1.64-4.319L-365.979-15.66a7.434,7.434,0,0,1,10.424-1.1L-180.825,124.1a7.418,7.418,0,0,1,2.746,6.077,7.328,7.328,0,0,1-1.64,4.32L-320.911,308.728a7.362,7.362,0,0,1-4.982,2.7,7.369,7.369,0,0,1-5.441-1.6l-174.73-140.858A7.417,7.417,0,0,1-508.812,162.893Zm330.06-32.747a6.746,6.746,0,0,0-2.5-5.526L-355.978-16.239a6.758,6.758,0,0,0-9.477,1L-506.648,159a6.655,6.655,0,0,0-1.491,3.925,6.745,6.745,0,0,0,2.5,5.526l174.73,140.858a6.7,6.7,0,0,0,4.946,1.458,6.7,6.7,0,0,0,4.53-2.458l141.193-174.234A6.649,6.649,0,0,0-178.752,130.146Z" transform="translate(-43.782 -31.62)" fill="#be8af8"/>
          <path id="Path_17-2" data-name="Path 17" d="M-512.619,152.847a7.117,7.117,0,0,1,1.672-4.3L-370.859-18.56a7.17,7.17,0,0,1,4.895-2.552,7.183,7.183,0,0,1,5.271,1.648l167.588,139.755a7.146,7.146,0,0,1,2.582,5.841,7.109,7.109,0,0,1-1.674,4.3L-332.285,297.541a7.238,7.238,0,0,1-10.165.9L-510.038,158.69A7.142,7.142,0,0,1-512.619,152.847ZM-191.2,126.1a6.474,6.474,0,0,0-2.34-5.3L-361.125-18.95a6.517,6.517,0,0,0-4.779-1.494,6.5,6.5,0,0,0-4.438,2.314L-510.43,148.982a6.448,6.448,0,0,0-1.517,3.895,6.479,6.479,0,0,0,2.341,5.3L-342.017,297.93a6.561,6.561,0,0,0,9.216-.82L-192.714,130A6.447,6.447,0,0,0-191.2,126.1Z" transform="translate(-41.104 -29.694)" fill="#be8af8"/>
          <path id="Path_18-2" data-name="Path 18" d="M-516.436,142.807a6.919,6.919,0,0,1,1.708-4.275L-375.745-21.459a6.981,6.981,0,0,1,4.807-2.4,6.989,6.989,0,0,1,5.1,1.694l160.446,138.652a6.966,6.966,0,0,1,2.419,5.6,6.93,6.93,0,0,1-1.708,4.277L-343.665,286.357a6.976,6.976,0,0,1-4.805,2.4,6.99,6.99,0,0,1-5.1-1.695L-514.018,148.411A6.964,6.964,0,0,1-516.436,142.807Zm312.79-20.745a6.3,6.3,0,0,0-2.186-5.067L-366.279-21.656a6.315,6.315,0,0,0-4.611-1.532,6.313,6.313,0,0,0-4.346,2.169L-514.219,138.97a6.253,6.253,0,0,0-1.545,3.866,6.3,6.3,0,0,0,2.186,5.067l160.447,138.652a6.324,6.324,0,0,0,4.612,1.531,6.308,6.308,0,0,0,4.344-2.168l138.983-159.991A6.247,6.247,0,0,0-203.646,122.062Z" transform="translate(-38.42 -27.77)" fill="#be8af8"/>
          <path id="Path_19-2" data-name="Path 19" d="M-520.26,132.762a6.809,6.809,0,0,1,1.746-4.255L-380.635-24.362a6.791,6.791,0,0,1,4.718-2.247,6.8,6.8,0,0,1,4.929,1.739l153.305,137.55a6.784,6.784,0,0,1,2.256,5.366,6.82,6.82,0,0,1-1.746,4.256l-137.88,152.869a6.792,6.792,0,0,1-4.718,2.246,6.79,6.79,0,0,1-4.929-1.74L-518,138.126A6.786,6.786,0,0,1-520.26,132.762ZM-216.1,118.017a6.116,6.116,0,0,0-2.034-4.838L-371.438-24.37a6.123,6.123,0,0,0-4.443-1.567,6.119,6.119,0,0,0-4.252,2.025l-137.88,152.868a6.139,6.139,0,0,0-1.574,3.835,6.122,6.122,0,0,0,2.034,4.837l153.306,137.551a6.13,6.13,0,0,0,4.444,1.568,6.128,6.128,0,0,0,4.252-2.024l137.879-152.869A6.131,6.131,0,0,0-216.1,118.017Z" transform="translate(-35.731 -25.843)" fill="#be8af8"/>
          <path id="Path_20-2" data-name="Path 20" d="M-524.09,122.711a6.618,6.618,0,0,1,1.785-4.235L-385.529-27.27a6.6,6.6,0,0,1,4.629-2.094,6.61,6.61,0,0,1,4.759,1.785l146.165,136.447a6.612,6.612,0,0,1,2.1,5.128,6.621,6.621,0,0,1-1.786,4.235L-366.441,263.978a6.661,6.661,0,0,1-9.387.307L-521.993,127.839A6.613,6.613,0,0,1-524.09,122.711Zm295.539-8.744a5.944,5.944,0,0,0-1.885-4.609L-376.6-27.088a5.937,5.937,0,0,0-4.276-1.6,5.938,5.938,0,0,0-4.161,1.881L-521.812,118.935a5.944,5.944,0,0,0-1.6,3.8,5.947,5.947,0,0,0,1.884,4.609l146.166,136.446a5.986,5.986,0,0,0,8.436-.276l136.776-145.746A5.947,5.947,0,0,0-228.551,113.967Z" transform="translate(-33.039 -23.909)" fill="#be8af8"/>
          <path id="Path_21-2" data-name="Path 21" d="M-527.93,112.658a6.418,6.418,0,0,1,1.829-4.213L-390.43-30.179a6.474,6.474,0,0,1,9.127-.109l139.024,135.344a6.437,6.437,0,0,1,1.94,4.89,6.411,6.411,0,0,1-1.829,4.214L-377.839,252.784a6.474,6.474,0,0,1-9.128.11L-525.99,117.548A6.439,6.439,0,0,1-527.93,112.658Zm286.92-2.74a5.767,5.767,0,0,0-1.738-4.38L-381.772-29.807a5.8,5.8,0,0,0-8.177.1L-525.62,108.915a5.742,5.742,0,0,0-1.638,3.773,5.765,5.765,0,0,0,1.738,4.381L-386.5,252.414a5.8,5.8,0,0,0,8.176-.1l135.672-138.623A5.752,5.752,0,0,0-241.011,109.917Z" transform="translate(-30.338 -21.976)" fill="#be8af8"/>
          <path id="Path_22-2" data-name="Path 22" d="M-531.783,102.593a6.232,6.232,0,0,1,1.877-4.194L-395.34-33.1a6.292,6.292,0,0,1,8.869.091l131.883,134.242a6.269,6.269,0,0,1,1.786,4.651,6.231,6.231,0,0,1-1.876,4.194l-134.566,131.5a6.292,6.292,0,0,1-8.869-.091L-530,107.246A6.278,6.278,0,0,1-531.783,102.593Zm278.308,3.26a5.592,5.592,0,0,0-1.594-4.151L-386.951-32.54a5.616,5.616,0,0,0-7.917-.082l-134.567,131.5a5.561,5.561,0,0,0-1.675,3.744,5.6,5.6,0,0,0,1.6,4.152l131.88,134.243a5.616,5.616,0,0,0,7.918.078l134.567-131.5A5.558,5.558,0,0,0-253.475,105.853Z" transform="translate(-27.629 -20.029)" fill="#be8af8"/>
          <path id="Path_23-2" data-name="Path 23" d="M-535.641,92.514a6.027,6.027,0,0,1,1.925-4.171l133.464-124.38a6.057,6.057,0,0,1,4.365-1.632,6.061,6.061,0,0,1,4.244,1.924L-266.9,97.393a6.02,6.02,0,0,1,1.636,4.413,6.025,6.025,0,0,1-1.927,4.173l-133.463,124.38a6.111,6.111,0,0,1-8.608-.291L-534.006,96.928A6.023,6.023,0,0,1-535.641,92.514Zm269.7,9.262a5.354,5.354,0,0,0-1.455-3.925L-392.137-35.287A5.386,5.386,0,0,0-395.91-37a5.391,5.391,0,0,0-3.883,1.451L-533.255,88.832a5.364,5.364,0,0,0-1.714,3.712,5.357,5.357,0,0,0,1.453,3.925l124.742,133.138a5.435,5.435,0,0,0,7.657.259l133.463-124.379A5.365,5.365,0,0,0-265.94,101.776Z" transform="translate(-24.916 -18.069)" fill="#be8af8"/>
          <path id="Path_24-2" data-name="Path 24" d="M-539.516,82.44a5.846,5.846,0,0,1,1.981-4.152L-405.176-38.971a5.932,5.932,0,0,1,8.349.494l117.6,132.036a5.854,5.854,0,0,1,1.486,4.173,5.844,5.844,0,0,1-1.98,4.153l-132.359,117.26a5.935,5.935,0,0,1-8.35-.5l-117.6-132.035A5.861,5.861,0,0,1-539.516,82.44Zm261.1,15.263a5.189,5.189,0,0,0-1.317-3.7L-397.331-38.03a5.257,5.257,0,0,0-7.4-.438L-537.088,78.79a5.173,5.173,0,0,0-1.755,3.679,5.191,5.191,0,0,0,1.318,3.7l117.6,132.036a5.256,5.256,0,0,0,7.4.437l132.358-117.257A5.174,5.174,0,0,0-278.414,97.7Z" transform="translate(-22.192 -16.112)" fill="#be8af8"/>
          <path id="Path_25-2" data-name="Path 25" d="M-543.4,72.343a5.734,5.734,0,0,1,2.038-4.132L-410.106-41.925a5.716,5.716,0,0,1,4.189-1.322,5.71,5.71,0,0,1,3.9,2.019L-291.559,89.7a5.7,5.7,0,0,1,1.343,3.933,5.737,5.737,0,0,1-2.038,4.134L-423.51,207.905a5.757,5.757,0,0,1-8.087-.7L-542.056,76.276A5.7,5.7,0,0,1-543.4,72.343Zm252.51,21.265a5.034,5.034,0,0,0-1.185-3.473L-402.533-40.8a5.033,5.033,0,0,0-3.441-1.781,5.041,5.041,0,0,0-3.7,1.167L-540.927,68.725a5.061,5.061,0,0,0-1.8,3.647,5.033,5.033,0,0,0,1.185,3.473l110.459,130.933a5.083,5.083,0,0,0,7.139.613L-292.688,97.256A5.062,5.062,0,0,0-290.889,93.608Z" transform="translate(-19.461 -14.134)" fill="#be8af8"/>
          <path id="Path_26-2" data-name="Path 26" d="M-547.3,62.243a5.546,5.546,0,0,1,2.1-4.112l130.15-103.014a5.543,5.543,0,0,1,4.1-1.166,5.538,5.538,0,0,1,3.727,2.067L-303.9,85.846a5.542,5.542,0,0,1,1.2,3.693,5.546,5.546,0,0,1-2.1,4.112L-434.953,196.666a5.587,5.587,0,0,1-7.825-.9L-546.1,65.938A5.558,5.558,0,0,1-547.3,62.243ZM-303.372,89.51a4.876,4.876,0,0,0-1.056-3.247L-407.746-43.566a4.871,4.871,0,0,0-3.277-1.817,4.869,4.869,0,0,0-3.6,1.025L-544.777,58.657a4.882,4.882,0,0,0-1.848,3.616,4.884,4.884,0,0,0,1.057,3.246l103.317,129.829a4.912,4.912,0,0,0,6.882.791L-305.22,93.126A4.878,4.878,0,0,0-303.372,89.51Z" transform="translate(-16.719 -12.152)" fill="#be8af8"/>
          <path id="Path_27-2" data-name="Path 27" d="M-551.213,52.138a5.372,5.372,0,0,1,2.172-4.092L-420-47.845a5.423,5.423,0,0,1,7.566,1.1l96.176,128.727a5.392,5.392,0,0,1,1.067,3.453,5.371,5.371,0,0,1-2.171,4.092L-446.4,185.422a5.424,5.424,0,0,1-7.565-1.1L-550.146,55.592A5.4,5.4,0,0,1-551.213,52.138ZM-315.86,85.41a4.724,4.724,0,0,0-.933-3.023L-412.97-46.34a4.748,4.748,0,0,0-6.624-.966L-548.638,48.586a4.7,4.7,0,0,0-1.9,3.581,4.739,4.739,0,0,0,.933,3.024l96.178,128.727a4.746,4.746,0,0,0,6.622.965L-317.76,88.992A4.7,4.7,0,0,0-315.86,85.41Z" transform="translate(-13.967 -10.167)" fill="#be8af8"/>
          <path id="Path_28-2" data-name="Path 28" d="M-555.143,42.014a5.191,5.191,0,0,1,2.246-4.07l127.941-88.769a5.262,5.262,0,0,1,7.3,1.308l89.036,127.624a5.17,5.17,0,0,1,.935,3.212,5.2,5.2,0,0,1-2.243,4.071L-457.87,174.16a5.262,5.262,0,0,1-7.3-1.308L-554.208,45.227A5.171,5.171,0,0,1-555.143,42.014Zm226.788,39.277a4.516,4.516,0,0,0-.814-2.8L-418.206-49.134a4.588,4.588,0,0,0-6.367-1.141L-552.514,38.5a4.526,4.526,0,0,0-1.957,3.547,4.513,4.513,0,0,0,.816,2.8l89.034,127.626a4.586,4.586,0,0,0,6.367,1.14l127.942-88.769A4.527,4.527,0,0,0-328.356,81.291Z" transform="translate(-11.203 -8.163)" fill="#be8af8"/>
          <path id="Path_29-2" data-name="Path 29" d="M-559.094,31.877a5.085,5.085,0,0,1,2.327-4.049L-429.93-53.82a5.107,5.107,0,0,1,7.04,1.514L-341,74.216a5.029,5.029,0,0,1,.81,2.971,5.081,5.081,0,0,1-2.327,4.049L-469.35,162.883a5.107,5.107,0,0,1-7.04-1.513L-558.285,34.849A5.045,5.045,0,0,1-559.094,31.877Zm218.235,45.281a4.36,4.36,0,0,0-.7-2.578L-423.455-51.943a4.434,4.434,0,0,0-6.11-1.313L-556.4,28.391a4.416,4.416,0,0,0-2.019,3.515,4.364,4.364,0,0,0,.7,2.577l81.893,126.524a4.432,4.432,0,0,0,6.109,1.311l126.838-81.647A4.418,4.418,0,0,0-340.859,77.158Z" transform="translate(-8.425 -6.145)" fill="#be8af8"/>
          <path id="Path_30-2" data-name="Path 30" d="M-563.063,21.724a4.915,4.915,0,0,1,2.414-4.028l125.733-74.526a4.958,4.958,0,0,1,6.776,1.721l74.753,125.418a4.9,4.9,0,0,1,.691,2.73,4.92,4.92,0,0,1-2.414,4.029l-125.734,74.525a4.959,4.959,0,0,1-6.776-1.72L-562.374,24.454A4.9,4.9,0,0,1-563.063,21.724ZM-353.37,73.009a4.235,4.235,0,0,0-.6-2.356L-428.717-54.766a4.285,4.285,0,0,0-5.855-1.486L-560.3,18.274a4.249,4.249,0,0,0-2.086,3.48,4.235,4.235,0,0,0,.6,2.358l74.753,125.419a4.281,4.281,0,0,0,5.853,1.485L-355.455,76.49A4.246,4.246,0,0,0-353.37,73.009Z" transform="translate(-5.634 -4.113)" fill="#be8af8"/>
          <path id="Path_31-2" data-name="Path 31" d="M-567.056,11.556a4.814,4.814,0,0,1,2.509-4.006l124.629-67.4a4.816,4.816,0,0,1,6.512,1.928L-365.795,66.39a4.786,4.786,0,0,1,.577,2.488,4.822,4.822,0,0,1-2.509,4.006l-124.63,67.4a4.816,4.816,0,0,1-6.512-1.929l-67.61-124.315A4.768,4.768,0,0,1-567.056,11.556Zm201.165,57.293a4.092,4.092,0,0,0-.5-2.138L-434-57.6a4.141,4.141,0,0,0-5.6-1.658L-564.226,8.14a4.089,4.089,0,0,0-2.157,3.445,4.1,4.1,0,0,0,.5,2.139l67.612,124.316a4.141,4.141,0,0,0,5.6,1.657l124.629-67.4A4.086,4.086,0,0,0-365.891,68.849Z" transform="translate(-2.826 -2.065)" fill="#be8af8"/>
          <path id="Path_32-2" data-name="Path 32" d="M-571.075,1.369a4.655,4.655,0,0,1,2.612-3.982L-444.938-62.9a4.682,4.682,0,0,1,6.247,2.137L-378.22,62.454a4.657,4.657,0,0,1,.472,2.245,4.654,4.654,0,0,1-2.614,3.983l-123.525,60.281a4.679,4.679,0,0,1-6.246-2.136L-570.6,3.614A4.649,4.649,0,0,1-571.075,1.369Zm192.654,63.3a3.974,3.974,0,0,0-.406-1.92L-439.3-60.464a4,4,0,0,0-5.344-1.829L-568.167-2.011A3.984,3.984,0,0,0-570.4,1.4,3.976,3.976,0,0,0-570,3.32l60.47,123.213a4,4,0,0,0,5.345,1.828l123.526-60.28A3.99,3.99,0,0,0-378.421,64.67Z" transform="translate(0 0)" fill="#be8af8"/>
        </g>
      </g>
    </g>
  </g>
</svg>
