<svg width="26" height="26" viewBox="0 0 26 26" fill="none" xmlns="http://www.w3.org/2000/svg">
<rect x="0.296875" y="0.172913" width="25.4089" height="25.4089" rx="12.7044" fill="#38FF8E"/>
<path d="M8.08984 18.6522V8.83515C8.08984 7.6802 8.86366 7.10272 9.82227 7.10272H14.4421C15.4007 7.10272 16.1745 7.6802 16.1745 8.83515V18.6522H8.08984Z" stroke="black" stroke-width="0.866212" stroke-linecap="round" stroke-linejoin="round"/>
<path d="M7.22656 18.6521H17.0436" stroke="black" stroke-width="0.866212" stroke-linecap="round" stroke-linejoin="round"/>
<path d="M10.9137 11.7224H13.3564C13.957 11.7224 14.4478 11.4336 14.4478 10.6309V9.92065C14.4478 9.11796 13.957 8.82922 13.3564 8.82922H10.9137C10.3131 8.82922 9.82227 9.11796 9.82227 9.92065V10.6309C9.82227 11.4336 10.3131 11.7224 10.9137 11.7224Z" stroke="black" stroke-width="0.866212" stroke-linecap="round" stroke-linejoin="round"/>
<path d="M9.82227 13.4548H11.5547" stroke="black" stroke-width="0.866212" stroke-linecap="round" stroke-linejoin="round"/>
<path d="M16.1758 15.1931L18.7744 15.1873V11.7225L17.6195 11.145" stroke="black" stroke-width="0.866212" stroke-linecap="round" stroke-linejoin="round"/>
</svg>
