<svg xmlns="http://www.w3.org/2000/svg" width="34" height="40.8" viewBox="0 0 34 40.8">
  <path id="user-robot" d="M34.3,39.1a1.7,1.7,0,1,1-3.4,0,6.807,6.807,0,0,0-6.8-6.8H13.9a6.807,6.807,0,0,0-6.8,6.8,1.7,1.7,0,1,1-3.4,0A10.21,10.21,0,0,1,13.9,28.9H24.1A10.21,10.21,0,0,1,34.3,39.1ZM36,12.75v3.4a2.553,2.553,0,0,1-2.55,2.55H32.6a6.807,6.807,0,0,1-6.8,6.8H12.2a6.807,6.807,0,0,1-6.8-6.8H4.55A2.553,2.553,0,0,1,2,16.15v-3.4A2.553,2.553,0,0,1,4.55,10.2H5.4a6.807,6.807,0,0,1,6.8-6.8h5.1V1.7a1.7,1.7,0,1,1,3.4,0V3.4h5.1a6.807,6.807,0,0,1,6.8,6.8h.85A2.553,2.553,0,0,1,36,12.75ZM29.2,10.2a3.4,3.4,0,0,0-3.4-3.4H12.2a3.4,3.4,0,0,0-3.4,3.4v8.5a3.4,3.4,0,0,0,3.4,3.4H25.8a3.4,3.4,0,0,0,3.4-3.4ZM14.75,11.9a2.55,2.55,0,1,0,2.55,2.55A2.551,2.551,0,0,0,14.75,11.9Zm8.5,0a2.55,2.55,0,1,0,2.55,2.55A2.551,2.551,0,0,0,23.25,11.9Z" transform="translate(-2)" fill="#767691"/>
</svg>
