<svg width="17" height="17" viewBox="0 0 17 17" fill="none" xmlns="http://www.w3.org/2000/svg">
<g clip-path="url(#clip0_2_545)">
<path d="M16.5347 12.6732L10.3206 1.91006C9.97504 1.31158 9.35613 0.954224 8.66499 0.954224C7.97388 0.954224 7.35494 1.31158 7.0094 1.91006L0.795311 12.6732C0.44974 13.2717 0.44974 13.9864 0.795311 14.5849C1.14088 15.1834 1.75975 15.5407 2.4509 15.5407H14.8791C15.5702 15.5407 16.1891 15.1834 16.5347 14.5849C16.8803 13.9864 16.8803 13.2717 16.5347 12.6732ZM15.7098 14.1087C15.5364 14.409 15.2259 14.5883 14.8791 14.5883H2.4509C2.10409 14.5883 1.79354 14.409 1.62017 14.1087C1.44679 13.8084 1.44679 13.4498 1.62017 13.1495L7.83432 2.38633C8.0077 2.08601 8.31824 1.90673 8.66502 1.90673C9.01177 1.90673 9.32235 2.08601 9.49572 2.38633L15.7098 13.1495C15.8832 13.4498 15.8832 13.8084 15.7098 14.1087Z" fill="#FF9900"/>
<path d="M8.18852 5.70752H9.141V10.47H8.18852V5.70752ZM8.66479 11.4225C8.31464 11.4225 8.02979 11.7074 8.02979 12.0575C8.02979 12.4076 8.31464 12.6925 8.66479 12.6925C9.0149 12.6925 9.29979 12.4076 9.29979 12.0575C9.29979 11.7074 9.01493 11.4225 8.66479 11.4225Z" fill="#FF9900"/>
</g>
<defs>
<clipPath id="clip0_2_545">
<rect width="16.2577" height="16.2577" fill="white" transform="translate(0.536133 0.11853)"/>
</clipPath>
</defs>
</svg>
