<svg width="40" height="40" viewBox="0 0 40 40" fill="none" xmlns="http://www.w3.org/2000/svg">
<rect width="40" height="40" rx="20" fill="black" fill-opacity="0.04"/>
<path d="M22.71 23.18L19.61 21.33C19.07 21.01 18.63 20.24 18.63 19.61V15.51" stroke="#292D32" stroke-width="1.5" stroke-linecap="round" stroke-linejoin="round"/>
<path d="M27.3058 13.1719C23.5367 9.13901 17.2046 8.92498 13.1718 12.6941C9.1389 16.4633 8.92487 22.7953 12.694 26.8282C16.4632 30.8611 22.7952 31.0751 26.8281 27.3059" stroke="#292D32" stroke-width="1.5" stroke-miterlimit="10" stroke-linecap="round" stroke-linejoin="round"/>
<path d="M17.0563 29.67C12.945 28.54 9.91671 24.64 9.91671 20C9.91671 14.48 14.1717 10 19.5 10C25.8921 10 29.0834 15.56 29.0834 15.56M29.0834 15.56V11M29.0834 15.56H27.1571H24.8284" stroke="#292D32" stroke-width="1.5" stroke-linecap="round" stroke-linejoin="round"/>
</svg>
