<svg width="41" height="41" viewBox="0 0 41 41" fill="none" xmlns="http://www.w3.org/2000/svg">
<rect x="0.896973" y="0.907227" width="39.433" height="39.433" rx="11.6838" fill="#38FF8E"/>
<path d="M28.0619 16.6805V25.4434C28.0619 28.9486 27.1856 29.8248 23.6804 29.8248H18.4227C14.9175 29.8248 14.0413 28.9486 14.0413 25.4434V16.6805C14.0413 13.1754 14.9175 12.2991 18.4227 12.2991H23.6804C27.1856 12.2991 28.0619 13.1754 28.0619 16.6805Z" stroke="#292D32" stroke-width="1.31443" stroke-linecap="round" stroke-linejoin="round"/>
<path d="M22.8042 15.366H19.2991" stroke="#292D32" stroke-width="1.31443" stroke-linecap="round" stroke-linejoin="round"/>
<path d="M21.0516 27.2836C21.8017 27.2836 22.4099 26.6755 22.4099 25.9254C22.4099 25.1752 21.8017 24.5671 21.0516 24.5671C20.3015 24.5671 19.6934 25.1752 19.6934 25.9254C19.6934 26.6755 20.3015 27.2836 21.0516 27.2836Z" stroke="#292D32" stroke-width="1.31443" stroke-linecap="round" stroke-linejoin="round"/>
</svg>
