<svg xmlns="http://www.w3.org/2000/svg" width="16" height="20.174" viewBox="0 0 16 20.174">
  <g id="user-guide" transform="translate(-7 -1)">
    <path id="Path_12250" data-name="Path 12250" d="M10.391,48H23.957v2.783H10.391a1.391,1.391,0,0,1,0-2.783Z" transform="translate(-1.304 -30.652)" fill="#d4ddee"/>
    <path id="Path_12251" data-name="Path 12251" d="M7,18.659V3.435A2.433,2.433,0,0,1,9.435,1l.348.348V15.957l-.348.7Z" fill="#1e719b"/>
    <path id="Path_12252" data-name="Path 12252" d="M27.565,1.7V16.652H14V1H26.87A.7.7,0,0,1,27.565,1.7Z" transform="translate(-4.565)" fill="#23b0e2"/>
    <path id="Path_12253" data-name="Path 12253" d="M8.391,47.49a1.085,1.085,0,0,0,1.1.988H22.652a.349.349,0,0,1,.348.348v.7a.349.349,0,0,1-.348.348H9.536A2.516,2.516,0,0,1,7,47.435v-.08A2.437,2.437,0,0,1,9.435,45H23v1.043a.349.349,0,0,1-.348.348H9.435A1.045,1.045,0,0,0,8.391,47.49Z" transform="translate(0 -28.696)" fill="#1f97c1"/>
    <ellipse id="Ellipse_78" data-name="Ellipse 78" cx="1" cy="0.5" rx="1" ry="0.5" transform="translate(16 3.087)" fill="#fff"/>
    <path id="Path_12254" data-name="Path 12254" d="M28.21,15.578a.39.39,0,0,0-.456-.5,3,3,0,0,0-.374.119.167.167,0,0,1-.221-.1l-.152-.457a.166.166,0,0,1,.078-.2A3.531,3.531,0,0,1,28.736,14h.03a1.285,1.285,0,0,1,1.213,1.606l-.7,2.382a.39.39,0,0,0,.456.5,3,3,0,0,0,.374-.119.167.167,0,0,1,.221.1l.152.457a.166.166,0,0,1-.078.2,3.531,3.531,0,0,1-1.65.435h-.03A1.285,1.285,0,0,1,27.51,17.96Z" transform="translate(-13.043 -8.478)" fill="#fff"/>
    <g id="Group_9404" data-name="Group 9404" transform="translate(12.565 12.13)">
      <path id="Path_12255" data-name="Path 12255" d="M29.609,33.7H23.348a.348.348,0,1,1,0-.7h6.261a.348.348,0,1,1,0,.7Z" transform="translate(-23 -33)" fill="#2682bc"/>
      <path id="Path_12256" data-name="Path 12256" d="M30.826,38.7H27.348a.348.348,0,1,1,0-.7h3.478a.348.348,0,1,1,0,.7Z" transform="translate(-25.609 -36.261)" fill="#2682bc"/>
    </g>
  </g>
</svg>
