<svg width="51" height="51" viewBox="0 0 51 51" fill="none" xmlns="http://www.w3.org/2000/svg">
<circle cx="25.5" cy="25.5" r="24.8625" fill="#38FF8E" stroke="#38FF8E" stroke-width="1.275"/>
<path d="M31 27.4V30.4C31 34.4 29.4 36 25.4 36H21.6C17.6 36 16 34.4 16 30.4V26.6C16 22.6 17.6 21 21.6 21H24.6" stroke="#292D32" stroke-width="1.5" stroke-linecap="round" stroke-linejoin="round"/>
<path d="M30.9996 27.4H27.7996C25.3996 27.4 24.5996 26.6 24.5996 24.2V21L30.9996 27.4Z" stroke="#292D32" stroke-width="1.5" stroke-linecap="round" stroke-linejoin="round"/>
<path d="M25.5996 16H29.5996" stroke="#292D32" stroke-width="1.5" stroke-linecap="round" stroke-linejoin="round"/>
<path d="M21 19C21 17.34 22.34 16 24 16H26.62" stroke="#292D32" stroke-width="1.5" stroke-linecap="round" stroke-linejoin="round"/>
<path d="M36.0004 22V28.19C36.0004 29.74 34.7404 31 33.1904 31" stroke="#292D32" stroke-width="1.5" stroke-linecap="round" stroke-linejoin="round"/>
<path d="M36 22H33C30.75 22 30 21.25 30 19V16L36 22Z" stroke="#292D32" stroke-width="1.5" stroke-linecap="round" stroke-linejoin="round"/>
</svg>
