<svg id="calendar_2_" data-name="calendar (2)" xmlns="http://www.w3.org/2000/svg" width="16.5" height="16.5" viewBox="0 0 16.5 16.5">
  <path id="Path_12199" data-name="Path 12199" d="M13.063,1.375h-.687V.688A.688.688,0,1,0,11,.688v.688H5.5V.688a.688.688,0,1,0-1.375,0v.688H3.438A3.442,3.442,0,0,0,0,4.812v8.25A3.442,3.442,0,0,0,3.438,16.5h9.625A3.442,3.442,0,0,0,16.5,13.063V4.813A3.442,3.442,0,0,0,13.063,1.375ZM1.375,4.813A2.063,2.063,0,0,1,3.438,2.75h9.625a2.063,2.063,0,0,1,2.063,2.063V5.5H1.375ZM13.063,15.125H3.438a2.062,2.062,0,0,1-2.063-2.062V6.875h13.75v6.187A2.062,2.062,0,0,1,13.063,15.125Z" fill="#00c6fb"/>
  <circle id="Ellipse_73" data-name="Ellipse 73" cx="1.222" cy="1.222" r="1.222" transform="translate(7.028 9.472)" fill="#00c6fb"/>
  <circle id="Ellipse_74" data-name="Ellipse 74" cx="1.031" cy="1.031" r="1.031" transform="translate(3.781 9.281)" fill="#00c6fb"/>
  <circle id="Ellipse_75" data-name="Ellipse 75" cx="1.031" cy="1.031" r="1.031" transform="translate(10.656 9.281)" fill="#00c6fb"/>
</svg>
