<svg xmlns="http://www.w3.org/2000/svg" width="20" height="20.665" viewBox="0 0 20 20.665">
  <g id="wallet_2_" data-name="wallet (2)" transform="translate(-8.241 0)">
    <path id="Path_4437" data-name="Path 4437" d="M44.631,175.275h-16.2a.724.724,0,0,0-.724.724v1.945H45.355V176A.724.724,0,0,0,44.631,175.275Z" transform="translate(-18.684 -168.201)" fill="#ffb125"/>
    <path id="Path_4438" data-name="Path 4438" d="M57.478,40.492,56.012,55.339a.679.679,0,0,1-.742.609l-7.431-.734a.679.679,0,0,1-.609-.742L48.7,39.624a.679.679,0,0,1,.742-.609l7.431.734A.679.679,0,0,1,57.478,40.492Z" transform="translate(-37.412 -37.438)" fill="#b6fa4c"/>
    <path id="Path_4439" data-name="Path 4439" d="M88.692,39.749l-7.431-.734a.679.679,0,0,0-.742.609l-.132,1.332a.675.675,0,0,1,.373-.071l7.431.734a.679.679,0,0,1,.609.742L87.465,55.877a.677.677,0,0,0,.369-.538L89.3,40.491A.679.679,0,0,0,88.692,39.749Z" transform="translate(-69.234 -37.437)" fill="#a8e83a"/>
    <path id="Path_4440" data-name="Path 4440" d="M77.675,74.843l-1.07,10.832a.41.41,0,0,0,.19.389,1.99,1.99,0,0,1,.8.968.41.41,0,0,0,.342.258l3.852.381a.409.409,0,0,0,.386-.186,1.99,1.99,0,0,1,.975-.793.41.41,0,0,0,.262-.344l1.07-10.832a.41.41,0,0,0-.19-.389,1.99,1.99,0,0,1-.8-.968.41.41,0,0,0-.342-.258L79.3,73.52a.409.409,0,0,0-.386.186,1.99,1.99,0,0,1-.975.793A.41.41,0,0,0,77.675,74.843Z" transform="translate(-65.603 -70.551)" fill="#7d0"/>
    <path id="Path_4441" data-name="Path 4441" d="M108.815,75.127a1.99,1.99,0,0,1-.8-.968.41.41,0,0,0-.342-.258l-3.852-.381a.41.41,0,0,0-.386.186,1.99,1.99,0,0,1-.975.793.41.41,0,0,0-.262.344l-.041.412,4.992.478a.41.41,0,0,1,.342.258,1.99,1.99,0,0,0,.8.968.41.41,0,0,1,.19.389l-.928,9.394c.04-.018.08-.035.121-.051a.41.41,0,0,0,.262-.344L109,75.515A.41.41,0,0,0,108.815,75.127Z" transform="translate(-90.122 -70.551)" fill="#73cc00"/>
    <path id="Path_4442" data-name="Path 4442" d="M81.39,5.266,72.988,17.6a.679.679,0,0,1-.943.179l-6.171-4.205a.679.679,0,0,1-.179-.943L74.1.3A.679.679,0,0,1,75.04.118l6.171,4.205A.679.679,0,0,1,81.39,5.266Z" transform="translate(-55.022 0)" fill="#b6fa4c"/>
    <path id="Path_4443" data-name="Path 4443" d="M239.257,4.323,233.086.118a.679.679,0,0,0-.943.179l-.719,1.055a.679.679,0,0,1,.18.087l6.171,4.205a.679.679,0,0,1,.179.943L230.27,17.861a.679.679,0,0,0,.763-.266l8.4-12.329A.679.679,0,0,0,239.257,4.323Z" transform="translate(-213.068 0)" fill="#a8e83a"/>
    <path id="Path_4444" data-name="Path 4444" d="M121.359,51.673l-6.13,8.995a.41.41,0,0,0-.02.432,1.99,1.99,0,0,1,.24,1.234.41.41,0,0,0,.177.391l3.2,2.18a.41.41,0,0,0,.428.022,1.99,1.99,0,0,1,1.236-.228.41.41,0,0,0,.395-.176l6.13-8.994a.41.41,0,0,0,.02-.432,1.99,1.99,0,0,1-.24-1.234.41.41,0,0,0-.177-.391l-3.2-2.18a.409.409,0,0,0-.428-.022,1.99,1.99,0,0,1-1.236.228A.41.41,0,0,0,121.359,51.673Z" transform="translate(-102.601 -49.151)" fill="#7d0"/>
    <path id="Path_4445" data-name="Path 4445" d="M245.2,55.1a1.99,1.99,0,0,1-.24-1.234.41.41,0,0,0-.177-.391l-3.2-2.18a.41.41,0,0,0-.428-.022,1.99,1.99,0,0,1-1.236.228.41.41,0,0,0-.395.176l-.255.375,4,2.695a.409.409,0,0,1,.177.391,1.99,1.99,0,0,0,.24,1.234.41.41,0,0,1-.02.432l-5.371,7.881a1.982,1.982,0,0,1,.362.017.41.41,0,0,0,.395-.176l6.13-8.995A.41.41,0,0,0,245.2,55.1Z" transform="translate(-220.764 -49.152)" fill="#73cc00"/>
    <circle id="Ellipse_30" data-name="Ellipse 30" cx="2.195" cy="2.195" r="2.195" transform="translate(17.264 5.917)" fill="#b6fa4c"/>
    <path id="Path_4446" data-name="Path 4446" d="M26.2,216.692H9.285a1.044,1.044,0,0,1-1.044-1.044V205.315a1.044,1.044,0,0,1,1.044-1.044H26.2a1.044,1.044,0,0,1,1.044,1.044v10.332A1.044,1.044,0,0,1,26.2,216.692Z" transform="translate(0 -196.026)" fill="#ffb125"/>
    <path id="Path_4447" data-name="Path 4447" d="M407.961,204.271h-1.9a1.044,1.044,0,0,1,1.044,1.044v10.332a1.044,1.044,0,0,1-1.044,1.044h1.9a1.044,1.044,0,0,0,1.044-1.044V205.315A1.044,1.044,0,0,0,407.961,204.271Z" transform="translate(-381.764 -196.026)" fill="#ff901d"/>
    <path id="Path_4448" data-name="Path 4448" d="M356.434,308.688h-3.806a2,2,0,0,0-2,2h0a2,2,0,0,0,2,2h3.806a.378.378,0,0,0,.378-.378v-3.235A.378.378,0,0,0,356.434,308.688Z" transform="translate(-328.571 -296.229)" fill="#ff6d3a"/>
    <path id="Path_4449" data-name="Path 4449" d="M356.433,308.688h-1.906a.378.378,0,0,1,.378.378v2.725a.4.4,0,0,1-.4.4h-1.875a2,2,0,0,1-1.981-1.753,1.993,1.993,0,0,0,1.981,2.238h3.806a.378.378,0,0,0,.378-.378v-3.235A.378.378,0,0,0,356.433,308.688Z" transform="translate(-328.571 -296.229)" fill="#ed5729"/>
    <path id="Path_4450" data-name="Path 4450" d="M26.2,204.271H9.285a1.044,1.044,0,0,0-1.044,1.044v1.144h19v-1.144A1.044,1.044,0,0,0,26.2,204.271Z" transform="translate(0 -196.026)" fill="#ff6d3a"/>
    <path id="Path_4451" data-name="Path 4451" d="M408.829,204.73a1.049,1.049,0,0,0-.128-.155l0,0a1.047,1.047,0,0,0-.153-.126l-.042-.027c-.021-.013-.043-.025-.066-.036l-.044-.021a1.039,1.039,0,0,0-.432-.094h-1.9a1.044,1.044,0,0,1,1.044,1.044v1.144h1.9v-1.144a1.039,1.039,0,0,0-.126-.5Q408.857,204.772,408.829,204.73Z" transform="translate(-381.766 -196.025)" fill="#ed5729"/>
    <path id="Path_4452" data-name="Path 4452" d="M9.285,459.972H26.2a1.044,1.044,0,0,0,1.044-1.044v-1.144h-19v1.144A1.044,1.044,0,0,0,9.285,459.972Z" transform="translate(0 -439.307)" fill="#ff6d3a"/>
    <path id="Path_4453" data-name="Path 4453" d="M25.342,457.784v1.146a.176.176,0,0,1-.177.173H9.285a1.044,1.044,0,0,1-1.044-1.044v.869a1.044,1.044,0,0,0,1.044,1.044H26.2l.061,0h.019l.042,0,.021,0,.041-.007.018,0,.058-.013h0l.025-.007a1.044,1.044,0,0,0,.121-.042l.046-.021.045-.023h0q.044-.024.086-.052h0c.024-.016.046-.033.069-.051l0,0q.034-.027.065-.057h0q.037-.035.07-.074h0a1.05,1.05,0,0,0,.095-.128l0,0c.01-.017.021-.034.03-.051h0a1.034,1.034,0,0,0,.065-.146l.006-.017.012-.039.006-.02q.005-.02.01-.04l0-.018c0-.019.008-.039.011-.058h0c0-.023.006-.046.008-.07V459c0-.024,0-.047,0-.071h0v-1.144Z" transform="translate(0 -439.307)" fill="#ed5729"/>
    <circle id="Ellipse_31" data-name="Ellipse 31" cx="0.927" cy="0.927" r="0.927" transform="translate(23.201 13.528)" fill="#f2f2f2"/>
  </g>
</svg>
