<svg width="26" height="26" viewBox="0 0 26 26" fill="none" xmlns="http://www.w3.org/2000/svg">
<path d="M10.6064 15.1187C10.6064 16.1484 11.4027 16.9765 12.3793 16.9765H14.3751C15.2244 16.9765 15.9144 16.2546 15.9144 15.3522C15.9144 14.3862 15.4898 14.0358 14.8635 13.8129L11.668 12.6982C11.0417 12.4753 10.6171 12.1356 10.6171 11.1589C10.6171 10.2672 11.3071 9.53467 12.1564 9.53467H14.1522C15.1289 9.53467 15.9251 10.3627 15.9251 11.3925" stroke="#292D32" stroke-width="1.27392" stroke-linecap="round" stroke-linejoin="round"/>
<path d="M13.2607 8.48364V18.038" stroke="#292D32" stroke-width="1.27392" stroke-linecap="round" stroke-linejoin="round"/>
<path d="M23.8765 13.261C23.8765 19.121 19.1206 23.877 13.2605 23.877C7.4005 23.877 2.64453 19.121 2.64453 13.261C2.64453 7.40099 7.4005 2.64502 13.2605 2.64502" stroke="#292D32" stroke-width="1.27392" stroke-linecap="round" stroke-linejoin="round"/>
<path d="M23.8768 6.89142V2.64502H19.6304" stroke="#292D32" stroke-width="1.27392" stroke-linecap="round" stroke-linejoin="round"/>
<path d="M18.5688 7.95302L23.8768 2.64502" stroke="#292D32" stroke-width="1.27392" stroke-linecap="round" stroke-linejoin="round"/>
</svg>
