<svg width="40" height="40" viewBox="0 0 40 40" fill="none" xmlns="http://www.w3.org/2000/svg">
<rect width="40" height="40" rx="10" fill="black" fill-opacity="0.04"/>
<path d="M20.1197 20.78C20.0497 20.77 19.9597 20.77 19.8797 20.78C18.1197 20.72 16.7197 19.28 16.7197 17.51C16.7197 15.7 18.1797 14.23 19.9997 14.23C21.8097 14.23 23.2797 15.7 23.2797 17.51C23.2697 19.28 21.8797 20.72 20.1197 20.78Z" stroke="#292D32" stroke-width="1.5" stroke-linecap="round" stroke-linejoin="round"/>
<path d="M26.7398 27.3801C24.9598 29.0101 22.5998 30.0001 19.9998 30.0001C17.3998 30.0001 15.0398 29.0101 13.2598 27.3801C13.3598 26.4401 13.9598 25.5201 15.0298 24.8001C17.7698 22.9801 22.2498 22.9801 24.9698 24.8001C26.0398 25.5201 26.6398 26.4401 26.7398 27.3801Z" stroke="#292D32" stroke-width="1.5" stroke-linecap="round" stroke-linejoin="round"/>
<path d="M20 30C25.5228 30 30 25.5228 30 20C30 14.4772 25.5228 10 20 10C14.4772 10 10 14.4772 10 20C10 25.5228 14.4772 30 20 30Z" stroke="#292D32" stroke-width="1.5" stroke-linecap="round" stroke-linejoin="round"/>
</svg>
