<svg width="46" height="46" viewBox="0 0 46 46" fill="none" xmlns="http://www.w3.org/2000/svg">
<rect width="46" height="46" rx="23" fill="black" fill-opacity="0.04"/>
<path d="M23 33C28.5228 33 33 28.5228 33 23C33 17.4772 28.5228 13 23 13C17.4772 13 13 17.4772 13 23C13 28.5228 17.4772 33 23 33Z" stroke="#292D32" stroke-width="1.5" stroke-linecap="round" stroke-linejoin="round"/>
<path d="M22.6603 24.8299V24.5339C22.6603 23.5753 23.2524 23.0678 23.8445 22.659C24.4225 22.2643 25.0004 21.7568 25.0004 20.8264C25.0004 19.5295 23.9572 18.4863 22.6603 18.4863C21.3634 18.4863 20.3203 19.5295 20.3203 20.8264" stroke="#292D32" stroke-width="2.11452" stroke-linecap="round" stroke-linejoin="round"/>
<path d="M22.6536 28.199H22.6663" stroke="#292D32" stroke-width="2.11452" stroke-linecap="round" stroke-linejoin="round"/>
</svg>
