<svg width="28" height="28" viewBox="0 0 28 28" fill="none" xmlns="http://www.w3.org/2000/svg">
<circle cx="14" cy="14" r="14" fill="black" fill-opacity="0.04"/>
<path d="M12.5996 14.42H9.51955C9.26009 14.4215 9.01168 14.5252 8.82821 14.7087C8.64474 14.8922 8.54102 15.1406 8.53955 15.4V18.48C8.54102 18.7395 8.64474 18.9879 8.82821 19.1714C9.01168 19.3548 9.26009 19.4586 9.51955 19.46H12.5996C12.859 19.4586 13.1074 19.3548 13.2909 19.1714C13.4744 18.9879 13.5781 18.7395 13.5796 18.48V15.4C13.5781 15.1406 13.4744 14.8922 13.2909 14.7087C13.1074 14.5252 12.859 14.4215 12.5996 14.42ZM12.3756 17.64C12.3756 17.7209 12.3596 17.801 12.3287 17.8758C12.2977 17.9505 12.2523 18.0184 12.1951 18.0756C12.1379 18.1328 12.07 18.1782 11.9953 18.2091C11.9205 18.2401 11.8404 18.256 11.7596 18.256H10.3596C10.2787 18.256 10.1986 18.2401 10.1238 18.2091C10.0491 18.1782 9.98117 18.1328 9.92397 18.0756C9.86677 18.0184 9.8214 17.9505 9.79044 17.8758C9.75948 17.801 9.74355 17.7209 9.74355 17.64V16.24C9.74355 16.0767 9.80845 15.92 9.92397 15.8045C10.0395 15.6889 10.1962 15.624 10.3596 15.624H11.7596C11.9229 15.624 12.0796 15.6889 12.1951 15.8045C12.3107 15.92 12.3756 16.0767 12.3756 16.24V17.64ZM10.4156 10.416H11.7036V11.704H10.4156V10.416ZM18.4796 8.54004H15.3996C15.1401 8.54151 14.8917 8.64523 14.7082 8.8287C14.5247 9.01217 14.421 9.26058 14.4196 9.52004V12.6C14.421 12.8595 14.5247 13.1079 14.7082 13.2914C14.8917 13.4748 15.1401 13.5786 15.3996 13.58H18.4796C18.739 13.5786 18.9874 13.4748 19.1709 13.2914C19.3544 13.1079 19.4581 12.8595 19.4596 12.6V9.52004C19.4581 9.26058 19.3544 9.01217 19.1709 8.8287C18.9874 8.64523 18.739 8.54151 18.4796 8.54004ZM18.2556 11.76C18.2556 11.8409 18.2396 11.921 18.2087 11.9958C18.1777 12.0705 18.1323 12.1384 18.0751 12.1956C18.0179 12.2528 17.95 12.2982 17.8753 12.3291C17.8005 12.3601 17.7204 12.376 17.6396 12.376H16.2396C16.0762 12.376 15.9195 12.3111 15.804 12.1956C15.6885 12.0801 15.6236 11.9234 15.6236 11.76V10.36C15.6236 10.1967 15.6885 10.04 15.804 9.92446C15.9195 9.80894 16.0762 9.74404 16.2396 9.74404H17.6396C17.7204 9.74404 17.8005 9.75997 17.8753 9.79093C17.95 9.82189 18.0179 9.86726 18.0751 9.92446C18.1323 9.98166 18.1777 10.0496 18.2087 10.1243C18.2396 10.199 18.2556 10.2791 18.2556 10.36V11.76ZM10.4156 16.296H11.7036V17.584H10.4156V16.296ZM12.5996 8.54004H9.51955C9.26009 8.54151 9.01168 8.64523 8.82821 8.8287C8.64474 9.01217 8.54102 9.26058 8.53955 9.52004V12.6C8.54102 12.8595 8.64474 13.1079 8.82821 13.2914C9.01168 13.4748 9.26009 13.5786 9.51955 13.58H12.5996C12.859 13.5786 13.1074 13.4748 13.2909 13.2914C13.4744 13.1079 13.5781 12.8595 13.5796 12.6V9.52004C13.5781 9.26058 13.4744 9.01217 13.2909 8.8287C13.1074 8.64523 12.859 8.54151 12.5996 8.54004ZM12.3756 11.76C12.3756 11.9234 12.3107 12.0801 12.1951 12.1956C12.0796 12.3111 11.9229 12.376 11.7596 12.376H10.3596C10.1962 12.376 10.0395 12.3111 9.92397 12.1956C9.80845 12.0801 9.74355 11.9234 9.74355 11.76V10.36C9.74355 10.1967 9.80845 10.04 9.92397 9.92446C10.0395 9.80894 10.1962 9.74404 10.3596 9.74404H11.7596C11.9229 9.74404 12.0796 9.80894 12.1951 9.92446C12.3107 10.04 12.3756 10.1967 12.3756 10.36V11.76ZM19.4596 15.4V17.08C19.4596 17.2657 19.3858 17.4437 19.2545 17.575C19.1233 17.7063 18.9452 17.78 18.7596 17.78H17.0796C16.8939 17.78 16.7159 17.7063 16.5846 17.575C16.4533 17.4437 16.3796 17.2657 16.3796 17.08V16.8C16.3796 16.6886 16.4238 16.5818 16.5026 16.5031C16.5813 16.4243 16.6882 16.38 16.7996 16.38C16.9109 16.38 17.0178 16.4243 17.0965 16.5031C17.1753 16.5818 17.2196 16.6886 17.2196 16.8V16.94H18.6196V15.54H17.9196C17.8082 15.54 17.7013 15.4958 17.6226 15.417C17.5438 15.3383 17.4996 15.2314 17.4996 15.12C17.4996 15.0086 17.5438 14.9018 17.6226 14.8231C17.7013 14.7443 17.8082 14.7 17.9196 14.7H18.7596C18.9452 14.7 19.1233 14.7738 19.2545 14.9051C19.3858 15.0363 19.4596 15.2144 19.4596 15.4ZM16.2956 10.416H17.5836V11.704H16.2956V10.416ZM19.4596 19.04C19.4581 19.151 19.4134 19.257 19.3349 19.3354C19.2565 19.4139 19.1505 19.4586 19.0396 19.46H17.9196C17.8082 19.46 17.7013 19.4158 17.6226 19.337C17.5438 19.2583 17.4996 19.1514 17.4996 19.04C17.4996 18.9286 17.5438 18.8218 17.6226 18.7431C17.7013 18.6643 17.8082 18.62 17.9196 18.62H19.0396C19.1505 18.6215 19.2565 18.6662 19.3349 18.7447C19.4134 18.8231 19.4581 18.9291 19.4596 19.04ZM14.6996 15.12C14.701 15.0091 14.7457 14.9031 14.8242 14.8247C14.9026 14.7462 15.0086 14.7015 15.1196 14.7H16.2396C16.3509 14.7 16.4578 14.7443 16.5365 14.8231C16.6153 14.9018 16.6596 15.0086 16.6596 15.12C16.6596 15.2314 16.6153 15.3383 16.5365 15.417C16.4578 15.4958 16.3509 15.54 16.2396 15.54H15.1196C15.0086 15.5386 14.9026 15.4939 14.8242 15.4154C14.7457 15.337 14.701 15.231 14.6996 15.12ZM16.6596 19.04C16.6581 19.151 16.6134 19.257 16.5349 19.3354C16.4565 19.4139 16.3505 19.4586 16.2396 19.46H15.3996C15.2139 19.46 15.0359 19.3863 14.9046 19.255C14.7733 19.1237 14.6996 18.9457 14.6996 18.76V16.8C14.6996 16.6886 14.7438 16.5818 14.8226 16.5031C14.9013 16.4243 15.0082 16.38 15.1196 16.38C15.2309 16.38 15.3378 16.4243 15.4165 16.5031C15.4953 16.5818 15.5396 16.6886 15.5396 16.8V18.62H16.2396C16.3505 18.6215 16.4565 18.6662 16.5349 18.7447C16.6134 18.8231 16.6581 18.9291 16.6596 19.04Z" fill="black"/>
</svg>
