<svg id="Component_4_1" data-name="Component 4 – 1" xmlns="http://www.w3.org/2000/svg" width="16.009" height="14.665" viewBox="0 0 16.009 14.665">
  <g id="eye_1_" data-name="eye (1)" transform="translate(0 0.667)">
    <path id="Path_4493" data-name="Path 4493" d="M15.515,7.165A8.831,8.831,0,0,0,8,2.655,8.831,8.831,0,0,0,.485,7.165a3.273,3.273,0,0,0,0,3.442A8.831,8.831,0,0,0,8,15.117a8.831,8.831,0,0,0,7.515-4.51A3.273,3.273,0,0,0,15.515,7.165ZM14.378,9.909A7.544,7.544,0,0,1,8,13.784,7.544,7.544,0,0,1,1.621,9.909a1.946,1.946,0,0,1,0-2.046A7.544,7.544,0,0,1,8,3.989a7.538,7.538,0,0,1,6.378,3.875A1.946,1.946,0,0,1,14.378,9.909Z" transform="translate(0.004 -2.655)" fill="#fff"/>
    <path id="Path_4494" data-name="Path 4494" d="M10.334,7a3.334,3.334,0,1,0,3.334,3.334A3.334,3.334,0,0,0,10.334,7Zm0,5.334a2,2,0,1,1,2-2A2,2,0,0,1,10.334,12.334Z" transform="translate(-2.33 -4.103)" fill="#fff"/>
  </g>
</svg>
