<svg xmlns="http://www.w3.org/2000/svg" xmlns:xlink="http://www.w3.org/1999/xlink" width="212.56" height="228.798" viewBox="0 0 212.56 228.798">
  <defs>
    <linearGradient id="linear-gradient" x1="-10.067" y1="0.377" x2="-9.098" y2="0.377" gradientUnits="objectBoundingBox">
      <stop offset="0" stop-color="#444b8c"/>
      <stop offset="0.996" stop-color="#26264f"/>
    </linearGradient>
    <linearGradient id="linear-gradient-2" x1="-16.722" y1="-0.187" x2="-17.573" y2="0.894" gradientUnits="objectBoundingBox">
      <stop offset="0" stop-color="#ffc444"/>
      <stop offset="0.996" stop-color="#f36f56"/>
    </linearGradient>
    <linearGradient id="linear-gradient-3" x1="-3.632" y1="1.033" x2="-3.008" y2="0.112" gradientUnits="objectBoundingBox">
      <stop offset="0" stop-color="#aa80f9"/>
      <stop offset="0.996" stop-color="#6165d7"/>
    </linearGradient>
    <linearGradient id="linear-gradient-4" x1="-7.495" y1="0.5" x2="-6.495" y2="0.5" xlink:href="#linear-gradient"/>
    <linearGradient id="linear-gradient-5" x1="-22.222" y1="1.151" x2="-21.078" y2="-0.562" xlink:href="#linear-gradient-2"/>
    <linearGradient id="linear-gradient-6" x1="-4.723" y1="1.033" x2="-3.951" y2="0.113" xlink:href="#linear-gradient-3"/>
    <linearGradient id="linear-gradient-7" x1="-4.748" y1="0.613" x2="-3.272" y2="0.054" xlink:href="#linear-gradient-3"/>
    <linearGradient id="linear-gradient-8" x1="-3.152" y1="-0.15" x2="-2.499" y2="1.079" gradientUnits="objectBoundingBox">
      <stop offset="0" stop-color="#311944"/>
      <stop offset="1" stop-color="#893976"/>
    </linearGradient>
    <linearGradient id="linear-gradient-9" x1="-8.016" y1="0.645" x2="-5.621" y2="0.084" gradientUnits="objectBoundingBox">
      <stop offset="0" stop-color="#00c6fb"/>
      <stop offset="0.996" stop-color="#00aad8"/>
      <stop offset="1" stop-color="#6165d7"/>
    </linearGradient>
    <linearGradient id="linear-gradient-10" x1="-25.409" y1="1.317" x2="-25.318" y2="-0.325" xlink:href="#linear-gradient-2"/>
    <linearGradient id="linear-gradient-11" x1="-20.377" y1="2.932" x2="-20.413" y2="6.094" xlink:href="#linear-gradient-2"/>
    <linearGradient id="linear-gradient-12" x1="-71.907" y1="29.954" x2="-71.72" y2="34.085" gradientUnits="objectBoundingBox">
      <stop offset="0" stop-color="#ffc444"/>
      <stop offset="1" stop-color="#f36f56"/>
    </linearGradient>
    <linearGradient id="linear-gradient-13" x1="-3.628" y1="-1.04" x2="-2.95" y2="0.886" xlink:href="#linear-gradient-8"/>
    <linearGradient id="linear-gradient-14" x1="-12.161" y1="1.377" x2="-12.106" y2="-0.408" xlink:href="#linear-gradient-2"/>
    <linearGradient id="linear-gradient-15" x1="-11.19" y1="1.373" x2="-11.146" y2="-0.41" xlink:href="#linear-gradient-2"/>
    <linearGradient id="linear-gradient-16" x1="1.354" y1="0.493" x2="2.385" y2="0.493" xlink:href="#linear-gradient"/>
    <linearGradient id="linear-gradient-17" x1="-16.289" y1="-24.641" x2="-13.415" y2="-8.38" xlink:href="#linear-gradient-3"/>
    <linearGradient id="linear-gradient-18" x1="-5.012" y1="-1.651" x2="-6.217" y2="-1.746" xlink:href="#linear-gradient-8"/>
    <linearGradient id="linear-gradient-19" x1="-6.045" y1="-1.725" x2="-4.355" y2="-1.672" gradientUnits="objectBoundingBox">
      <stop offset="0" stop-color="#e38ddd"/>
      <stop offset="0.004" stop-color="#e38ddd"/>
      <stop offset="1" stop-color="#00c6fb"/>
    </linearGradient>
    <linearGradient id="linear-gradient-20" x1="-41.813" y1="-20.537" x2="-38.358" y2="-18.495" gradientUnits="objectBoundingBox">
      <stop offset="0" stop-color="#f57e53"/>
      <stop offset="0.005" stop-color="#f58152"/>
      <stop offset="0.042" stop-color="#f8994d"/>
      <stop offset="0.084" stop-color="#fbac49"/>
      <stop offset="0.133" stop-color="#fdb946"/>
      <stop offset="0.196" stop-color="#fec144"/>
      <stop offset="0.318" stop-color="#ffc444"/>
      <stop offset="0.455" stop-color="#fdb946"/>
      <stop offset="0.694" stop-color="#f99c4c"/>
      <stop offset="0.996" stop-color="#f36f56"/>
    </linearGradient>
    <linearGradient id="linear-gradient-21" x1="-46.287" y1="-21.969" x2="-45.422" y2="-21.969" gradientUnits="objectBoundingBox">
      <stop offset="0" stop-color="#ff9085"/>
      <stop offset="1" stop-color="#fb6fbb"/>
    </linearGradient>
    <linearGradient id="linear-gradient-22" x1="-139.894" y1="-29.739" x2="-137.525" y2="-29.739" xlink:href="#linear-gradient-21"/>
    <linearGradient id="linear-gradient-23" x1="-140.701" y1="-29.554" x2="-138.328" y2="-29.554" xlink:href="#linear-gradient-21"/>
    <linearGradient id="linear-gradient-24" x1="-141.512" y1="-29.37" x2="-139.134" y2="-29.37" xlink:href="#linear-gradient-21"/>
    <linearGradient id="linear-gradient-25" x1="-63.644" y1="-35.848" x2="-62.963" y2="-35.848" xlink:href="#linear-gradient-21"/>
    <linearGradient id="linear-gradient-26" x1="-10.104" y1="-2.052" x2="-7.525" y2="-1.989" gradientUnits="objectBoundingBox">
      <stop offset="0" stop-color="#fb6fbb"/>
      <stop offset="1" stop-color="#ff9085"/>
    </linearGradient>
    <linearGradient id="linear-gradient-27" x1="-50.434" y1="-11.227" x2="-48.647" y2="-11.227" xlink:href="#linear-gradient-26"/>
    <linearGradient id="linear-gradient-28" x1="-40.457" y1="-7.409" x2="-38.528" y2="-7.409" xlink:href="#linear-gradient-26"/>
    <linearGradient id="linear-gradient-29" x1="-34.635" y1="-18.181" x2="-33.595" y2="-18.181" xlink:href="#linear-gradient-21"/>
    <linearGradient id="linear-gradient-30" x1="0.329" y1="0.554" x2="-0.255" y2="0.738" gradientUnits="objectBoundingBox">
      <stop offset="0" stop-color="#fcb148"/>
      <stop offset="0.052" stop-color="#fdb946"/>
      <stop offset="0.142" stop-color="#fec144"/>
      <stop offset="0.318" stop-color="#ffc444"/>
      <stop offset="0.485" stop-color="#fdb946"/>
      <stop offset="0.775" stop-color="#f99c4c"/>
      <stop offset="0.866" stop-color="#f8924f"/>
      <stop offset="1" stop-color="#f8924f"/>
    </linearGradient>
    <linearGradient id="linear-gradient-31" x1="0.727" y1="0.007" x2="0.207" y2="1.135" gradientUnits="objectBoundingBox">
      <stop offset="0" stop-color="#ffdb44"/>
      <stop offset="1" stop-color="#feef06"/>
    </linearGradient>
    <linearGradient id="linear-gradient-32" x1="0.636" y1="1.231" x2="0.531" y2="0.666" xlink:href="#linear-gradient-30"/>
    <linearGradient id="linear-gradient-33" x1="0.464" y1="0.369" x2="1.215" y2="1.306" xlink:href="#linear-gradient-30"/>
    <linearGradient id="linear-gradient-37" x1="0.409" y1="0.31" x2="0.858" y2="1.247" xlink:href="#linear-gradient-30"/>
    <linearGradient id="linear-gradient-38" x1="0.253" y1="0.019" x2="0.711" y2="1.039" xlink:href="#linear-gradient-31"/>
    <linearGradient id="linear-gradient-40" x1="3.311" y1="-0.817" x2="-0.513" y2="0.923" gradientUnits="objectBoundingBox">
      <stop offset="0" stop-color="#ab316d"/>
      <stop offset="1" stop-color="#792d3d"/>
    </linearGradient>
  </defs>
  <g id="Group_3327" data-name="Group 3327" transform="translate(-477.479 -518.831)">
    <path id="Path_6514" data-name="Path 6514" d="M1898.019,1705.208l-5.792.391a45.129,45.129,0,0,0-2.621-7.461l4.805-3.225a2.85,2.85,0,0,0,.753-3.977l-5.6-8.246a2.906,2.906,0,0,0-4.006-.8l-4.869,3.25a46.536,46.536,0,0,0-6.007-5.189l2.568-5.272a2.9,2.9,0,0,0-1.354-3.857l-9.023-4.44a2.885,2.885,0,0,0-3.878,1.29l-2.586,5.289a46.292,46.292,0,0,0-7.824-1.549l-.45-5.931a2.964,2.964,0,0,0-3.132-2.711l-10.085.595a2.858,2.858,0,0,0-2.708,3.064l.451,5.949a45.817,45.817,0,0,0-7.584,2.495l-3.4-4.959a3,3,0,0,0-4.1-.82l-8.441,5.543a2.862,2.862,0,0,0-.78,4.034l3.413,4.961a45.593,45.593,0,0,0-5.3,5.968l-5.461-2.638a2.978,2.978,0,0,0-3.97,1.321l-4.468,9.04a2.91,2.91,0,0,0,1.39,3.909l5.421,2.6a44.652,44.652,0,0,0-1.527,7.864l-6,.4a2.925,2.925,0,0,0-2.755,3.118l.764,10.073a2.974,2.974,0,0,0,3.2,2.707l5.953-.419a45.116,45.116,0,0,0,2.672,7.619l-4.9,3.269a2.886,2.886,0,0,0-.785,4.059l5.787,8.333a3,3,0,0,0,4.128.762l4.859-3.261a46.538,46.538,0,0,0,6.2,5.263l-2.54,5.2a2.886,2.886,0,0,0,1.381,3.885l9.19,4.328a2.974,2.974,0,0,0,3.934-1.374l2.506-5.146a46.318,46.318,0,0,0,8.013,1.461l.432,5.689a2.906,2.906,0,0,0,3.142,2.661l10.07-.794a2.915,2.915,0,0,0,2.69-3.113l-.43-5.672a45.812,45.812,0,0,0,7.631-2.658l3.215,4.672a2.908,2.908,0,0,0,4.033.745l8.259-5.631a2.875,2.875,0,0,0,.757-4l-3.224-4.7a45.6,45.6,0,0,0,5.2-6.049l5.153,2.473a2.881,2.881,0,0,0,3.843-1.342l4.3-8.928a2.874,2.874,0,0,0-1.345-3.833l-5.163-2.494a44.634,44.634,0,0,0,1.435-7.784l5.745-.4a2.849,2.849,0,0,0,2.645-3.06l-.749-9.874A2.9,2.9,0,0,0,1898.019,1705.208Zm-52.207-17.742a29.644,29.644,0,0,1,31.52,27.139,29.153,29.153,0,0,1-27.094,31.18,29.631,29.631,0,0,1-31.841-27.116A29.143,29.143,0,0,1,1845.812,1687.466Z" transform="translate(-1223.126 -1046.526)" fill="#d8dee8" opacity="0.7" style="mix-blend-mode: multiply;isolation: isolate"/>
    <path id="Path_6515" data-name="Path 6515" d="M2187.637,888.89l-3.184.215a24.807,24.807,0,0,0-1.441-4.1l2.642-1.773a1.567,1.567,0,0,0,.414-2.187l-3.081-4.533a1.6,1.6,0,0,0-2.2-.44l-2.677,1.787a25.585,25.585,0,0,0-3.3-2.853l1.412-2.9a1.593,1.593,0,0,0-.744-2.12l-4.961-2.441a1.586,1.586,0,0,0-2.132.709l-1.422,2.908a25.45,25.45,0,0,0-4.3-.852l-.247-3.261a1.63,1.63,0,0,0-1.722-1.491l-5.545.327a1.571,1.571,0,0,0-1.489,1.685l.248,3.271a25.2,25.2,0,0,0-4.17,1.372l-1.87-2.727a1.649,1.649,0,0,0-2.254-.451l-4.641,3.048a1.573,1.573,0,0,0-.429,2.218l1.876,2.727a25.052,25.052,0,0,0-2.912,3.281l-3-1.45a1.637,1.637,0,0,0-2.183.726l-2.457,4.97a1.6,1.6,0,0,0,.764,2.149l2.98,1.43a24.548,24.548,0,0,0-.839,4.323l-3.3.223a1.608,1.608,0,0,0-1.515,1.714l.42,5.538a1.635,1.635,0,0,0,1.757,1.488l3.273-.23a24.823,24.823,0,0,0,1.469,4.189l-2.693,1.8a1.587,1.587,0,0,0-.431,2.232l3.181,4.582a1.651,1.651,0,0,0,2.27.419l2.672-1.793a25.577,25.577,0,0,0,3.409,2.893l-1.4,2.856a1.587,1.587,0,0,0,.759,2.136l5.052,2.38a1.634,1.634,0,0,0,2.162-.755l1.378-2.829a25.457,25.457,0,0,0,4.406.8l.237,3.128a1.6,1.6,0,0,0,1.728,1.463l5.536-.437a1.6,1.6,0,0,0,1.479-1.711l-.237-3.118a25.208,25.208,0,0,0,4.2-1.461l1.768,2.569a1.6,1.6,0,0,0,2.217.41l4.541-3.1a1.58,1.58,0,0,0,.417-2.2l-1.772-2.584a25.052,25.052,0,0,0,2.861-3.325l2.833,1.36a1.584,1.584,0,0,0,2.113-.738l2.365-4.909a1.58,1.58,0,0,0-.74-2.107l-2.839-1.371a24.519,24.519,0,0,0,.789-4.279l3.158-.222a1.566,1.566,0,0,0,1.454-1.682l-.412-5.428A1.593,1.593,0,0,0,2187.637,888.89Zm-28.7-9.754a16.3,16.3,0,0,1,17.328,14.92,16.028,16.028,0,0,1-14.9,17.142,16.291,16.291,0,0,1-17.506-14.908A16.022,16.022,0,0,1,2158.936,879.136Z" transform="translate(-1531.048 -317.808)" fill="#d8dee8" opacity="0.7" style="mix-blend-mode: multiply;isolation: isolate"/>
    <g id="Group_3297" data-name="Group 3297" transform="translate(637.411 588.465)">
      <path id="Path_6516" data-name="Path 6516" d="M2774.4,3050.45c1.741,1.407,1.839,2.407,1.783,2.894-.091.786-.683,1.09-2.1,2.573-1.916,2-1.623,2.273-2.6,3-2.154,1.6-5.2,1.494-5.384.95-.129-.382,1.249-.693,2.816-2.509a9.881,9.881,0,0,0,2.067-3.823,9.176,9.176,0,0,0,.312-2.181Z" transform="translate(-2749.947 -2903.458)" fill="url(#linear-gradient)"/>
      <path id="Path_6517" data-name="Path 6517" d="M2794.929,2977.431l3.428,5.973c.825.365,1.615.181,2.347-.884l-1.337-7.262Z" transform="translate(-2776.31 -2834.727)" fill="url(#linear-gradient-2)"/>
      <path id="Path_6518" data-name="Path 6518" d="M2639.646,2094.925a71.918,71.918,0,0,0-9.853,31.23,70.907,70.907,0,0,0,4.116,29.716,88.887,88.887,0,0,0,10.779,19.724c1.959-.819,3.112-2.1,5.071-2.923-.294-1.066-1.2-4.586-1.774-6.682-.443-1.624-1.26-4.63-1.428-5.272-1.407-5.378-.3-9.414-.683-16.066-.451-7.758-2.229-6.856-1.961-11.513.4-6.954,4.34-8.578,8.864-18.644,3.1-6.89,6.349-14.127,3.36-18.083C2652.373,2091.43,2640.923,2094.562,2639.646,2094.925Z" transform="translate(-2625.181 -2028.832)" fill="url(#linear-gradient-3)"/>
      <path id="Path_6519" data-name="Path 6519" d="M2899.062,3110.141a2.862,2.862,0,0,1,1.2,3.236c-.468.977-1.66.668-4.555,1.558-3.1.953-3.715,1.916-6,1.914-.924,0-2.6-.16-2.738-.781-.1-.437.613-.871,2.953-2.443,3.322-2.232,3.288-2.295,4.03-2.637C2895.812,3110.127,2897.683,3109.264,2899.062,3110.141Z" transform="translate(-2860.432 -2957.685)" fill="url(#linear-gradient-4)"/>
      <path id="Path_6520" data-name="Path 6520" d="M2970.1,3058.974l1.273,5.814a3.146,3.146,0,0,0,3.26,0l-.468-5.814Z" transform="translate(-2936.436 -2911.249)" fill="url(#linear-gradient-5)"/>
      <path id="Path_6521" data-name="Path 6521" d="M2712.8,2096.41c-3.762-4.98-15.212-1.849-16.49-1.486a72.609,72.609,0,0,0-4.724,9.52c4.058-.8,5.819-.073,6.64.889,3.186,3.735-6.789,11.983-4.738,24.5.8,4.9,2.9,7.1,2.513,13.076-.285,4.449-1.667,6.7-2.623,9.958a26.276,26.276,0,0,0-1.038,7.261,91.33,91.33,0,0,0,9.012,15.467c1.959-.819,3.112-2.1,5.071-2.923-.294-1.066-1.2-4.586-1.774-6.683-.443-1.624-1.26-4.63-1.428-5.272-1.406-5.378-.3-9.414-.683-16.066-.452-7.758-2.229-6.856-1.961-11.513.4-6.954,4.34-8.578,8.864-18.644C2712.536,2107.6,2715.788,2100.367,2712.8,2096.41Z" transform="translate(-2681.844 -2028.832)" opacity="0.3" fill="url(#linear-gradient-6)" style="mix-blend-mode: multiply;isolation: isolate"/>
      <path id="Path_6522" data-name="Path 6522" d="M2849.686,2094.628a291.776,291.776,0,0,0,9.35,80.91,5.186,5.186,0,0,0,3.465.589,5.083,5.083,0,0,0,2.409-1.188,47.11,47.11,0,0,1-.36-9.469c.433-6.855,2.047-8.252,2.74-15.347a58.843,58.843,0,0,0-.343-13.661c-.955-7.254-2.252-7.4-2.277-11.747-.04-6.689,3.019-9.085,4.7-15.458,1.122-4.252,1.716-10.6-1.1-19.3Z" transform="translate(-2826.279 -2025.48)" fill="url(#linear-gradient-7)"/>
      <path id="Path_6523" data-name="Path 6523" d="M2595,1541.887a31.7,31.7,0,0,0-8.378,6.765c-6.791,7.777-10.991,20.574-6.626,24.761,2.97,2.849,10.013,1.986,12.438-1.4,1.785-2.487.5-5.541-.116-9.881C2591.65,1557.466,2591.674,1550.693,2595,1541.887Z" transform="translate(-2578.208 -1524.5)" fill="#b71346"/>
      <path id="Path_6524" data-name="Path 6524" d="M2762.909,1573.693c-2.514-33.146-10.532-46.714-9.831-50.742-1.009-.725-5-1.879-14.027-.69a14.973,14.973,0,0,0-4.874,2.981,14.562,14.562,0,0,0-1.124,1.193c6.345,1.2,12.808,4.811,15.134,9.929,4.03,9.787-3.454,20.726,0,29.362a40.72,40.72,0,0,0,8.186,12.321C2760.337,1577.059,2763.054,1575.6,2762.909,1573.693Z" transform="translate(-2719.75 -1506.091)" fill="url(#linear-gradient-8)"/>
      <path id="Path_6525" data-name="Path 6525" d="M2952.762,2089.953l-5.439,1.369a29.109,29.109,0,0,1,.764,13.735c-1.512,7.685-5.419,9.372-5.993,16.3-.517,6.235,2.427,7.506,3.836,15.823,1.444,8.522-.741,12.53-1.2,19.658a44.641,44.641,0,0,0,3.163,19.027,5.169,5.169,0,0,0,1.512-.927,47.11,47.11,0,0,1-.36-9.469c.433-6.855,2.047-8.252,2.74-15.347a58.839,58.839,0,0,0-.343-13.661c-.955-7.254-2.252-7.4-2.277-11.747-.04-6.689,3.019-9.085,4.7-15.458C2954.988,2105,2955.583,2098.657,2952.762,2089.953Z" transform="translate(-2910.776 -2025.48)" opacity="0.3" fill="url(#linear-gradient-9)" style="mix-blend-mode: multiply;isolation: isolate"/>
      <path id="Path_6526" data-name="Path 6526" d="M2684.165,1525.243a17.671,17.671,0,0,0-3.8,5.4c-2.111,4.84.162,8.995.844,16.9.748,8.67-.31,23.113-2.749,28.287a1.23,1.23,0,0,0-.1.674c.659,5,35.052,3.868,34.546-2.807-2.514-33.146-10.532-46.714-9.831-50.742-1.009-.725-5-1.879-14.027-.69A14.972,14.972,0,0,0,2684.165,1525.243Z" transform="translate(-2669.738 -1506.091)" fill="#d82356"/>
      <g id="Group_3296" data-name="Group 3296" transform="translate(17.072)">
        <path id="Path_6527" data-name="Path 6527" d="M2824.284,1430.837s2.221,6.972,2.94,7.81-2.887,3.032-5.651,2.043c-2.539-.908,0-4.777,0-4.777Z" transform="translate(-2816.707 -1422.99)" fill="url(#linear-gradient-10)"/>
        <g id="Group_3295" data-name="Group 3295">
          <path id="Path_6528" data-name="Path 6528" d="M2778.914,1345.723a4.359,4.359,0,0,1,.49-4.978,4.747,4.747,0,0,1,3.52-1.236c2.664-.092,5.9,1.278,6.867,3.8.57,1.495-1.156,4.366-1.432,4.885-.312.587-.806.757-1.285,1.181-.663.588-1.7,1.525-3.4,3.094a10.936,10.936,0,0,0-.456-1.839,9.649,9.649,0,0,0-1.083-2.205C2780.892,1346.636,2779.739,1347.025,2778.914,1345.723Z" transform="translate(-2778.228 -1339.504)" fill="#7f2828"/>
          <path id="Path_6529" data-name="Path 6529" d="M2784.714,1402.254a5.916,5.916,0,0,1-5.4,2.2c-3.077-.451-2.97-7.422-.876-8.735a3.916,3.916,0,0,1,3.084-.148c.62.229.813.509,1.833.864.94.326,1.22.242,1.49.509.338.335.543,1.1-.226,3.083a1.688,1.688,0,0,1,1.848-.445,1.058,1.058,0,0,1,.38.434C2787.214,1400.846,2786.409,1401.8,2784.714,1402.254Z" transform="translate(-2776.926 -1390.535)" fill="url(#linear-gradient-11)"/>
          <path id="Path_6530" data-name="Path 6530" d="M2787.012,1462.253a3.782,3.782,0,0,0,1.8.431c.057,0,.117.023.122.052a1.422,1.422,0,0,1-1.429.3c-.473-.175-.813-.664-.739-.775C2786.8,1462.21,2786.906,1462.226,2787.012,1462.253Z" transform="translate(-2785.91 -1451.684)" fill="url(#linear-gradient-12)"/>
        </g>
      </g>
      <path id="Path_6531" data-name="Path 6531" d="M2764.964,1777.64c-3.753,1.318-8.733,5.021-9.067,9.765-.513,7.287,10.339,11.285,8.893,16.391-.394,1.392-1.641,2.648-9.765,5.58-3.287,1.186-6.342,2.154-9.114,2.955,9.941,1.465,29.13-.425,28.751-5.424a192.26,192.26,0,0,0-4.509-30.014A13.956,13.956,0,0,0,2764.964,1777.64Z" transform="translate(-2731.503 -1739.305)" opacity="0.3" fill="url(#linear-gradient-13)" style="mix-blend-mode: multiply;isolation: isolate"/>
      <path id="Path_6532" data-name="Path 6532" d="M2830.146,1568.5c6.1,6.2,14.821,8.15,21.522,5.05,9.306-4.306,10.745-16.515,8.575-24.156-3.623-12.756-19.41-20.2-24.383-16.8-3.6,2.457-3.562,11.966.724,16.725,3.853,4.278,9.771,3.2,11.38,7.556,1.206,3.265-1.124,6.554-1.324,6.828-2.591,3.547-8.238,4.751-13.579,2.315Z" transform="translate(-2808.501 -1515.26)" fill="#d82356"/>
      <path id="Path_6533" data-name="Path 6533" d="M2687.644,1806.869a4.083,4.083,0,0,1,3.383-2.592c1.244-.173,3.293.109,4.109,1.736a3.864,3.864,0,0,1-1.592,4.8,2.671,2.671,0,0,0-1.469-1.663c-1.433-.45-2.675,1.418-3.734.93C2687.5,1809.692,2687.279,1808.041,2687.644,1806.869Z" transform="translate(-2678.087 -1764.306)" fill="url(#linear-gradient-14)"/>
      <path id="Path_6534" data-name="Path 6534" d="M2718.137,1841l4.7.817a1.3,1.3,0,0,0,1.5-1.558l-1.709-7.948a1.3,1.3,0,0,0-1.2-1.027l-5.625-.3a1.3,1.3,0,0,0-1.3,1.737l2.636,7.432A1.3,1.3,0,0,0,2718.137,1841Z" transform="translate(-2702.718 -1788.755)" fill="#fff"/>
      <path id="Path_6535" data-name="Path 6535" d="M2761.092,1898.07c-.385-2.767-1.552-3.492-1.974-3.7-.708-.345-1.057-.077-3.528-.116-2.208-.035-2.731-.261-3.01.116-.529.715.558,2.6,1.79,3.7a7.173,7.173,0,0,0,4.749,1.68Z" transform="translate(-2737.472 -1846.505)" fill="url(#linear-gradient-15)"/>
    </g>
    <g id="Group_3326" data-name="Group 3326" transform="translate(477.479 518.831)">
      <g id="Group_3302" data-name="Group 3302" transform="translate(0 0)">
        <g id="Group_3300" data-name="Group 3300" transform="translate(0 0)">
          <g id="Group_3299" data-name="Group 3299">
            <g id="Group_3298" data-name="Group 3298">
              <path id="Path_6536" data-name="Path 6536" d="M831.71,539.06l20.33,204.464a5.249,5.249,0,0,1-4.667,5.916l-99.054,8.3c-6.038.212-9.3-3.041-9.625-6.263L716.668,535.048c-.331-3.251,2.686-6.129,8.786-6l100.4,4.233A6.462,6.462,0,0,1,831.71,539.06Z" transform="translate(-716.643 -529.036)" fill="url(#linear-gradient-16)"/>
              <path id="Path_6537" data-name="Path 6537" d="M878.927,538.755l20.415,205.517a5.276,5.276,0,0,1-4.685,5.948l-102.694,7.528a6.111,6.111,0,0,1-6.436-5.461L763.4,534.715A5.048,5.048,0,0,1,768.729,529l104.321,3.946A6.493,6.493,0,0,1,878.927,538.755Z" transform="translate(-759.357 -528.992)" fill="#26264f"/>
              <path id="Path_6538" data-name="Path 6538" d="M929.093,683.97l18.935,190.484A4.919,4.919,0,0,1,943.642,880l-96.59,6.866a5.7,5.7,0,0,1-5.985-5.1L820.646,680.806a4.727,4.727,0,0,1,4.946-5.355l98.006,3.119A6.022,6.022,0,0,1,929.093,683.97Z" transform="translate(-811.685 -662.866)" fill="#d8dee8"/>
            </g>
            <path id="Path_6539" data-name="Path 6539" d="M1437.221,606.063a1.675,1.675,0,0,1-1.734,1.925,2.32,2.32,0,0,1-2.139-2.06,1.675,1.675,0,0,1,1.738-1.926A2.32,2.32,0,0,1,1437.221,606.063Z" transform="translate(-1371.764 -597.557)" fill="#fff"/>
          </g>
        </g>
        <g id="Group_3301" data-name="Group 3301" transform="translate(4.015)" opacity="0.3" style="mix-blend-mode: soft-light;isolation: isolate">
          <path id="Path_6540" data-name="Path 6540" d="M815.306,637.815c-10.206-30.156,7.558-45.349-2.5-73.28-5.473-15.2-16.43-26.518-28.484-34.949L768.728,529a5.048,5.048,0,0,0-5.327,5.719l22.126,217.573a6.11,6.11,0,0,0,6.435,5.461l88.662-6.5c-.279-22.718-6.05-38.886-12.469-50.38C850.517,669.285,825.874,669.041,815.306,637.815Z" transform="translate(-763.371 -528.992)" fill="#f4f7fa"/>
        </g>
      </g>
      <g id="Group_3308" data-name="Group 3308" transform="translate(40.067 36.502)">
        <g id="Group_3307" data-name="Group 3307">
          <path id="Path_6541" data-name="Path 6541" d="M1257.308,953.859l45.871,38c-39.446,17.738-34.856,71.956-74.3,89.694l-45.871-38C1222.452,1025.815,1217.862,971.6,1257.308,953.859Z" transform="translate(-1183.006 -953.859)" fill="#10a0c7"/>
          <path id="Path_6542" data-name="Path 6542" d="M1377.726,1044.507c-33.463,18.856-32.2,66.477-65.664,85.333L1273.02,1097.5c33.463-18.856,32.2-66.477,65.664-85.333Z" transform="translate(-1265.287 -1007.156)" fill="#fff"/>
          <g id="Group_3305" data-name="Group 3305">
            <g id="Group_3303" data-name="Group 3303" transform="translate(0 82.888)">
              <path id="Path_6543" data-name="Path 6543" d="M1197.678,1920.548c.172.142.323.278.479.427l.04.039a7.308,7.308,0,0,1,2.409,5.95,6.6,6.6,0,0,1-3.019,4.818,9.467,9.467,0,0,1-.872.526,12.414,12.414,0,0,1-3.913,1.269l-9.8-8.116a52.575,52.575,0,0,0,11.192-6.805A10.144,10.144,0,0,1,1197.678,1920.548Z" transform="translate(-1183.006 -1918.655)" fill="#00c6fb"/>
              <path id="Path_6544" data-name="Path 6544" d="M1619.029,2298.18a9.082,9.082,0,0,1,2.387,3.052,52.573,52.573,0,0,1-11.14,6.764l-10.024-8.3a12.951,12.951,0,0,1,2.919-2.093c.307-.166.622-.322.941-.468,4.761-2.184,10.6-2.183,14.493.716l.046.034C1618.777,2297.976,1618.909,2298.081,1619.029,2298.18Z" transform="translate(-1564.404 -2263.191)" fill="url(#linear-gradient-17)"/>
            </g>
            <g id="Group_3304" data-name="Group 3304" transform="translate(63.11)">
              <path id="Path_6545" data-name="Path 6545" d="M1928.777,953.859l9.8,8.116a12.958,12.958,0,0,1-2.919,2.092c-.308.166-.623.322-.941.468-4.713,2.161-10.464,2.195-14.358-.616-.182-.13-.331-.243-.5-.385a7.976,7.976,0,0,1-2.268-2.869A52.58,52.58,0,0,1,1928.777,953.859Z" transform="translate(-1917.585 -953.859)" fill="#00c6fb"/>
              <path id="Path_6546" data-name="Path 6546" d="M2381.969,1299.5l10.024,8.3a52.575,52.575,0,0,0-11.14,6.764,11.6,11.6,0,0,1-3.7-1.993c-.119-.1-.247-.209-.361-.314l-.041-.038a7.516,7.516,0,0,1-2.593-5.6,6.532,6.532,0,0,1,3.042-5.315,9.368,9.368,0,0,1,.865-.531A12.388,12.388,0,0,1,2381.969,1299.5Z" transform="translate(-2334.931 -1269.807)" fill="#00c6fb"/>
            </g>
          </g>
          <path id="Path_6547" data-name="Path 6547" d="M1725.338,1475.065c7.322,6.066,9.486,17.912,5.266,26.819s-13.981,10.875-21.369,4.755c-7.322-6.066-9.486-17.912-5.266-26.819S1717.95,1468.945,1725.338,1475.065Z" transform="translate(-1657.257 -1427.053)" fill="#00c6fb"/>
          <g id="Group_3306" data-name="Group 3306" transform="translate(50.466 53.036)">
            <path id="Path_6548" data-name="Path 6548" d="M1782.662,1576.79a8.176,8.176,0,0,0-4.163,2.973l-3.256-2.7.127-.224a10.86,10.86,0,0,1,1.417-1.931,9.112,9.112,0,0,1,.934-.873.9.9,0,0,0,.009-1.286l-1.343-1.351a.651.651,0,0,0-.948-.023c-.44.443-.874.941-1.271,1.429a19.86,19.86,0,0,0-1.508,2.12l-1.138-.943a.632.632,0,0,0-.99.137.9.9,0,0,0,.216,1.141l1.162.963a9.865,9.865,0,0,0-1.14,5.336,5.931,5.931,0,0,0,2.2,4.054,4.23,4.23,0,0,0,3.8,1.088,7.986,7.986,0,0,0,3.962-2.925l3.617,3.014a14.515,14.515,0,0,1-1.6,2.269,13.113,13.113,0,0,1-1.222,1.237.974.974,0,0,0,0,1.366l1.737,1.715a.643.643,0,0,0,.958-.009,16.535,16.535,0,0,0,1.241-1.53,22.666,22.666,0,0,0,1.527-2.463l.175-.328,1.238,1.026a.586.586,0,0,0,.957-.159l.006-.012a.968.968,0,0,0-.25-1.157l-1.255-1.04a11.81,11.81,0,0,0,.977-4.061,8.335,8.335,0,0,0-.079-1.624,6.5,6.5,0,0,0-2.35-4.19A4.181,4.181,0,0,0,1782.662,1576.79Zm-.96,5.818a3.242,3.242,0,0,1,1.485-.992,1.563,1.563,0,0,1,1.337.4,2.347,2.347,0,0,1,.854,1.472,3.106,3.106,0,0,1-.353,1.87Zm-5.5-.775a1.33,1.33,0,0,1-1.2-.332,2.023,2.023,0,0,1-.729-1.321,3.683,3.683,0,0,1,.273-1.774l2.99,2.477A2.734,2.734,0,0,1,1776.2,1581.833Z" transform="translate(-1770.413 -1571.183)" fill="#fff"/>
          </g>
          <path id="Path_6549" data-name="Path 6549" d="M1313.348,1383.335l.149.124c-39.446,17.738-34.856,71.956-74.3,89.694l-44.9-37.2a57.5,57.5,0,0,1,7.063-.325,53.767,53.767,0,0,1,9.567,1.025,64.85,64.85,0,0,1,12.727,3.982c23.053,9.782,29.678,1.546,33.674-12.365,1.1-3.688,2.045-7.747,3.193-11.874.506-1.815,1.071-3.644,1.7-5.46a67.074,67.074,0,0,1,4.517-10.321c5.871-11.14,16.177-18.678,28.924-18.341a35.859,35.859,0,0,1,7.1.825,18.51,18.51,0,0,0,1.961.31A49.326,49.326,0,0,0,1313.348,1383.335Z" transform="translate(-1193.324 -1345.459)" fill="#00c6fb" opacity="0.2" style="mix-blend-mode: multiply;isolation: isolate"/>
        </g>
      </g>
      <g id="Group_3319" data-name="Group 3319" transform="translate(34.435 60.193)">
        <path id="Path_6550" data-name="Path 6550" d="M1204.651,1269.628a2.531,2.531,0,0,1,1.575,3.222l-31.69,77.922a3.2,3.2,0,0,1-3.854,1.691L1119.059,1331a3.1,3.1,0,0,1-1.386-3.874l31.955-76.7a2.625,2.625,0,0,1,3.391-1.224Z" transform="translate(-1117.455 -1247.336)" fill="url(#linear-gradient-18)"/>
        <path id="Path_6551" data-name="Path 6551" d="M1206.9,1250.366a2.549,2.549,0,0,1,1.584,3.248l-32.277,78.915a2.7,2.7,0,0,1-3.577,1.352l-51.947-21.588a2.613,2.613,0,0,1-1.487-3.424l32.3-77.811a2.645,2.645,0,0,1,3.416-1.237Z" transform="translate(-1118.859 -1229.616)" fill="url(#linear-gradient-19)"/>
        <g id="Group_3309" data-name="Group 3309" transform="translate(38.132 22.649)" opacity="0.7">
          <path id="Path_6552" data-name="Path 6552" d="M1572.214,2072.791l-5.468,12.807a1.247,1.247,0,0,1-1.513.68l-3.225-1.082a1.026,1.026,0,0,1-.623-1.4l5.508-12.8a1.235,1.235,0,0,1,1.5-.666l3.2,1.078A1.018,1.018,0,0,1,1572.214,2072.791Z" transform="translate(-1561.296 -2020.697)" fill="#f4f7fa"/>
          <path id="Path_6553" data-name="Path 6553" d="M1657.618,1876.9l-5.368,12.573a1.228,1.228,0,0,1-1.495.663l-3.193-1.077a1.013,1.013,0,0,1-.621-1.377l5.407-12.566a1.217,1.217,0,0,1,1.483-.649l3.166,1.072A1.006,1.006,0,0,1,1657.618,1876.9Z" transform="translate(-1639.504 -1841.659)" fill="#f4f7fa"/>
          <path id="Path_6554" data-name="Path 6554" d="M1741.461,1684.564l-5.271,12.345a1.209,1.209,0,0,1-1.476.647l-3.162-1.072a1,1,0,0,1-.619-1.357l5.309-12.338a1.2,1.2,0,0,1,1.465-.633l3.135,1.067A.994.994,0,0,1,1741.461,1684.564Z" transform="translate(-1716.282 -1665.87)" fill="#f4f7fa"/>
          <path id="Path_6555" data-name="Path 6555" d="M1823.785,1495.687l-5.176,12.123a1.19,1.19,0,0,1-1.458.63l-3.131-1.066a.989.989,0,0,1-.616-1.337l5.213-12.116a1.18,1.18,0,0,1,1.448-.617l3.105,1.062A.982.982,0,0,1,1823.785,1495.687Z" transform="translate(-1791.669 -1493.242)" fill="#f4f7fa"/>
        </g>
        <g id="Group_3315" data-name="Group 3315" transform="translate(20.134 69.916)">
          <path id="Path_6556" data-name="Path 6556" d="M1365.276,2049.115l-2.579,6.074a2.292,2.292,0,0,1-3,1.121l-6.442-2.663a2.221,2.221,0,0,1-1.282-2.888l2.6-6.049a2.291,2.291,0,0,1,2.991-1.11l6.418,2.638A2.222,2.222,0,0,1,1365.276,2049.115Z" transform="translate(-1351.803 -2043.416)" fill="url(#linear-gradient-20)"/>
          <path id="Path_6557" data-name="Path 6557" d="M1373.134,2057.556l-2.216,5.216a2.112,2.112,0,0,1-2.772,1.034l-5.532-2.286a2.046,2.046,0,0,1-1.184-2.665l2.234-5.2a2.111,2.111,0,0,1,2.761-1.025l5.514,2.267A2.047,2.047,0,0,1,1373.134,2057.556Zm-11.431,1.412a1.762,1.762,0,0,0,1.02,2.295l5.531,2.286a1.819,1.819,0,0,0,2.387-.89l2.217-5.216a1.763,1.763,0,0,0-1.029-2.287l-5.515-2.268a1.818,1.818,0,0,0-2.378.883Z" transform="translate(-1360.462 -2051.684)" fill="url(#linear-gradient-21)"/>
          <g id="Group_3313" data-name="Group 3313" transform="translate(2.754 1.3)">
            <g id="Group_3310" data-name="Group 3310">
              <path id="Path_6558" data-name="Path 6558" d="M1385.46,2067.838l3.7-8.634Z" transform="translate(-1385.323 -2059.148)" fill="#f4f7fa"/>
              <path id="Path_6559" data-name="Path 6559" d="M1387.834,2058.662l-3.7,8.634-.275-.114,3.7-8.633Z" transform="translate(-1383.861 -2058.549)" fill="url(#linear-gradient-22)"/>
            </g>
            <g id="Group_3311" data-name="Group 3311" transform="translate(2.079 0.852)">
              <path id="Path_6560" data-name="Path 6560" d="M1409.664,2077.767l3.693-8.641Z" transform="translate(-1409.526 -2069.07)" fill="#f4f7fa"/>
              <path id="Path_6561" data-name="Path 6561" d="M1412.03,2068.583l-3.692,8.641-.275-.114,3.693-8.64Z" transform="translate(-1408.063 -2068.47)" fill="url(#linear-gradient-23)"/>
            </g>
            <g id="Group_3312" data-name="Group 3312" transform="translate(4.16 1.705)">
              <path id="Path_6562" data-name="Path 6562" d="M1433.887,2087.7l3.687-8.647Z" transform="translate(-1433.749 -2078.999)" fill="#f4f7fa"/>
              <path id="Path_6563" data-name="Path 6563" d="M1436.247,2078.512l-3.686,8.648-.275-.114,3.687-8.647Z" transform="translate(-1432.285 -2078.4)" fill="url(#linear-gradient-24)"/>
            </g>
          </g>
          <g id="Group_3314" data-name="Group 3314" transform="translate(2.459 2.967)">
            <path id="Path_6564" data-name="Path 6564" d="M1390.489,2083.275l-1.029,2.418a1.277,1.277,0,0,1-1.673.623l-4.828-1.993a1.237,1.237,0,0,1-.716-1.607l1.035-2.411a1.278,1.278,0,0,1,1.669-.62l4.82,1.985A1.239,1.239,0,0,1,1390.489,2083.275Z" transform="translate(-1382.003 -2079.441)" fill="#fec045"/>
            <path id="Path_6565" data-name="Path 6565" d="M1389.048,2081.84l-1.029,2.418a1.421,1.421,0,0,1-1.865.695l-4.829-1.993a1.376,1.376,0,0,1-.8-1.792l1.035-2.411a1.422,1.422,0,0,1,1.861-.691l4.82,1.984A1.379,1.379,0,0,1,1389.048,2081.84Zm-8.245-.559a1.093,1.093,0,0,0,.633,1.422l4.828,1.993a1.128,1.128,0,0,0,1.48-.552l1.029-2.417a1.1,1.1,0,0,0-.638-1.421l-4.82-1.984a1.128,1.128,0,0,0-1.477.549Z" transform="translate(-1380.425 -2077.949)" fill="url(#linear-gradient-25)"/>
          </g>
        </g>
        <path id="Path_6566" data-name="Path 6566" d="M1521.513,1486.678c-1.882,6.848-3.549,11.018-7.121,15.017a32.75,32.75,0,0,1-14.836,9.176l20.943,8.7a2.7,2.7,0,0,0,3.577-1.352l32.277-78.915a2.549,2.549,0,0,0-1.584-3.248l-8.323-3.3c-12.693,8.65-17.483,17.474-19.478,24.089C1524.556,1464.845,1525.984,1470.412,1521.513,1486.678Z" transform="translate(-1466.729 -1415.311)" opacity="0.15" fill="url(#linear-gradient-26)" style="mix-blend-mode: multiply;isolation: isolate"/>
        <g id="Group_3316" data-name="Group 3316" transform="translate(49.046 38.986)" opacity="0.42" style="mix-blend-mode: multiply;isolation: isolate">
          <path id="Path_6567" data-name="Path 6567" d="M1699.939,2079.478l-7.289,17.665a.687.687,0,0,1-.907.341l-2.964-1.225a.686.686,0,0,1-.4-.881l7.316-17.635a.683.683,0,0,1,.9-.335l2.943,1.2A.678.678,0,0,1,1699.939,2079.478Z" transform="translate(-1688.332 -2043.506)" fill="url(#linear-gradient-27)"/>
          <path id="Path_6568" data-name="Path 6568" d="M1838.234,1685.495l-9.7,23.5a.69.69,0,0,1-.906.343l-2.964-1.206a.679.679,0,0,1-.4-.874L1834,1683.8a.685.685,0,0,1,.9-.335l2.938,1.178A.668.668,0,0,1,1838.234,1685.495Z" transform="translate(-1812.542 -1683.406)" fill="url(#linear-gradient-28)"/>
        </g>
        <path id="Path_6569" data-name="Path 6569" d="M1534.223,1372.788a6.921,6.921,0,0,1,3.684,9.2,7.1,7.1,0,0,1-9.1,3.959,6.923,6.923,0,0,1-3.715-9.078A7.1,7.1,0,0,1,1534.223,1372.788Z" transform="translate(-1489.591 -1360.049)" opacity="0.26" fill="url(#linear-gradient-29)" style="mix-blend-mode: multiply;isolation: isolate"/>
        <g id="Group_3318" data-name="Group 3318" transform="translate(27.128 61.567)" opacity="0.53">
          <path id="Path_6570" data-name="Path 6570" d="M1458.753,2011.339a1.135,1.135,0,0,1-.614,1.47,1.106,1.106,0,0,1-1.465-.6,1.135,1.135,0,0,1,.626-1.465A1.107,1.107,0,0,1,1458.753,2011.339Z" transform="translate(-1454.586 -2005.124)" fill="#f4f7fa"/>
          <g id="Group_3317" data-name="Group 3317">
            <path id="Path_6571" data-name="Path 6571" d="M1442.81,1950.869a.406.406,0,0,1-.221.227.424.424,0,0,1-.551-.225,6.41,6.41,0,0,0-8.244-3.367.422.422,0,0,1-.549-.224.411.411,0,0,1,.242-.533,7.267,7.267,0,0,1,9.315,3.8A.416.416,0,0,1,1442.81,1950.869Z" transform="translate(-1433.218 -1946.241)" fill="#f4f7fa"/>
            <path id="Path_6572" data-name="Path 6572" d="M1447.816,1968.813a.413.413,0,0,1-.224.229.424.424,0,0,1-.554-.226,4.7,4.7,0,0,0-6.083-2.486.423.423,0,0,1-.552-.226.418.418,0,0,1,.242-.541,5.553,5.553,0,0,1,7.167,2.928A.419.419,0,0,1,1447.816,1968.813Z" transform="translate(-1439.758 -1963.537)" fill="#f4f7fa"/>
            <path id="Path_6573" data-name="Path 6573" d="M1452.888,1987.022a.425.425,0,0,1-.785,0,2.987,2.987,0,0,0-3.9-1.593.419.419,0,1,1-.315-.777,3.863,3.863,0,0,1,2.927,0,3.778,3.778,0,0,1,2.066,2.043A.425.425,0,0,1,1452.888,1987.022Z" transform="translate(-1446.385 -1981.092)" fill="#f4f7fa"/>
          </g>
        </g>
      </g>
      <g id="Group_3321" data-name="Group 3321" transform="translate(29.471 90.948)">
        <path id="Path_6574" data-name="Path 6574" d="M1111.78,1630.029c0,14.1-11.023,25.187-25.112,24.754-14.662-.45-26.994-13.113-26.994-28.267s12.332-26.154,26.994-24.627C1100.757,1603.356,1111.78,1615.931,1111.78,1630.029Z" transform="translate(-1059.674 -1600.532)" fill="url(#linear-gradient-30)"/>
        <path id="Path_6575" data-name="Path 6575" d="M1156.093,1615.88c0,14.1-11.023,25.187-25.112,24.754-14.662-.45-26.994-13.113-26.994-28.267s12.331-26.154,26.994-24.627C1145.07,1589.207,1156.093,1601.783,1156.093,1615.88Z" transform="translate(-1100.18 -1587.599)" fill="url(#linear-gradient-31)"/>
        <path id="Path_6576" data-name="Path 6576" d="M1168.537,1628.739c0,13.476-10.547,24.06-24.006,23.624-13.981-.453-25.72-12.538-25.72-26.976s11.739-24.941,25.72-23.508C1157.99,1603.257,1168.537,1615.263,1168.537,1628.739Z" transform="translate(-1113.73 -1600.532)" fill="url(#linear-gradient-32)"/>
        <path id="Path_6577" data-name="Path 6577" d="M1177.4,1637.92c0,13.032-10.206,23.253-23.214,22.817-13.5-.453-24.813-12.125-24.813-26.055s11.317-24.076,24.813-22.709C1167.19,1613.29,1177.4,1624.888,1177.4,1637.92Z" transform="translate(-1123.38 -1609.766)" fill="#f9e25d"/>
        <g id="Group_3320" data-name="Group 3320" transform="translate(18.76 6.635)">
          <path id="Path_6578" data-name="Path 6578" d="M1289.938,1664.829h0a1.419,1.419,0,0,1,1.252,1.392v2.4a35.273,35.273,0,0,1,4.158.721q1.535.361,3.05.859a1.4,1.4,0,0,1,.956,1.44l-.295,3.009a1.128,1.128,0,0,1-1.61.936,17.364,17.364,0,0,0-2.046-.762,18.561,18.561,0,0,0-3.859-.721l-.354-.029v6.871c3.611,1.01,6.263,2.369,7.977,4.079a8.624,8.624,0,0,1,2.555,6.367,8.383,8.383,0,0,1-2.826,6.62q-2.845,2.507-7.994,2.815v2.648a1.2,1.2,0,0,1-1.254,1.224h-.022a1.331,1.331,0,0,1-1.258-1.328v-2.612l-.558-.025a36.65,36.65,0,0,1-4.631-.494,30.117,30.117,0,0,1-3.2-.736,1.379,1.379,0,0,1-1-1.426l.347-3.868a1.223,1.223,0,0,1,1.71-1.009,25.12,25.12,0,0,0,2.815.924,24.671,24.671,0,0,0,4.5.752l.022-7.644a16.557,16.557,0,0,1-7.766-3.811,8.726,8.726,0,0,1-2.573-6.485,7.581,7.581,0,0,1,2.789-6.3c1.847-1.467,4.474-2.2,7.862-2.2v-2.453A1.133,1.133,0,0,1,1289.938,1664.829Zm-1.257,9.172a4.233,4.233,0,0,0-2.5.883,2.575,2.575,0,0,0-.9,2.063,2.769,2.769,0,0,0,.831,2.05,5.889,5.889,0,0,0,2.572,1.312Zm2.222,13.841v7.009a3.877,3.877,0,0,0,2.681-.833,3,3,0,0,0,.933-2.359,3.224,3.224,0,0,0-.867-2.307A6.365,6.365,0,0,0,1290.9,1687.842Z" transform="translate(-1278.03 -1664.823)" fill="#fca139"/>
        </g>
        <path id="Path_6579" data-name="Path 6579" d="M1149.98,1642.465c.784-7.746,7.9-11.026,6.974-18.151-.573-4.392-3.9-8.093-7.615-10.983-11.263,1.181-19.972,10.507-19.972,22.7,0,13.929,11.317,25.6,24.813,26.055a23.431,23.431,0,0,0,3.835-.187C1152.656,1656.57,1149.307,1649.12,1149.98,1642.465Z" transform="translate(-1123.38 -1611.12)" opacity="0.3" fill="url(#linear-gradient-33)" style="mix-blend-mode: multiply;isolation: isolate"/>
      </g>
      <g id="Group_3323" data-name="Group 3323" transform="translate(33.049 44.385)">
        <path id="Path_6580" data-name="Path 6580" d="M1136.421,1074.2a16.349,16.349,0,0,1-16.913,16.672,19.142,19.142,0,0,1-18.181-19.038,16.3,16.3,0,0,1,18.181-16.587A19.267,19.267,0,0,1,1136.421,1074.2Z" transform="translate(-1101.327 -1054.329)" fill="url(#linear-gradient-30)"/>
        <path id="Path_6581" data-name="Path 6581" d="M1166.266,1064.667a16.349,16.349,0,0,1-16.913,16.672,19.142,19.142,0,0,1-18.181-19.038,16.3,16.3,0,0,1,18.181-16.587A19.267,19.267,0,0,1,1166.266,1064.667Z" transform="translate(-1128.608 -1045.619)" fill="url(#linear-gradient-31)"/>
        <path id="Path_6582" data-name="Path 6582" d="M1174.647,1073.327a15.6,15.6,0,0,1-16.168,15.911,18.272,18.272,0,0,1-17.323-18.169,15.56,15.56,0,0,1,17.323-15.833A18.385,18.385,0,0,1,1174.647,1073.327Z" transform="translate(-1137.734 -1054.329)" fill="url(#linear-gradient-32)"/>
        <path id="Path_6583" data-name="Path 6583" d="M1180.614,1079.511a15.068,15.068,0,0,1-15.635,15.367,17.649,17.649,0,0,1-16.712-17.548,15.029,15.029,0,0,1,16.712-15.295A17.756,17.756,0,0,1,1180.614,1079.511Z" transform="translate(-1144.234 -1060.549)" fill="url(#linear-gradient-37)"/>
        <g id="Group_3322" data-name="Group 3322" transform="translate(12.635 4.469)">
          <path id="Path_6584" data-name="Path 6584" d="M1256.413,1097.635h0a.956.956,0,0,1,.844.938v1.616a23.757,23.757,0,0,1,2.8.486q1.034.243,2.054.578a.945.945,0,0,1,.644.97l-.2,2.026a.759.759,0,0,1-1.084.63,11.734,11.734,0,0,0-1.378-.513,12.5,12.5,0,0,0-2.6-.486l-.238-.02v4.628a12.16,12.16,0,0,1,5.373,2.747,5.808,5.808,0,0,1,1.721,4.289,5.646,5.646,0,0,1-1.9,4.458,8.683,8.683,0,0,1-5.384,1.9v1.783a.811.811,0,0,1-.844.824h-.015a.9.9,0,0,1-.847-.894v-1.76l-.376-.017a24.708,24.708,0,0,1-3.119-.333,20.316,20.316,0,0,1-2.155-.5.929.929,0,0,1-.676-.96l.234-2.6a.824.824,0,0,1,1.152-.68,16.923,16.923,0,0,0,1.9.622,16.6,16.6,0,0,0,3.031.506l.015-5.148a11.151,11.151,0,0,1-5.231-2.567,5.877,5.877,0,0,1-1.733-4.368,5.106,5.106,0,0,1,1.878-4.242,8.331,8.331,0,0,1,5.3-1.479v-1.652A.763.763,0,0,1,1256.413,1097.635Zm-.846,6.178a2.851,2.851,0,0,0-1.687.595,1.735,1.735,0,0,0-.605,1.389,1.865,1.865,0,0,0,.56,1.38,3.967,3.967,0,0,0,1.732.884Zm1.5,9.322v4.721a2.612,2.612,0,0,0,1.806-.561,2.021,2.021,0,0,0,.629-1.589,2.171,2.171,0,0,0-.584-1.554A4.287,4.287,0,0,0,1257.063,1113.134Z" transform="translate(-1248.393 -1097.631)" fill="url(#linear-gradient-38)"/>
        </g>
        <path id="Path_6585" data-name="Path 6585" d="M1162.15,1082.571c.528-5.217,5.323-7.426,4.7-12.225-.386-2.958-2.628-5.451-5.129-7.4a15.031,15.031,0,0,0-13.451,15.292,17.649,17.649,0,0,0,16.712,17.548,15.8,15.8,0,0,0,2.583-.126C1163.952,1092.071,1161.7,1087.054,1162.15,1082.571Z" transform="translate(-1144.234 -1061.46)" opacity="0.3" fill="url(#linear-gradient-33)" style="mix-blend-mode: multiply;isolation: isolate"/>
      </g>
      <g id="Group_3325" data-name="Group 3325" transform="translate(28.012 129.796)">
        <path id="Path_6586" data-name="Path 6586" d="M1137.55,2045.333l5.659,66.074a5.688,5.688,0,0,1-1.458,4.452,5.6,5.6,0,0,1-3.635,1.777l-83.362,7.021a6.177,6.177,0,0,1-6.808-5.581l-5.238-70.3a5.957,5.957,0,0,1,5.89-6.3l82.845-2.694A6.072,6.072,0,0,1,1137.55,2045.333Z" transform="translate(-1042.692 -2039.779)" fill="#2f315b"/>
        <path id="Path_6587" data-name="Path 6587" d="M1141.843,2144.224a5.686,5.686,0,0,1-3.669,1.776l-83.392,7.021a6.2,6.2,0,0,1-6.836-5.58l-5.238-70.3a5.957,5.957,0,0,1,5.89-6.3l.965-.031c.35,1.814.819,3.852,1.267,5.806.062.272.126.565.187.826.52,2.256.966,4.112,1.045,4.351,2.6,7.784,6.275,16.728,14.039,21.08,11.864,6.654,26.886,5.459,39.363,9.1,8.217,2.4,16.652,5.643,23.189,11.071a38.181,38.181,0,0,1,11.165,14.579A39.745,39.745,0,0,1,1141.843,2144.224Z" transform="translate(-1042.692 -2068.145)" opacity="0.2" fill="url(#linear-gradient-40)" style="mix-blend-mode: multiply;isolation: isolate"/>
        <g id="Group_3324" data-name="Group 3324" transform="translate(3.984 4.253)" opacity="0.7">
          <path id="Path_6588" data-name="Path 6588" d="M1173.84,2160.007h0l-2.872.177a.619.619,0,0,1-.643-.57.551.551,0,0,1,.54-.595l2.866-.189h0a4.673,4.673,0,0,0,1.428-.345.576.576,0,0,1,.746.346.633.633,0,0,1-.368.788A5.491,5.491,0,0,1,1173.84,2160.007Zm-7.373.488-4.52.37a.595.595,0,1,1-.1-1.186l4.52-.366a.593.593,0,1,1,.1,1.182Zm-9.067.742-4.574.375a.6.6,0,1,1-.1-1.193l4.574-.371a.6.6,0,1,1,.1,1.189Zm-9.175.751-4.629.379a.6.6,0,1,1-.1-1.2l4.628-.375a.6.6,0,1,1,.1,1.2Zm-9.285.76-4.685.384a.606.606,0,1,1-.1-1.208l4.684-.38a.6.6,0,1,1,.1,1.2Zm-9.4.769-4.742.388a.61.61,0,1,1-.1-1.215l4.741-.384a.608.608,0,1,1,.1,1.211Zm-9.513.779-4.8.393a.622.622,0,0,1-.683-.56.629.629,0,0,1,.588-.663l4.8-.389a.612.612,0,1,1,.1,1.219Zm-9.629.788-4.859.4a.627.627,0,0,1-.69-.563.635.635,0,0,1,.6-.667l4.859-.394a.625.625,0,0,1,.686.561A.632.632,0,0,1,1110.4,2165.084Zm-9.747.655a.659.659,0,0,1-.131,0,8.114,8.114,0,0,1-4.707-2.188.6.6,0,0,1,.011-.878.675.675,0,0,1,.922,0,6.806,6.806,0,0,0,3.943,1.836.616.616,0,0,1,.559.687A.647.647,0,0,1,1100.653,2165.739Zm78.209-8.824a.59.59,0,0,1-.54-.912,6.009,6.009,0,0,0,.977-3.854.58.58,0,0,1,.534-.63.592.592,0,0,1,.633.54,7.169,7.169,0,0,1-1.164,4.6A.581.581,0,0,1,1178.862,2156.914Zm-84.6,2.64a.638.638,0,0,1-.706-.533c-.01-.091-.029-.17-.036-.263l-.332-4.433a.6.6,0,0,1,.549-.669.584.584,0,0,1,.642.566l.333,4.429c.006.077.079.146.088.222a.6.6,0,0,1-.547.679C1094.239,2159.552,1094.265,2159.554,1094.257,2159.554Zm85.55-9.1c-.322.025-.5-.216-.523-.539l-.377-4.43c-.027-.323.1-.6.424-.627s.5.218.523.541l.377,4.426C1180.259,2150.148,1180.13,2150.43,1179.807,2150.455Zm-86.333-.244a.587.587,0,0,1-.642-.568l-.35-4.677a.6.6,0,1,1,1.191-.094l.351,4.672A.593.593,0,0,1,1093.474,2150.211Zm85.581-8.608c-.322.022-.5-.219-.523-.542l-.376-4.421c-.027-.322.1-.6.424-.622s.5.222.523.543l.376,4.417C1179.506,2141.3,1179.377,2141.58,1179.055,2141.6Zm-86.282-.737a.59.59,0,0,1-.642-.571l-.35-4.667a.584.584,0,0,1,.549-.658.592.592,0,0,1,.641.572l.35,4.662A.587.587,0,0,1,1092.773,2140.865Zm85.531-8.1c-.322.021-.5-.223-.523-.545l-.375-4.412c-.027-.321.1-.6.424-.617s.5.225.522.546l.375,4.408C1178.754,2132.47,1178.625,2132.747,1178.3,2132.768Zm-86.23-1.228a.6.6,0,0,1-.641-.574l-.349-4.656a.578.578,0,0,1,.549-.652.6.6,0,0,1,.64.575l.349,4.652A.581.581,0,0,1,1092.074,2131.54Zm85.48-7.589c-.322.019-.5-.227-.523-.548l-.374-4.4c-.027-.321.1-.594.424-.612s.495.229.522.549l.374,4.4C1178,2123.658,1177.875,2123.933,1177.554,2123.952Zm-86.178-1.716a.6.6,0,0,1-.641-.577l-.348-4.646a.573.573,0,0,1,.549-.646.6.6,0,0,1,.64.579l.348,4.642A.575.575,0,0,1,1091.376,2122.236Zm85.43-7.082c-.322.017-.5-.23-.523-.551l-.373-4.394c-.027-.32.1-.591.424-.606s.495.232.522.552l.374,4.39C1177.256,2114.865,1177.127,2115.137,1176.806,2115.154Zm-86.126-2.2a.6.6,0,0,1-.64-.58l-.347-4.636a.567.567,0,0,1,.549-.64.6.6,0,0,1,.639.582l.348,4.632A.57.57,0,0,1,1090.679,2112.951Zm85.38-6.577c-.321.015-.5-.233-.522-.553l-.373-4.384c-.027-.319.1-.587.424-.6s.495.236.522.555l.373,4.381C1176.509,2106.089,1176.38,2106.358,1176.059,2106.373Zm-86.074-2.687a.606.606,0,0,1-.64-.583l-.261-3.481a7.172,7.172,0,0,1,.026-1.244.629.629,0,0,1,.714-.531.6.6,0,0,1,.523.681,6,6,0,0,0-.076,1.044l.261,3.478A.564.564,0,0,1,1089.985,2103.686Zm85.329-6.075c-.321.013-.495-.237-.522-.556l-.072-.848a6.314,6.314,0,0,0-1.2-3.03.536.536,0,1,1,.863-.627,7.338,7.338,0,0,1,1.279,3.615l.072.847C1175.764,2097.331,1175.635,2097.6,1175.314,2097.611Zm-83.5-2.618a.688.688,0,0,1-.493-.18.583.583,0,0,1-.023-.861,7.925,7.925,0,0,1,4.646-2.117.67.67,0,0,1,.73.536.591.591,0,0,1-.545.67,6.644,6.644,0,0,0-3.892,1.777A.643.643,0,0,1,1091.817,2094.993Zm78.593-4.2a.592.592,0,0,1-.213-.031,6.274,6.274,0,0,0-2.219-.321l-1.993.072a.62.62,0,0,1-.637-.559.552.552,0,0,1,.539-.6l1.993-.07a7.479,7.479,0,0,1,2.645.385.6.6,0,0,1,.4.735A.551.551,0,0,1,1170.41,2090.793Zm-8.894-.12-4.5.162a.625.625,0,0,1-.643-.562.558.558,0,0,1,.547-.6l4.495-.158a.623.623,0,0,1,.64.56A.554.554,0,0,1,1161.516,2090.674Zm-9.017.324-4.548.164a.63.63,0,0,1-.65-.565.563.563,0,0,1,.554-.608l4.548-.16a.627.627,0,0,1,.646.563A.56.56,0,0,1,1152.5,2091Zm-9.124.328-4.6.166a.634.634,0,0,1-.657-.568.569.569,0,0,1,.562-.612l4.6-.162a.632.632,0,0,1,.653.567A.566.566,0,0,1,1143.375,2091.326Zm-9.233.332-4.657.167a.64.64,0,0,1-.664-.572.575.575,0,0,1,.569-.615l4.657-.164a.637.637,0,0,1,.66.57A.572.572,0,0,1,1134.142,2091.658Zm-9.343.336-4.714.169a.645.645,0,0,1-.671-.575.581.581,0,0,1,.577-.619l4.713-.166a.642.642,0,0,1,.667.573A.578.578,0,0,1,1124.8,2091.994Zm-9.456.34-4.771.171a.65.65,0,0,1-.678-.578.587.587,0,0,1,.585-.623l4.771-.168a.647.647,0,0,1,.674.577A.584.584,0,0,1,1115.343,2092.333Zm-9.571.344-4.829.174a.655.655,0,0,1-.686-.582.594.594,0,0,1,.593-.627l4.829-.17a.652.652,0,0,1,.681.58A.59.59,0,0,1,1105.772,2092.677Z" transform="translate(-1089.068 -2089.279)" fill="#787cbf"/>
        </g>
        <path id="Path_6589" data-name="Path 6589" d="M1946.626,2313.321a1.787,1.787,0,0,0-1.647-.129l-16.952,7.252a6.285,6.285,0,0,0-3.871,6.163l.585,7.04a6.723,6.723,0,0,0,5.306,5.79l17.542,3.841a1.823,1.823,0,0,0,1.577-.393,1.789,1.789,0,0,0,.618-1.484l-2.291-26.653A1.844,1.844,0,0,0,1946.626,2313.321Z" transform="translate(-1848.409 -2289.571)" fill="#4c4f8e"/>
        <path id="Path_6590" data-name="Path 6590" d="M1979.581,2467.091a3.452,3.452,0,0,1-3.259,3.745,3.668,3.668,0,0,1-3.869-3.326,3.452,3.452,0,0,1,3.276-3.743A3.669,3.669,0,0,1,1979.581,2467.091Z" transform="translate(-1892.563 -2427.335)" fill="#ffe49f"/>
      </g>
    </g>
  </g>
</svg>
