<svg xmlns="http://www.w3.org/2000/svg" width="16.584" height="21.048" viewBox="0 0 16.584 21.048">
  <g id="smartphone" transform="translate(-52.842)">
    <path id="Path_4474" data-name="Path 4474" d="M65.3,18.861a2.187,2.187,0,0,1-2.187,2.187H55.029a2.187,2.187,0,0,1-2.187-2.187V2.187A2.187,2.187,0,0,1,55.029,0h8.081A2.187,2.187,0,0,1,65.3,2.187V18.861Z" transform="translate(0)" fill="#5f99d7"/>
    <path id="Path_4475" data-name="Path 4475" d="M56.213,18.861V2.187A2.187,2.187,0,0,1,58.4,0H55.029a2.187,2.187,0,0,0-2.187,2.187V18.861a2.187,2.187,0,0,0,2.187,2.187H58.4a2.187,2.187,0,0,1-2.187-2.187Z" transform="translate(0)" fill="#3c87d0"/>
    <path id="Path_4476" data-name="Path 4476" d="M202.38,110.778c-.045,0-.09,0-.136,0a3.686,3.686,0,0,0-2.624,1.087l-1.44,1.44-1.318.446a1.311,1.311,0,0,0-.507,2.169l.975.975a1.9,1.9,0,0,0,2.508,2.508l.975.975a1.307,1.307,0,0,0,1.568.215Z" transform="translate(-137.082 -106.096)" fill="#3c87d0"/>
    <path id="Path_4477" data-name="Path 4477" d="M92.763,47.594a.92.92,0,0,1-.92.92H83.762a.92.92,0,0,1-.92-.92V30.92a.92.92,0,0,1,.92-.92h.523a.272.272,0,0,1,.254.176l.124.332a.937.937,0,0,0,.877.608h4.523a.937.937,0,0,0,.877-.608l.124-.332A.272.272,0,0,1,91.32,30h.523a.92.92,0,0,1,.92.92Z" transform="translate(-28.733 -28.733)" fill="#dff6fd"/>
    <path id="Path_4478" data-name="Path 4478" d="M84.946,30.92c0-.006,0-.012,0-.017a.935.935,0,0,1-.283-.395l-.124-.332A.272.272,0,0,0,84.285,30h-.523a.92.92,0,0,0-.92.92V47.594a.92.92,0,0,0,.92.92h1.387a2.178,2.178,0,0,1-.2-.92Z" transform="translate(-28.733 -28.733)" fill="#c8effe"/>
    <path id="Path_4479" data-name="Path 4479" d="M201.113,124.583v-9.649a3.692,3.692,0,0,0-1.492.911l-1.44,1.44-1.318.446a1.311,1.311,0,0,0-.507,2.169l.975.975a1.9,1.9,0,0,0,2.508,2.508l.975.975A1.317,1.317,0,0,0,201.113,124.583Z" transform="translate(-137.082 -110.079)" fill="#c8effe"/>
    <g id="Group_736" data-name="Group 736" transform="translate(57.169 0.83)">
      <path id="Path_4480" data-name="Path 4480" d="M158.93,20.292H155.58a.317.317,0,0,1,0-.634h3.351a.317.317,0,0,1,0,.634Z" transform="translate(-155.263 -19.658)" fill="#3c87d0"/>
    </g>
    <path id="Path_4481" data-name="Path 4481" d="M358.513,125.322l.414-.414a.725.725,0,0,0-1.026-1.026l-.414.414-1.007.979.967,1Z" transform="translate(-290.812 -118.445)" fill="#fee97d"/>
    <g id="XMLID_282_" transform="translate(59.733 5.524)">
      <g id="Group_737" data-name="Group 737">
        <path id="Path_4482" data-name="Path 4482" d="M246.117,235.335l-.113.113a1.052,1.052,0,0,1-1.488-1.488l.113-.113.845-.875,1.432,1.244Z" transform="translate(-243.015 -228.655)" fill="#fee97d"/>
        <path id="Path_4483" data-name="Path 4483" d="M219.2,184.616l-1.394.145-1.506.51a.466.466,0,0,0-.18.771l4.457,4.457a.466.466,0,0,0,.771-.18l.509-1.505.4-1.363Z" transform="translate(-215.98 -182.342)" fill="#fee45a"/>
        <path id="Path_4484" data-name="Path 4484" d="M306.37,238.29l-.544,1.589a.492.492,0,0,1-.355.321l.814.814a.466.466,0,0,0,.771-.18l.509-1.505.4-1.363-.655-.606Z" transform="translate(-301.69 -232.856)" fill="#fedf30"/>
        <path id="Path_4485" data-name="Path 4485" d="M264.752,131.614a2.866,2.866,0,0,1,0,4.053l-1.58,1.58-.054-.054-4-4,1.58-1.58A2.865,2.865,0,0,1,264.752,131.614Z" transform="translate(-257.298 -130.775)" fill="#fee97d"/>
        <path id="Path_4486" data-name="Path 4486" d="M331.336,142.921a2.888,2.888,0,0,0-.41-.341,3,3,0,0,1-.677,3.268l-1.609,1.59L329.7,148.5l.054.054,1.58-1.58a2.866,2.866,0,0,0,0-4.053Z" transform="translate(-323.882 -142.081)" fill="#fee45a"/>
      </g>
    </g>
    <g id="Group_738" data-name="Group 738" transform="translate(58.796 4.126)">
      <path id="Path_4487" data-name="Path 4487" d="M194.115,100.326H194.1a.317.317,0,0,1-.3-.335,2.462,2.462,0,0,1,2.681-2.31.317.317,0,1,1-.056.631,1.828,1.828,0,0,0-1.992,1.717.317.317,0,0,1-.316.3Z" transform="translate(-193.798 -97.67)" fill="#fee97d"/>
    </g>
    <g id="Group_739" data-name="Group 739" transform="translate(60.059 5.392)">
      <path id="Path_4488" data-name="Path 4488" d="M224,129.176a.317.317,0,0,1-.317-.312,1.2,1.2,0,0,1,1.4-1.2.317.317,0,1,1-.1.625.565.565,0,0,0-.658.567.317.317,0,0,1-.312.322Z" transform="translate(-223.679 -127.646)" fill="#fee97d"/>
    </g>
    <g id="Group_740" data-name="Group 740" transform="translate(66.77 11.785)">
      <path id="Path_4489" data-name="Path 4489" d="M382.864,281.957a.317.317,0,0,1-.018-.633,1.828,1.828,0,0,0,1.717-1.992.317.317,0,0,1,.631-.056,2.462,2.462,0,0,1-2.31,2.681Z" transform="translate(-382.548 -278.987)" fill="#fee97d"/>
    </g>
    <g id="Group_741" data-name="Group 741" transform="translate(66.629 11.833)">
      <path id="Path_4490" data-name="Path 4490" d="M379.552,281.77h-.019a.317.317,0,0,1,.01-.634.565.565,0,0,0,.567-.658.317.317,0,0,1,.625-.1,1.2,1.2,0,0,1-1.183,1.4Z" transform="translate(-379.221 -280.109)" fill="#fee97d"/>
    </g>
  </g>
</svg>
