<svg xmlns="http://www.w3.org/2000/svg" width="50" height="50" viewBox="0 0 50 50">
  <g id="Group_1099" data-name="Group 1099" transform="translate(-283 -335)">
    <rect id="Rectangle_166" data-name="Rectangle 166" width="50" height="50" rx="15" transform="translate(283 335)" fill="#202148"/>
    <path id="exchange" d="M18,10a1,1,0,0,0-1-1H5.41l2.3-2.29A1,1,0,1,0,6.29,5.29l-4,4A1.006,1.006,0,0,0,3,11H17A1,1,0,0,0,18,10Zm3.92,3.62A1,1,0,0,0,21,13H7a1,1,0,0,0,0,2H18.59l-2.3,2.29a1,1,0,1,0,1.42,1.42l4-4A1,1,0,0,0,21.92,13.62Z" transform="translate(296 347.999)" fill="#fff"/>
  </g>
</svg>
