<svg width="230" height="70" viewBox="0 0 230 70" fill="none" xmlns="http://www.w3.org/2000/svg">
<rect width="230" height="70" rx="35" fill="#2B5AF3"/>
<path d="M50.1549 45.2941H44.2168L49.4214 20.8429H59.5163C61.9614 20.8429 63.964 21.5415 65.5243 22.9387C67.1078 24.3126 67.8995 26.0009 67.8995 28.0036C67.8995 30.8912 66.8749 33.2431 64.8256 35.0595C62.7997 36.8759 60.1799 37.7841 56.9663 37.7841H51.7617L50.1549 45.2941ZM54.2418 26.0824L52.8795 32.5445H57.6649C58.7827 32.5445 59.7375 32.1487 60.5292 31.3569C61.3443 30.5651 61.7518 29.622 61.7518 28.5276C61.7518 27.7824 61.5073 27.1885 61.0183 26.7461C60.5292 26.3036 59.8656 26.0824 59.0272 26.0824H54.2418ZM73.7206 45.2941H68.1318L73.6158 19.4457H79.2046L73.7206 45.2941ZM80.419 36.8409L82.445 27.1303H88.0338L85.833 37.5396C85.6467 38.4478 85.775 39.1813 86.2173 39.7402C86.6832 40.2758 87.3934 40.5436 88.3483 40.5436C89.2565 40.5436 90.0597 40.2641 90.7585 39.7052C91.4801 39.1463 91.9342 38.4245 92.1205 37.5396L94.3212 27.1303H99.9103L97.5699 38.2381C97.0808 40.6134 95.9397 42.4414 94.1467 43.7222C92.3769 45.003 90.1993 45.6434 87.6146 45.6434C85.0299 45.6434 83.0504 44.8167 81.6765 43.1633C80.3026 41.51 79.8834 39.4025 80.419 36.8409ZM105.878 32.0206H102.385L103.433 27.1303H106.926L107.973 22.2401L113.912 20.4936L112.515 27.1303H116.881L115.833 32.0206H111.467L110.139 38.308C109.86 39.7052 110.407 40.4038 111.781 40.4038H114.051L113.004 45.2941H111.117C108.602 45.2941 106.774 44.6071 105.633 43.2332C104.492 41.8592 104.178 39.9847 104.69 37.6094L105.878 32.0206ZM117.799 37.7142C117.799 34.7335 118.893 32.172 121.082 30.0296C123.294 27.8639 125.937 26.781 129.011 26.781C131.549 26.781 133.61 27.5029 135.194 28.9467C136.777 30.3672 137.569 32.2884 137.569 34.7102C137.569 37.6909 136.475 40.2641 134.286 42.4298C132.097 44.5722 129.477 45.6434 126.426 45.6434C123.865 45.6434 121.78 44.9331 120.174 43.5126C118.59 42.0689 117.799 40.136 117.799 37.7142ZM123.597 37.2601C123.597 38.2381 123.876 39.0299 124.435 39.6354C125.017 40.2408 125.786 40.5436 126.74 40.5436C128.115 40.5436 129.291 40.008 130.269 38.9368C131.27 37.8423 131.771 36.5848 131.771 35.1643C131.771 34.1862 131.48 33.3945 130.897 32.7891C130.338 32.1836 129.582 31.8809 128.627 31.8809C127.253 31.8809 126.065 32.4281 125.064 33.5226C124.086 34.5938 123.597 35.8396 123.597 37.2601ZM176.332 26.781C179.429 26.781 181.723 27.9221 183.213 30.2042C184.727 32.463 184.96 35.141 183.912 38.2381H170.673C170.837 39.0998 171.22 39.7634 171.826 40.2292C172.431 40.6716 173.177 40.8929 174.062 40.8929C175.831 40.8929 177.287 40.2175 178.428 38.8669L182.794 40.9627C181.863 42.3134 180.582 43.4311 178.952 44.316C177.345 45.2009 175.61 45.6434 173.747 45.6434C171.186 45.6434 169.102 44.9331 167.495 43.5126C165.911 42.0689 165.119 40.136 165.119 37.7142C165.119 34.7335 166.214 32.172 168.403 30.0296C170.615 27.8639 173.258 26.781 176.332 26.781ZM177.869 32.2651C177.287 31.7761 176.588 31.5316 175.773 31.5316C174.958 31.5316 174.155 31.7528 173.363 32.1952C172.595 32.6377 171.966 33.2548 171.477 34.0465H178.952C178.812 33.3246 178.451 32.7308 177.869 32.2651Z" fill="white"/>
<mask id="mask0_18_978" style="mask-type:luminance" maskUnits="userSpaceOnUse" x="138" y="27" width="25" height="43">
<path d="M162.283 27.4651H138.996V69.6725H162.283V27.4651Z" fill="white"/>
</mask>
<g mask="url(#mask0_18_978)">
<path d="M145.321 51.3832L142.26 46.9443C141.713 46.1511 141.455 45.1762 141.575 44.211C141.599 44.0183 141.633 43.8671 141.678 43.7992L145.822 39.8732L150.106 39.6278C150.593 39.6001 151.06 39.4392 151.465 39.1549C151.928 38.829 152.24 38.3686 152.578 37.9124C153.025 37.3077 153.458 36.6934 153.878 36.0694C154.173 35.6312 154.524 35.204 154.718 34.7034C154.759 34.5939 154.791 34.4635 154.733 34.3623C154.683 34.2777 154.582 34.2402 154.488 34.2236C154.164 34.1654 153.805 34.2208 153.478 34.2319C153.123 34.243 152.766 34.2527 152.408 34.2388C151.877 34.2194 151.345 34.1875 150.813 34.1667C149.604 34.121 148.676 34.1154 147.466 34.078C146.322 34.0405 145.091 33.9379 143.947 33.9004C141.56 33.82 139.404 29.8927 138.996 27.4687C142.421 27.4687 145.846 27.4687 149.272 27.4687C151.422 27.4687 153.57 27.4687 155.719 27.4687C156.864 27.4687 157.809 27.3952 158.89 27.8625C159.888 28.2938 160.789 28.9788 161.421 29.8914C162.647 31.6608 162.417 33.4664 161.659 35.3385C161.184 36.5117 160.655 37.6628 160.081 38.7874C159.325 40.2684 158.52 41.9922 157.361 43.1751C154.736 45.8557 151.471 45.8238 148.052 45.9972C148.974 47.3423 150.463 48.8234 150.369 50.575C150.295 51.9699 149.601 53.0295 148.896 54.1374C148.055 55.4617 147.214 56.7848 146.372 58.1091L140.254 67.7374L139.026 69.6719" fill="white"/>
<path opacity="0.54" d="M145.787 39.8751C145.787 39.8751 145.093 43.3143 148.015 45.9977L151.106 45.8118C151.106 45.8118 155.733 45.6579 157.872 42.5474L154.971 40.5639L152.094 38.5979C152.094 38.5979 151.366 39.4724 150.428 39.6061C149.223 39.6796 145.787 39.8751 145.787 39.8751Z" fill="url(#paint0_linear_18_978)"/>
<path opacity="0.62" d="M154.292 34.1979C154.292 34.1979 160.31 33.7291 161.177 36.4819C161.177 36.4819 159.03 41.2231 157.908 42.5475C156.461 41.6555 152.131 38.5981 152.131 38.5981C152.131 38.5981 154.325 35.611 154.773 34.5626C154.851 34.3823 154.512 34.1909 154.292 34.1979Z" fill="url(#paint1_linear_18_978)"/>
</g>
<defs>
<linearGradient id="paint0_linear_18_978" x1="148.904" y1="46.5066" x2="153.229" y2="39.2531" gradientUnits="userSpaceOnUse">
<stop/>
<stop offset="0.24" stop-color="#121619"/>
<stop offset="0.5" stop-color="#23282F"/>
<stop offset="0.76" stop-color="#2C343C"/>
<stop offset="1" stop-color="#303841"/>
</linearGradient>
<linearGradient id="paint1_linear_18_978" x1="158.497" y1="34.2117" x2="154.336" y2="41.1896" gradientUnits="userSpaceOnUse">
<stop/>
<stop offset="0.04" stop-color="#020304"/>
<stop offset="0.44" stop-color="#1B2025"/>
<stop offset="0.78" stop-color="#2A3139"/>
<stop offset="1" stop-color="#303841"/>
</linearGradient>
</defs>
</svg>
