<svg xmlns="http://www.w3.org/2000/svg" width="40" height="40" viewBox="0 0 40 40">
  <g id="Group_9416" data-name="Group 9416" transform="translate(-315 -50)">
    <rect id="Rectangle_4" data-name="Rectangle 4" width="40" height="40" rx="10" transform="translate(315 50)" fill="#202148"/>
    <path id="cross-small" d="M18,6h0a1,1,0,0,0-1.414,0L12,10.586,7.414,6A1,1,0,0,0,6,6H6A1,1,0,0,0,6,7.414L10.586,12,6,16.586A1,1,0,0,0,6,18H6a1,1,0,0,0,1.414,0L12,13.414,16.586,18A1,1,0,0,0,18,18h0a1,1,0,0,0,0-1.414L13.414,12,18,7.414A1,1,0,0,0,18,6Z" transform="translate(323.293 58.293)" fill="#fff"/>
  </g>
</svg>
