<svg id="apple_1_" data-name="apple (1)" xmlns="http://www.w3.org/2000/svg" width="20" height="20" viewBox="0 0 20 20">
  <path id="Path_12246" data-name="Path 12246" d="M15.9,20H4.1A4.106,4.106,0,0,1,0,15.9V4.1A4.106,4.106,0,0,1,4.1,0H15.9A4.106,4.106,0,0,1,20,4.1V15.9A4.106,4.106,0,0,1,15.9,20Z" fill="#f2f2f2"/>
  <path id="Path_12247" data-name="Path 12247" d="M261.9,0H256V20h5.9a4.106,4.106,0,0,0,4.1-4.1V4.1A4.106,4.106,0,0,0,261.9,0Z" transform="translate(-246)" fill="#e5e5e5"/>
  <path id="Path_12248" data-name="Path 12248" d="M87.719,149.516a3.516,3.516,0,0,0-6.538-1.8,1.757,1.757,0,0,0-3.027,1.077,2.734,2.734,0,0,0,.58,5.406h8.984a2.344,2.344,0,0,0,0-4.687Z" transform="translate(-73.031 -140.297)" fill="#00c3ff"/>
  <path id="Path_12249" data-name="Path 12249" d="M260.688,149.516A3.517,3.517,0,0,0,256,146.2v8h4.688a2.344,2.344,0,0,0,0-4.687Z" transform="translate(-246 -140.297)" fill="#00aaf0"/>
</svg>
