<svg xmlns="http://www.w3.org/2000/svg" width="50" height="50" viewBox="0 0 50 50">
  <g id="Group_1109" data-name="Group 1109" transform="translate(-243 -675)">
    <rect id="Rectangle_165" data-name="Rectangle 165" width="50" height="50" rx="15" transform="translate(243 675)" fill="#202148"/>
    <path id="share" d="M14.494,11a3.5,3.5,0,0,0-2.879,1.518l-4.882-2.2a3.431,3.431,0,0,0,0-2.616l4.875-2.216a3.5,3.5,0,1,0-.62-1.982,3.475,3.475,0,0,0,.06.59L5.868,6.445a3.5,3.5,0,1,0-.011,5.12l5.2,2.346a3.552,3.552,0,0,0-.059.589,3.5,3.5,0,1,0,3.5-3.5Zm0-9.5a2,2,0,1,1-2,2,2,2,0,0,1,2-2Zm-11,9.5a2,2,0,1,1,2-2,2,2,0,0,1-2,2Zm11,5.5a2,2,0,1,1,2-2A2,2,0,0,1,14.494,16.5Z" transform="translate(259.03 691)" fill="#fff"/>
  </g>
</svg>
