<svg width="50" height="50" viewBox="0 0 50 50" fill="none" xmlns="http://www.w3.org/2000/svg">
<circle cx="25" cy="25" r="25" fill="black" fill-opacity="0.04"/>
<path d="M29.9605 29.1435C28.8106 29.1435 27.7745 29.64 27.0555 30.43L20.5881 26.4244C20.7656 25.9705 20.8567 25.4874 20.8565 25C20.8567 24.5126 20.7657 24.0295 20.5881 23.5756L27.0555 19.5698C27.7746 20.3597 28.8106 20.8565 29.9605 20.8565C32.1266 20.8565 33.8888 19.0943 33.8888 16.9282C33.8888 14.762 32.1266 13 29.9605 13C27.7944 13 26.0322 14.7622 26.0322 16.9284C26.0321 17.4157 26.1231 17.8988 26.3006 18.3527L19.8333 22.3583C19.1142 21.5684 18.0782 21.0716 16.9284 21.0716C14.7622 21.0716 13 22.834 13 25C13 27.1661 14.7622 28.9283 16.9284 28.9283C18.0782 28.9283 19.1143 28.4317 19.8333 27.6416L26.3006 31.6473C26.1231 32.1012 26.0321 32.5844 26.0322 33.0718C26.0322 35.2377 27.7943 37 29.9605 37C32.1266 37 33.8888 35.2377 33.8888 33.0718C33.8888 30.9057 32.1266 29.1435 29.9605 29.1435ZM27.4646 16.9284C27.4646 15.5521 28.5843 14.4325 29.9605 14.4325C31.3367 14.4325 32.4564 15.5521 32.4564 16.9284C32.4564 18.3046 31.3367 19.4243 29.9605 19.4243C28.5842 19.4243 27.4646 18.3046 27.4646 16.9284ZM16.9284 27.4959C15.5519 27.4959 14.4323 26.3762 14.4323 25C14.4323 23.6238 15.5519 22.5041 16.9284 22.5041C18.3046 22.5041 19.4241 23.6238 19.4241 25C19.4241 26.3762 18.3046 27.4959 16.9284 27.4959ZM27.4646 33.0716C27.4646 31.6954 28.5843 30.5757 29.9605 30.5757C31.3367 30.5757 32.4564 31.6954 32.4564 33.0716C32.4564 34.4478 31.3367 35.5675 29.9605 35.5675C28.5842 35.5675 27.4646 34.4478 27.4646 33.0716V33.0716Z" fill="black"/>
</svg>
