<svg xmlns="http://www.w3.org/2000/svg" width="20" height="20" viewBox="0 0 20 20">
  <path id="globe" d="M10,0A10,10,0,1,0,20,10,10,10,0,0,0,10,0Zm7.214,5.833H14.526a16.4,16.4,0,0,0-2.359-3.882,8.367,8.367,0,0,1,5.047,3.882ZM13.75,10a8.508,8.508,0,0,1-.394,2.5H6.644A8.508,8.508,0,0,1,6.25,10a8.508,8.508,0,0,1,.394-2.5h6.712A8.507,8.507,0,0,1,13.75,10ZM7.312,14.167h5.377A16.3,16.3,0,0,1,10,17.99a16.3,16.3,0,0,1-2.688-3.823Zm0-8.333A16.3,16.3,0,0,1,10,2.01a16.3,16.3,0,0,1,2.688,3.823Zm.522-3.882A16.417,16.417,0,0,0,5.474,5.833H2.786A8.367,8.367,0,0,1,7.833,1.952ZM2.05,7.5H4.91a9.73,9.73,0,0,0,0,5H2.05a8.344,8.344,0,0,1,0-5Zm.736,6.667H5.474a16.4,16.4,0,0,0,2.359,3.882,8.367,8.367,0,0,1-5.048-3.882Zm9.381,3.882a16.417,16.417,0,0,0,2.359-3.882h2.688a8.367,8.367,0,0,1-5.047,3.882ZM17.95,12.5H15.09a9.73,9.73,0,0,0,0-5h2.86A8.344,8.344,0,0,1,17.95,12.5Z" fill="#00c6fb"/>
</svg>
