<svg xmlns="http://www.w3.org/2000/svg" width="50" height="50" viewBox="0 0 50 50">
  <g id="Group_1082" data-name="Group 1082" transform="translate(-43 -375)">
    <rect id="Rectangle_163" data-name="Rectangle 163" width="50" height="50" rx="15" transform="translate(43 375)" fill="#202148"/>
    <path id="wire-transfer" d="M8.262,18.779a.7.7,0,0,1-.7.7h-2.8A3.51,3.51,0,0,1,1.25,15.974V6.626A3.51,3.51,0,0,1,4.756,3.12H9.607l-.673-.673a.7.7,0,0,1,.991-.991l1.87,1.87a.7.7,0,0,1-.5,1.2H4.756a2.106,2.106,0,0,0-2.1,2.1v9.349a2.106,2.106,0,0,0,2.1,2.1h2.8a.7.7,0,0,1,.7.7ZM17.844,3.12h-2.8a.7.7,0,0,0,0,1.4h2.8a2.106,2.106,0,0,1,2.1,2.1v9.349a2.106,2.106,0,0,1-2.1,2.1H11.3a.7.7,0,0,0-.5,1.2l1.87,1.87a.7.7,0,0,0,.992-.991l-.673-.673h4.852a3.51,3.51,0,0,0,3.506-3.506V6.626A3.51,3.51,0,0,0,17.844,3.12ZM11.3,16.676a.7.7,0,0,0,.7-.7v-.584a2.259,2.259,0,0,0,.589-4.4l-2.137-.712A.861.861,0,0,1,10.726,8.6h.93a1.161,1.161,0,0,1,1.1.8.7.7,0,0,0,1.331-.444A2.56,2.56,0,0,0,12,7.227v-.6a.7.7,0,0,0-1.4,0v.584a2.259,2.259,0,0,0-.589,4.4l2.137.712A.861.861,0,0,1,11.874,14h-.93a1.162,1.162,0,0,1-1.1-.8.7.7,0,0,0-1.33.444A2.559,2.559,0,0,0,10.6,15.373v.6a.7.7,0,0,0,.7.7Z" transform="translate(56.75 388.75)" fill="#fff"/>
  </g>
</svg>
