<svg xmlns="http://www.w3.org/2000/svg" width="24.293" height="22.087" viewBox="0 0 24.293 22.087">
  <g id="Layer_x0020_1" transform="translate(0 -0.078)">
    <path id="Path_4369" data-name="Path 4369" d="M20.256,22.165c-.066,0-.132,0-.2,0H4.236A4.048,4.048,0,0,1,.543,20.123a3.981,3.981,0,0,1,0-4.021L8.634,2.1a4.066,4.066,0,0,1,7.026,0L23.746,16.1a3.98,3.98,0,0,1,0,4.021,4.06,4.06,0,0,1-3.495,2.042Z" transform="translate(0 0)" fill="#fcbe37" fill-rule="evenodd"/>
    <path id="Path_4370" data-name="Path 4370" d="M4.621,15.144H1.814a.664.664,0,0,1-.664-.664V12.156a.664.664,0,0,1,.664-.664H4.621a.664.664,0,0,1,.664.664V14.48a.664.664,0,0,1-.664.664Zm0-4.547H1.814a.664.664,0,0,1-.663-.629L.676,1.119a.665.665,0,0,1,.663-.7H5.1a.665.665,0,0,1,.663.7L5.285,9.968a.665.665,0,0,1-.664.629Z" transform="translate(8.929 4.525)" fill="#fcab32" fill-rule="evenodd"/>
    <g id="_341080944" transform="translate(9.984 5.324)">
      <path id="_341078568" d="M3.827,4.117a.285.285,0,0,0,.285-.285V1.509a.285.285,0,0,0-.285-.285H1.019a.285.285,0,0,0-.285.285V3.832a.285.285,0,0,0,.285.285H3.827Z" transform="translate(-0.26 9.848)" fill="#fbfbfb" fill-rule="evenodd"/>
      <path id="_341074752" d="M4.268,9.864a.285.285,0,0,0,.284-.27L5.027.746a.285.285,0,0,0-.284-.3H.986A.285.285,0,0,0,.7.746l.475,8.848a.285.285,0,0,0,.284.27H4.268Z" transform="translate(-0.701 -0.446)" fill="#fbfbfb" fill-rule="evenodd"/>
    </g>
  </g>
</svg>
