<svg xmlns="http://www.w3.org/2000/svg" xmlns:xlink="http://www.w3.org/1999/xlink" width="20.384" height="20.384" viewBox="0 0 20.384 20.384">
  <defs>
    <clipPath id="clip-path">
      <path id="path2031" d="M0-682.665H20.384v20.384H0Z" transform="translate(0 682.665)"/>
    </clipPath>
  </defs>
  <g id="g2025" transform="translate(0 682.665)">
    <g id="g2027" transform="translate(0 -682.665)">
      <g id="g2029" clip-path="url(#clip-path)">
        <g id="g2035" transform="translate(0.152 0)">
          <path id="path2037" d="M0-104.327a3.211,3.211,0,0,1,3.258-3.211,3.221,3.221,0,0,1,3.164,3.19,3.2,3.2,0,0,1-1.1,2.441.139.139,0,0,0,.021.225l.605.358a.112.112,0,0,1-.057.208H3.15A3.211,3.211,0,0,1,0-104.327" transform="translate(0 107.538)" fill="#7acaa6"/>
        </g>
        <g id="g2039" transform="translate(2.753 0)">
          <path id="path2041" d="M-108.708-201.9l-.605-.358a.139.139,0,0,1-.021-.224,3.2,3.2,0,0,0,1.1-2.473,3.222,3.222,0,0,0-3.115-3.158,3.234,3.234,0,0,0-.706.057,3.223,3.223,0,0,1,2.609,3.132,3.2,3.2,0,0,1-.675,1.99.693.693,0,0,0,.187,1.026l.013.007a.112.112,0,0,1-.053.208h1.209a.112.112,0,0,0,.057-.208" transform="translate(112.054 208.114)" fill="#57be92"/>
        </g>
        <g id="g2043" transform="translate(6.361 0)">
          <path id="path2045" d="M-306.6-378.684h-7.284a2.148,2.148,0,0,1-1.653-3.52l.065-.078a3.436,3.436,0,0,0,.792-2.195v-1.4a4.458,4.458,0,0,1,4.458-4.458,4.458,4.458,0,0,1,4.458,4.458v1.452a3.436,3.436,0,0,0,.808,2.213,2.148,2.148,0,0,1-1.643,3.532" transform="translate(316.034 390.339)" fill="#c59191"/>
        </g>
        <g id="g2047" transform="translate(4.684 9.562)">
          <path id="path2049" d="M-485.482-185.309v4.816h-14.942v-4.78a2.689,2.689,0,0,1,1.645-2.478l2.412-1.049.812-.353a1.688,1.688,0,0,0,1.015-1.548v-.312h3.173v.3a1.688,1.688,0,0,0,1.023,1.551l3.263,1.4a2.688,2.688,0,0,1,1.6,2.458" transform="translate(500.424 191.013)" fill="#fff"/>
        </g>
        <g id="g2051" transform="translate(8.584 9.562)">
          <path id="path2053" d="M-5.12-109.195a11.566,11.566,0,0,0,3.512.483,11.564,11.564,0,0,0,3.315-.547L2.1-110.2l-1.2-.513A1.688,1.688,0,0,1-.12-112.26v-.3H-3.292v.312A1.688,1.688,0,0,1-4.307-110.7l-.97.422Z" transform="translate(5.277 112.556)" fill="#ffcebf"/>
        </g>
        <g id="g2055" transform="translate(15.569 11.754)">
          <path id="path2057" d="M-79.864-34.225l-2.458-1.053h0v8.327h4.058v-4.816a2.689,2.689,0,0,0-1.6-2.458" transform="translate(82.322 35.279)" fill="#8795de"/>
        </g>
        <g id="g2059" transform="translate(4.684 11.775)">
          <path id="path2061" d="M-131.835,0V8.307h-4.058V3.527a2.689,2.689,0,0,1,1.645-2.478Z" transform="translate(135.893)" fill="#8795de"/>
        </g>
        <g id="g2063" transform="translate(10.421 9.562)">
          <path id="path2065" d="M-92.073-56.577a2.669,2.669,0,0,0,1.03-.206,1.687,1.687,0,0,1-.543-1.24v-.3h-3.173v.312a1.685,1.685,0,0,1-.148.69,2.667,2.667,0,0,0,1.846.74Z" transform="translate(94.906 58.319)" fill="#ffb09e"/>
        </g>
        <g id="g2067" transform="translate(8.984 3.047)">
          <path id="path2069" d="M-206.051-56.589v2.625a2.677,2.677,0,0,1-2.677,2.677h-.987a2.677,2.677,0,0,1-2.677-2.677v-2.625a1.742,1.742,0,0,1,1.742-1.742h2.859a1.742,1.742,0,0,1,1.742,1.742" transform="translate(212.393 58.331)" fill="#ffcebf"/>
        </g>
        <g id="g2071" transform="translate(13.163 6.155)">
          <path id="path2073" d="M-70.293,0l0,.011a2.825,2.825,0,0,1-.965,1.439,2.7,2.7,0,0,1-.969.473.3.3,0,0,0-.216.37.3.3,0,0,0,.293.226.3.3,0,0,0,.077-.01,3.3,3.3,0,0,0,1.185-.58,3.242,3.242,0,0,0,.6-.6c0-.023,0-.047,0-.071Z" transform="translate(72.457)" fill="#7a6d79"/>
        </g>
        <g id="g2075" transform="translate(11.761 7.745)">
          <path id="path2077" d="M-42.088-38.031h-.71a.585.585,0,0,1-.585-.585A.585.585,0,0,1-42.8-39.2h.71a.585.585,0,0,1,.585.585.585.585,0,0,1-.585.585" transform="translate(43.384 39.201)" fill="#685e68"/>
        </g>
        <g id="g2079" transform="translate(12.783 0.631)">
          <path id="path2081" d="M-.148-55.93c.068-.858.889-1.427,1.675-1.721A4.456,4.456,0,0,1,3.7-53.825v.306c-.072.015-.143.028-.214.039a3.608,3.608,0,0,1-1.053,0A2.679,2.679,0,0,1-.148-55.93" transform="translate(0.152 57.652)" fill="#b98080"/>
        </g>
        <g id="g2083" transform="translate(7.717)">
          <path id="path2085" d="M-144.84,0h0a4.438,4.438,0,0,1,2.682.9,7.951,7.951,0,0,1-2.83,2.877,7.889,7.889,0,0,1-3,1.03H-149.3V4.458A4.458,4.458,0,0,1-144.84,0" transform="translate(149.298)" fill="#c59191"/>
        </g>
        <g id="g2087" transform="translate(6.919 14.364)">
          <path id="path2089" d="M-332.667-185.754h-9.7l-.535-5.047a.606.606,0,0,1,.6-.67h9.565a.606.606,0,0,1,.6.67Z" transform="translate(342.906 191.472)" fill="#efedef"/>
        </g>
        <g id="g2091" transform="translate(15.878 14.364)">
          <path id="path2093" d="M-39.382,0h-1.212a.606.606,0,0,1,.6.67l-.535,5.047h1.212L-38.78.67a.606.606,0,0,0-.6-.67" transform="translate(40.595)" fill="#e5e1e5"/>
        </g>
        <g id="g2095" transform="translate(0 19.787)">
          <path id="path2097" d="M-652.58-19.4h-19.787a.3.3,0,0,1-.3-.3.3.3,0,0,1,.3-.3h19.787a.3.3,0,0,1,.3.3.3.3,0,0,1-.3.3" transform="translate(672.665 20)" fill="#c9bfc8"/>
        </g>
        <g id="g2099" transform="translate(11.459 16.374)">
          <path id="path2101" d="M-55.135-27.567a.848.848,0,0,1-.848.848.848.848,0,0,1-.848-.848.848.848,0,0,1,.848-.848.848.848,0,0,1,.848.848" transform="translate(56.832 28.416)" fill="#c9bfc8"/>
        </g>
        <g id="g2103" transform="translate(1.847 2.908)">
          <path id="path2105" d="M-19.691-9.846a.3.3,0,0,1-.3.3.3.3,0,0,1-.3-.3.3.3,0,0,1,.3-.3.3.3,0,0,1,.3.3" transform="translate(20.297 10.149)" fill="#fff"/>
        </g>
        <g id="g2107" transform="translate(3.06 2.908)">
          <path id="path2109" d="M-19.691-9.846a.3.3,0,0,1-.3.3.3.3,0,0,1-.3-.3.3.3,0,0,1,.3-.3.3.3,0,0,1,.3.3" transform="translate(20.297 10.149)" fill="#fff"/>
        </g>
        <g id="g2111" transform="translate(4.272 2.908)">
          <path id="path2113" d="M-19.693-9.846a.3.3,0,0,1-.3.3.3.3,0,0,1-.3-.3.3.3,0,0,1,.3-.3.3.3,0,0,1,.3.3" transform="translate(20.299 10.149)" fill="#fff"/>
        </g>
      </g>
    </g>
  </g>
</svg>
