<svg width="44" height="44" viewBox="0 0 44 44" fill="none" xmlns="http://www.w3.org/2000/svg">
<rect x="0.610229" y="0.195312" width="43.0438" height="43.0438" rx="21.5219" fill="#38FF8E"/>
<path d="M19.675 23.4242C19.675 24.3063 20.3571 25.0156 21.1937 25.0156H22.9032C23.6307 25.0156 24.2217 24.3972 24.2217 23.6243C24.2217 22.7968 23.858 22.4967 23.3215 22.3057L20.5844 21.3509C20.0479 21.16 19.6842 20.869 19.6842 20.0324C19.6842 19.2686 20.2752 18.6411 21.0027 18.6411H22.7122C23.5488 18.6411 24.2308 19.3504 24.2308 20.2325" stroke="#292D32" stroke-width="1.09121" stroke-linecap="round" stroke-linejoin="round"/>
<path d="M21.9485 17.741V25.925" stroke="#292D32" stroke-width="1.09121" stroke-linecap="round" stroke-linejoin="round"/>
<path d="M31.0419 21.8329C31.0419 26.8524 26.968 30.9263 21.9485 30.9263C16.9289 30.9263 12.8551 26.8524 12.8551 21.8329C12.8551 16.8133 16.9289 12.7395 21.9485 12.7395" stroke="#292D32" stroke-width="1.09121" stroke-linecap="round" stroke-linejoin="round"/>
<path d="M31.0418 16.3769V12.7395H27.4044" stroke="#292D32" stroke-width="1.09121" stroke-linecap="round" stroke-linejoin="round"/>
<path d="M26.4951 17.2862L31.0418 12.7395" stroke="#292D32" stroke-width="1.09121" stroke-linecap="round" stroke-linejoin="round"/>
</svg>
