<svg width="40" height="40" viewBox="0 0 40 40" fill="none" xmlns="http://www.w3.org/2000/svg">
<rect width="40" height="40" rx="10" fill="black" fill-opacity="0.04"/>
<path d="M20 14.4399V17.7699" stroke="#292D32" stroke-width="1.5" stroke-miterlimit="10" stroke-linecap="round"/>
<path d="M20.0209 10C16.3409 10 13.3609 12.98 13.3609 16.66V18.76C13.3609 19.44 13.0809 20.46 12.7309 21.04L11.4609 23.16C10.6809 24.47 11.2209 25.93 12.6609 26.41C17.4409 28 22.6109 28 27.3909 26.41C28.7409 25.96 29.3209 24.38 28.5909 23.16L27.3209 21.04C26.9709 20.46 26.6909 19.43 26.6909 18.76V16.66C26.6809 13 23.6809 10 20.0209 10Z" stroke="#292D32" stroke-width="1.5" stroke-miterlimit="10" stroke-linecap="round"/>
<path d="M23.3299 26.8199C23.3299 28.6499 21.8299 30.1499 19.9999 30.1499C19.0899 30.1499 18.2499 29.7699 17.6499 29.1699C17.0499 28.5699 16.6699 27.7299 16.6699 26.8199" stroke="#292D32" stroke-width="1.5" stroke-miterlimit="10"/>
</svg>
