<svg width="45" height="45" viewBox="0 0 45 45" fill="none" xmlns="http://www.w3.org/2000/svg">
<rect y="0.203735" width="44.3106" height="44.3106" rx="22.1553" fill="#38FF8E"/>
<path d="M17.7842 24.5079C17.7842 26.0409 18.9607 27.2768 20.4224 27.2768H23.4053C24.6768 27.2768 25.7107 26.1954 25.7107 24.8644C25.7107 23.4146 25.0809 22.9036 24.1421 22.5708L19.3529 20.9071C18.414 20.5743 17.7842 20.0633 17.7842 18.6135C17.7842 17.2825 18.8181 16.201 20.0897 16.201H23.0725C24.5342 16.201 25.7107 17.437 25.7107 18.97" stroke="#292D32" stroke-width="0.94422" stroke-linecap="round" stroke-linejoin="round"/>
<path d="M21.7393 14.6089V28.8696" stroke="#292D32" stroke-width="0.94422" stroke-linecap="round" stroke-linejoin="round"/>
<path d="M21.7394 33.6231C28.3027 33.6231 33.6233 28.3025 33.6233 21.7392C33.6233 15.1759 28.3027 9.85535 21.7394 9.85535C15.1761 9.85535 9.85547 15.1759 9.85547 21.7392C9.85547 28.3025 15.1761 33.6231 21.7394 33.6231Z" stroke="#292D32" stroke-width="0.94422" stroke-linecap="round" stroke-linejoin="round"/>
</svg>
