<svg width="40" height="40" viewBox="0 0 40 40" fill="none" xmlns="http://www.w3.org/2000/svg">
<rect width="40" height="40" rx="10" fill="black" fill-opacity="0.04"/>
<path d="M9.20856 26.0275C9.12123 26.1066 9.05081 26.2026 9.00153 26.3096C8.95226 26.4167 8.92515 26.5326 8.92184 26.6503C8.91854 26.7681 8.9391 26.8854 8.98229 26.995C9.02548 27.1046 9.09041 27.2044 9.17317 27.2883L12.1777 30.2928C12.2616 30.3756 12.3613 30.4405 12.471 30.4837C12.5806 30.5269 12.6979 30.5475 12.8156 30.5442C12.9334 30.5409 13.0493 30.5138 13.1564 30.4645C13.2634 30.4152 13.3594 30.3448 13.4385 30.2574C15.3394 31.3977 17.5144 32 19.7311 32C21.9478 32 24.1229 31.3977 26.0238 30.2574C26.1029 30.3448 26.1989 30.4152 26.3059 30.4645C26.4129 30.5138 26.5288 30.5409 26.6466 30.5442C26.7644 30.5475 26.8817 30.5269 26.9913 30.4837C27.1009 30.4405 27.2007 30.3756 27.2845 30.2928L30.2891 27.2883C30.3718 27.2044 30.4368 27.1046 30.48 26.995C30.5231 26.8854 30.5437 26.7681 30.5404 26.6503C30.5371 26.5326 30.51 26.4167 30.4607 26.3096C30.4114 26.2026 30.341 26.1066 30.2537 26.0275C31.3904 24.1253 31.9906 21.9508 31.9906 19.7348C31.9906 17.5189 31.3904 15.3444 30.2537 13.4422C30.341 13.3631 30.4115 13.2671 30.4607 13.1601C30.51 13.053 30.5371 12.9371 30.5404 12.8193C30.5437 12.7016 30.5232 12.5843 30.48 12.4747C30.4368 12.3651 30.3718 12.2653 30.2891 12.1814L27.2845 9.17688C27.2008 9.09377 27.1011 9.02853 26.9915 8.98512C26.8818 8.94171 26.7645 8.92104 26.6466 8.92435C26.5287 8.92766 26.4127 8.95489 26.3056 9.00439C26.1986 9.05389 26.1027 9.12462 26.0238 9.2123C24.1216 8.07574 21.947 7.47559 19.7311 7.47559C17.5152 7.47559 15.3407 8.07574 13.4384 9.2123C13.3595 9.12466 13.2636 9.05395 13.1566 9.00448C13.0495 8.955 12.9335 8.92778 12.8157 8.92448C12.6978 8.92117 12.5804 8.94183 12.4708 8.98523C12.3611 9.02862 12.2614 9.09383 12.1777 9.17691L9.17316 12.1814C9.0904 12.2653 9.02548 12.3651 8.98229 12.4747C8.9391 12.5843 8.91854 12.7016 8.92185 12.8194C8.92516 12.9371 8.95226 13.053 9.00153 13.1601C9.0508 13.2671 9.12122 13.3631 9.20855 13.4422C8.07189 15.3444 7.47168 17.5189 7.47168 19.7349C7.47168 21.9508 8.07189 24.1253 9.20856 26.0275ZM12.3441 16.2235C11.822 17.3205 11.5512 18.52 11.5512 19.7349C11.5512 20.9497 11.822 22.1492 12.3441 23.2462L9.87546 25.4355C8.87398 23.7026 8.34669 21.7364 8.34669 19.7348C8.34669 17.7333 8.87398 15.7671 9.87546 14.0342L12.3441 16.2235ZM16.2651 13.6295C16.3861 13.5082 16.4682 13.3536 16.5009 13.1854C17.5054 12.6891 18.6108 12.431 19.7311 12.431C20.8515 12.431 21.9568 12.6891 22.9613 13.1854C22.9941 13.3535 23.0762 13.5081 23.1971 13.6295L25.8365 16.2689C25.9578 16.3902 26.1126 16.4726 26.281 16.5056C26.777 17.51 27.0349 18.6152 27.0348 19.7354C27.0347 20.8556 26.7766 21.9607 26.2806 22.9651C26.1124 22.9978 25.9578 23.0799 25.8365 23.2008L23.1971 25.8402C23.0761 25.9615 22.994 26.1161 22.9613 26.2843C21.9568 26.7805 20.8515 27.0387 19.7311 27.0387C18.6108 27.0387 17.5054 26.7805 16.5009 26.2843C16.4682 26.1161 16.3861 25.9615 16.2651 25.8402L13.6258 23.2008C13.5044 23.0798 13.3498 22.9976 13.1816 22.9648C12.6856 21.9605 12.4275 20.8554 12.4275 19.7352C12.4274 18.6151 12.6853 17.51 13.1812 16.5056C13.3496 16.4726 13.5044 16.3902 13.6258 16.2689L16.2651 13.6295ZM12.7972 29.6733L9.79246 26.6803L13.0114 23.8255L15.6454 26.449C15.6454 26.449 12.7983 29.6706 12.7972 29.6733ZM14.0305 29.5905L16.2198 27.122C17.3163 27.6456 18.516 27.9174 19.7311 27.9174C20.9463 27.9173 22.146 27.6456 23.2425 27.1219L25.4318 29.5905C23.6988 30.5919 21.7326 31.1191 19.7311 31.1191C17.7296 31.1191 15.7634 30.5919 14.0305 29.5905ZM26.6766 29.6735L23.8218 26.4546L26.4453 23.8206C26.4453 23.8206 29.6664 26.6673 29.6696 26.6688L26.6766 29.6735ZM29.5868 25.4355L27.1182 23.2462C27.6402 22.1492 27.9111 20.9497 27.9111 19.7348C27.9111 18.52 27.6402 17.3205 27.1182 16.2235L29.5868 14.0342C30.5883 15.7671 31.1155 17.7333 31.1156 19.7348C31.1156 21.7364 30.5883 23.7026 29.5868 25.4355ZM26.665 9.79642L29.6698 12.7894L26.4509 15.6442L23.8168 13.0207C23.9273 12.8919 26.6559 9.81043 26.665 9.79642ZM25.4318 9.87922L23.2424 12.3478C22.1455 11.8256 20.9459 11.5547 19.7311 11.5547C18.5162 11.5547 17.3167 11.8257 16.2197 12.3478L14.0305 9.87922C15.7634 8.87783 17.7296 8.35061 19.7311 8.35061C21.7326 8.35061 23.6988 8.87783 25.4318 9.87922ZM12.7857 9.79619L15.6405 13.0151L13.0169 15.6491L9.79268 12.8009L12.7857 9.79619Z" fill="black"/>
</svg>
