<svg xmlns="http://www.w3.org/2000/svg" width="14.4" height="12.601" viewBox="0 0 14.4 12.601">
  <path id="triangle-warning" d="M8.1,6.7v3a.9.9,0,0,1-1.8,0v-3a.9.9,0,0,1,1.8,0Zm-.9,5.1a.9.9,0,1,0,.9.9A.9.9,0,0,0,7.2,11.8Zm6.63-2.514L9.189,2.038a2.417,2.417,0,0,0-3.99.03L.6,9.256a2.863,2.863,0,0,0-.312,2.952A2.767,2.767,0,0,0,2.877,13.6H3.909a.9.9,0,1,0,0-1.8H2.877a1.105,1.105,0,0,1-1-.426,1.128,1.128,0,0,1,.21-1.122l4.6-7.188A.616.616,0,0,1,7.2,2.8a.606.606,0,0,1,.492.234l4.644,7.248a1.1,1.1,0,0,1,.192,1.092c-.192.372-.708.426-1,.426H10.5a.9.9,0,1,0,0,1.8h1.032a2.785,2.785,0,0,0,2.592-1.392,2.851,2.851,0,0,0-.288-2.922Z" transform="translate(-0.006 -1)" fill="#ffd23d"/>
</svg>
