<svg width="22" height="22" viewBox="0 0 22 22" fill="none" xmlns="http://www.w3.org/2000/svg">
<path d="M5.5 9.16659V7.33325C5.5 4.29909 6.41667 1.83325 11 1.83325C15.5833 1.83325 16.5 4.29909 16.5 7.33325V9.16659" stroke="black" stroke-opacity="0.5" stroke-width="1.5" stroke-linecap="round" stroke-linejoin="round"/>
<path d="M10.9997 16.9583C12.2653 16.9583 13.2913 15.9323 13.2913 14.6667C13.2913 13.401 12.2653 12.375 10.9997 12.375C9.73402 12.375 8.70801 13.401 8.70801 14.6667C8.70801 15.9323 9.73402 16.9583 10.9997 16.9583Z" stroke="black" stroke-opacity="0.5" stroke-width="1.5" stroke-linecap="round" stroke-linejoin="round"/>
<path d="M15.583 20.1667H6.41634C2.74967 20.1667 1.83301 19.2501 1.83301 15.5834V13.7501C1.83301 10.0834 2.74967 9.16675 6.41634 9.16675H15.583C19.2497 9.16675 20.1663 10.0834 20.1663 13.7501V15.5834C20.1663 19.2501 19.2497 20.1667 15.583 20.1667Z" stroke="black" stroke-opacity="0.5" stroke-width="1.5" stroke-linecap="round" stroke-linejoin="round"/>
</svg>
