<svg xmlns="http://www.w3.org/2000/svg" width="23" height="23" viewBox="0 0 23 23">
  <g id="Group_1095" data-name="Group 1095" transform="translate(-326 -335)">
    <circle id="Ellipse_11" data-name="Ellipse 11" cx="11.5" cy="11.5" r="11.5" transform="translate(326 335)" fill="#fff" opacity="0.25"/>
    <path id="Path_4491" data-name="Path 4491" d="M14.951,7.963a.874.874,0,0,0-1.235,0l-2.259,2.259L9.2,7.963A.873.873,0,1,0,7.963,9.2l2.259,2.259L7.963,13.716A.873.873,0,1,0,9.2,14.951l2.259-2.259,2.259,2.259a.873.873,0,1,0,1.235-1.235l-2.259-2.259L14.951,9.2A.874.874,0,0,0,14.951,7.963Z" transform="translate(326.293 335.293)" fill="#fff"/>
  </g>
</svg>
