<svg width="30" height="30" viewBox="0 0 30 30" fill="none" xmlns="http://www.w3.org/2000/svg">
<g clip-path="url(#clip0_558_3389)">
<path d="M0 0H30V10.002H0V0Z" fill="#FF9933"/>
<path d="M0 10.002H30V19.998H0V10.002Z" fill="white"/>
<path d="M0 19.998H30V30H0V19.998Z" fill="#128807"/>
<path d="M15 19C17.2091 19 19 17.2091 19 15C19 12.7909 17.2091 11 15 11C12.7909 11 11 12.7909 11 15C11 17.2091 12.7909 19 15 19Z" fill="#000088"/>
<path d="M15 18.5C16.933 18.5 18.5 16.933 18.5 15C18.5 13.067 16.933 11.5 15 11.5C13.067 11.5 11.5 13.067 11.5 15C11.5 16.933 13.067 18.5 15 18.5Z" fill="white"/>
<path d="M14.9988 15.7C15.3854 15.7 15.6988 15.3866 15.6988 15C15.6988 14.6134 15.3854 14.3 14.9988 14.3C14.6122 14.3 14.2988 14.6134 14.2988 15C14.2988 15.3866 14.6122 15.7 14.9988 15.7Z" fill="#000088"/>
<path d="M18.4479 15.6366C18.5464 15.6496 18.6369 15.5802 18.6498 15.4817C18.6628 15.3831 18.5934 15.2927 18.4949 15.2797C18.3963 15.2667 18.3059 15.3361 18.2929 15.4347C18.2799 15.5332 18.3493 15.6237 18.4479 15.6366Z" fill="#000088"/>
<path d="M15.0009 18.5L15.1209 16.4L15.0009 15.4L14.8809 16.4L15.0009 18.5Z" fill="#000088"/>
<path d="M18.1653 16.5069C18.2571 16.545 18.3624 16.5014 18.4004 16.4095C18.4385 16.3177 18.3949 16.2124 18.303 16.1744C18.2112 16.1363 18.1059 16.1799 18.0678 16.2718C18.0298 16.3636 18.0734 16.4689 18.1653 16.5069Z" fill="#000088"/>
<path d="M14.0948 18.3808L14.7543 16.3834L14.8972 15.3864L14.5224 16.3213L14.0948 18.3808Z" fill="#000088"/>
<path d="M17.6658 17.2746C17.7447 17.3352 17.8577 17.3203 17.9182 17.2414C17.9787 17.1625 17.9639 17.0496 17.885 16.989C17.8061 16.9285 17.6931 16.9434 17.6326 17.0223C17.5721 17.1011 17.587 17.2141 17.6658 17.2746Z" fill="#000088"/>
<path d="M13.2492 18.0311L14.4032 16.2725L14.7992 15.3464L14.1953 16.1525L13.2492 18.0311Z" fill="#000088"/>
<path d="M16.9861 17.8873C17.0466 17.9662 17.1596 17.981 17.2385 17.9205C17.3173 17.86 17.3322 17.747 17.2717 17.6681C17.2112 17.5893 17.0982 17.5744 17.0193 17.6349C16.9404 17.6954 16.9256 17.8084 16.9861 17.8873Z" fill="#000088"/>
<path d="M12.5237 17.4749L14.0935 16.0749L14.7157 15.2829L13.9238 15.9052L12.5237 17.4749Z" fill="#000088"/>
<path d="M16.1718 18.303C16.2099 18.3949 16.3152 18.4385 16.407 18.4004C16.4989 18.3624 16.5425 18.2571 16.5044 18.1653C16.4664 18.0734 16.3611 18.0298 16.2692 18.0678C16.1774 18.1059 16.1338 18.2112 16.1718 18.303Z" fill="#000088"/>
<path d="M11.9691 16.75L13.8477 15.8039L14.6537 15.2L13.7277 15.5961L11.9691 16.75Z" fill="#000088"/>
<path d="M15.2779 18.4938C15.2909 18.5924 15.3813 18.6618 15.4799 18.6488C15.5784 18.6358 15.6478 18.5454 15.6348 18.4468C15.6218 18.3483 15.5314 18.2789 15.4329 18.2919C15.3343 18.3048 15.2649 18.3953 15.2779 18.4938Z" fill="#000088"/>
<path d="M11.6207 15.9059L13.6802 15.4783L14.615 15.1035L13.6181 15.2464L11.6207 15.9059Z" fill="#000088"/>
<path d="M14.3657 18.4465C14.3527 18.5451 14.4221 18.6355 14.5206 18.6485C14.6192 18.6615 14.7096 18.5921 14.7226 18.4935C14.7356 18.395 14.6662 18.3045 14.5676 18.2916C14.4691 18.2786 14.3787 18.348 14.3657 18.4465Z" fill="#000088"/>
<path d="M11.5016 15.0001L13.6016 15.1201L14.6016 15.0001L13.6016 14.8801L11.5016 15.0001Z" fill="#000088"/>
<path d="M13.495 18.1643C13.457 18.2562 13.5006 18.3615 13.5924 18.3995C13.6843 18.4376 13.7896 18.3939 13.8276 18.3021C13.8656 18.2103 13.822 18.105 13.7302 18.0669C13.6383 18.0289 13.533 18.0725 13.495 18.1643Z" fill="#000088"/>
<path d="M11.6211 14.0942L13.6184 14.7536L14.6154 14.8965L13.6806 14.5218L11.6211 14.0942Z" fill="#000088"/>
<path d="M12.7259 17.6664C12.6654 17.7453 12.6803 17.8582 12.7591 17.9188C12.838 17.9793 12.951 17.9644 13.0115 17.8855C13.072 17.8067 13.0572 17.6937 12.9783 17.6332C12.8994 17.5726 12.7864 17.5875 12.7259 17.6664Z" fill="#000088"/>
<path d="M11.9682 13.25L13.7269 14.4039L14.6529 14.8L13.8469 14.196L11.9682 13.25Z" fill="#000088"/>
<path d="M12.1107 16.9869C12.0318 17.0474 12.017 17.1604 12.0775 17.2393C12.138 17.3181 12.251 17.333 12.3299 17.2725C12.4087 17.212 12.4236 17.099 12.3631 17.0201C12.3026 16.9412 12.1896 16.9264 12.1107 16.9869Z" fill="#000088"/>
<path d="M12.5239 12.5251L13.924 14.0949L14.7159 14.7171L14.0937 13.9252L12.5239 12.5251Z" fill="#000088"/>
<path d="M11.6959 16.172C11.6041 16.21 11.5605 16.3153 11.5985 16.4071C11.6366 16.499 11.7419 16.5426 11.8337 16.5046C11.9255 16.4665 11.9692 16.3612 11.9311 16.2694C11.8931 16.1775 11.7878 16.1339 11.6959 16.172Z" fill="#000088"/>
<path d="M13.2484 11.969L14.1945 13.8476L14.7984 14.6536L14.4023 13.7276L13.2484 11.969Z" fill="#000088"/>
<path d="M11.505 15.2771C11.4065 15.2901 11.3371 15.3805 11.3501 15.4791C11.363 15.5776 11.4534 15.647 11.552 15.634C11.6506 15.6211 11.7199 15.5306 11.707 15.4321C11.694 15.3335 11.6036 15.2641 11.505 15.2771Z" fill="#000088"/>
<path d="M14.0935 11.6193L14.5211 13.6788L14.8958 14.6136L14.7529 13.6167L14.0935 11.6193Z" fill="#000088"/>
<path d="M11.5521 14.3634C11.4536 14.3504 11.3631 14.4198 11.3502 14.5184C11.3372 14.6169 11.4066 14.7074 11.5051 14.7203C11.6037 14.7333 11.6941 14.6639 11.7071 14.5654C11.7201 14.4668 11.6507 14.3764 11.5521 14.3634Z" fill="#000088"/>
<path d="M14.9991 11.5L14.8791 13.6L14.9991 14.6L15.1191 13.6L14.9991 11.5Z" fill="#000088"/>
<path d="M11.8347 13.4931C11.7429 13.4551 11.6376 13.4987 11.5996 13.5905C11.5615 13.6824 11.6051 13.7877 11.697 13.8257C11.7888 13.8638 11.8941 13.8201 11.9322 13.7283C11.9702 13.6365 11.9266 13.5312 11.8347 13.4931Z" fill="#000088"/>
<path d="M15.9052 11.6193L15.2457 13.6167L15.1028 14.6137L15.4776 13.6788L15.9052 11.6193Z" fill="#000088"/>
<path d="M12.3342 12.7254C12.2553 12.6649 12.1423 12.6798 12.0818 12.7586C12.0213 12.8375 12.0361 12.9505 12.115 13.011C12.1939 13.0715 12.3069 13.0567 12.3674 12.9778C12.4279 12.8989 12.413 12.7859 12.3342 12.7254Z" fill="#000088"/>
<path d="M16.7508 11.9689L15.5968 13.7276L15.2008 14.6536L15.8047 13.8476L16.7508 11.9689Z" fill="#000088"/>
<path d="M13.0139 12.1128C12.9534 12.0339 12.8404 12.019 12.7615 12.0795C12.6827 12.1401 12.6678 12.2531 12.7283 12.3319C12.7888 12.4108 12.9018 12.4257 12.9807 12.3652C13.0596 12.3046 13.0744 12.1916 13.0139 12.1128Z" fill="#000088"/>
<path d="M17.4763 12.5251L15.9065 13.9252L15.2843 14.7171L16.0762 14.0949L17.4763 12.5251Z" fill="#000088"/>
<path d="M13.8282 11.697C13.7901 11.6052 13.6848 11.5616 13.593 11.5996C13.5011 11.6377 13.4575 11.743 13.4956 11.8348C13.5336 11.9266 13.6389 11.9703 13.7308 11.9322C13.8226 11.8942 13.8662 11.7889 13.8282 11.697Z" fill="#000088"/>
<path d="M18.0309 13.2501L16.1523 14.1961L15.3463 14.8001L16.2723 14.404L18.0309 13.2501Z" fill="#000088"/>
<path d="M14.7221 11.5062C14.7091 11.4077 14.6187 11.3383 14.5201 11.3513C14.4216 11.3643 14.3522 11.4547 14.3652 11.5532C14.3782 11.6518 14.4686 11.7212 14.5671 11.7082C14.6657 11.6952 14.7351 11.6048 14.7221 11.5062Z" fill="#000088"/>
<path d="M18.3793 14.0942L16.3198 14.5218L15.385 14.8965L16.3819 14.7536L18.3793 14.0942Z" fill="#000088"/>
<path d="M15.6343 11.5535C15.6473 11.455 15.5779 11.3645 15.4794 11.3516C15.3808 11.3386 15.2904 11.408 15.2774 11.5065C15.2644 11.6051 15.3338 11.6955 15.4324 11.7085C15.5309 11.7215 15.6213 11.6521 15.6343 11.5535Z" fill="#000088"/>
<path d="M18.4984 15L16.3984 14.88L15.3984 15L16.3984 15.12L18.4984 15Z" fill="#000088"/>
<path d="M16.505 11.8357C16.543 11.7439 16.4994 11.6386 16.4076 11.6005C16.3157 11.5625 16.2104 11.6061 16.1724 11.698C16.1344 11.7898 16.178 11.8951 16.2698 11.9331C16.3617 11.9712 16.467 11.9276 16.505 11.8357Z" fill="#000088"/>
<path d="M18.3789 15.9059L16.3816 15.2465L15.3846 15.1036L16.3194 15.4783L18.3789 15.9059Z" fill="#000088"/>
<path d="M17.2741 12.3336C17.3346 12.2547 17.3197 12.1418 17.2409 12.0812C17.162 12.0207 17.049 12.0356 16.9885 12.1145C16.928 12.1933 16.9428 12.3063 17.0217 12.3668C17.1006 12.4274 17.2136 12.4125 17.2741 12.3336Z" fill="#000088"/>
<path d="M18.0318 16.75L16.2731 15.5961L15.3471 15.2L16.1531 15.804L18.0318 16.75Z" fill="#000088"/>
<path d="M17.8893 13.0131C17.9682 12.9526 17.983 12.8396 17.9225 12.7607C17.862 12.6819 17.749 12.667 17.6701 12.7275C17.5913 12.788 17.5764 12.901 17.6369 12.9799C17.6974 13.0588 17.8104 13.0736 17.8893 13.0131Z" fill="#000088"/>
<path d="M17.4761 17.4749L16.076 15.9051L15.2841 15.2829L15.9063 16.0748L17.4761 17.4749Z" fill="#000088"/>
<path d="M18.3041 13.828C18.3959 13.79 18.4395 13.6847 18.4015 13.5929C18.3634 13.501 18.2581 13.4574 18.1663 13.4954C18.0745 13.5335 18.0308 13.6388 18.0689 13.7306C18.1069 13.8225 18.2122 13.8661 18.3041 13.828Z" fill="#000088"/>
<path d="M16.7516 18.031L15.8055 16.1524L15.2016 15.3464L15.5977 16.2724L16.7516 18.031Z" fill="#000088"/>
<path d="M18.495 14.7229C18.5935 14.7099 18.6629 14.6195 18.6499 14.5209C18.637 14.4224 18.5466 14.353 18.448 14.366C18.3494 14.3789 18.2801 14.4694 18.293 14.5679C18.306 14.6665 18.3964 14.7359 18.495 14.7229Z" fill="#000088"/>
<path d="M15.9065 18.3807L15.4789 16.3212L15.1042 15.3864L15.2471 16.3833L15.9065 18.3807Z" fill="#000088"/>
</g>
<defs>
<clipPath id="clip0_558_3389">
<rect width="30" height="30" rx="15" fill="white"/>
</clipPath>
</defs>
</svg>
