<svg width="50" height="50" viewBox="0 0 50 50" fill="none" xmlns="http://www.w3.org/2000/svg">
<circle cx="25" cy="25" r="25" fill="black" fill-opacity="0.04"/>
<path d="M20.3438 27.741C20.3438 29.4282 21.6385 30.7884 23.2472 30.7884H26.53C27.9294 30.7884 29.0672 29.5982 29.0672 28.1334C29.0672 26.5378 28.3741 25.9754 27.3409 25.6092L22.0701 23.7782C21.0369 23.412 20.3438 22.8496 20.3438 21.254C20.3438 19.7892 21.4816 18.599 22.881 18.599H26.1638C27.7725 18.599 29.0672 19.9592 29.0672 21.6463" stroke="#292D32" stroke-width="1.56944" stroke-linecap="round" stroke-linejoin="round"/>
<path d="M24.6973 16.8467V32.5411" stroke="#292D32" stroke-width="1.56944" stroke-linecap="round" stroke-linejoin="round"/>
<path d="M24.6959 37.7726C31.9191 37.7726 37.7746 31.917 37.7746 24.6939C37.7746 17.4707 31.9191 11.6152 24.6959 11.6152C17.4727 11.6152 11.6172 17.4707 11.6172 24.6939C11.6172 31.917 17.4727 37.7726 24.6959 37.7726Z" stroke="#292D32" stroke-width="1.56944" stroke-linecap="round" stroke-linejoin="round"/>
</svg>
