<svg xmlns="http://www.w3.org/2000/svg" width="50" height="50" viewBox="0 0 50 50">
  <g id="Group_1108" data-name="Group 1108" transform="translate(-163 -675)">
    <rect id="Rectangle_164" data-name="Rectangle 164" width="50" height="50" rx="15" transform="translate(163 675)" fill="#202148"/>
    <path id="money-dollar-circle-line" d="M13.405,24.8a11.4,11.4,0,1,1,11.4-11.4A11.4,11.4,0,0,1,13.405,24.8Zm0-2.28a9.12,9.12,0,1,0-9.12-9.12A9.12,9.12,0,0,0,13.405,22.523Zm-3.99-6.84h6.27a.57.57,0,0,0,0-1.14h-4.56a2.85,2.85,0,1,1,0-5.7h1.14V6.563h2.28v2.28H17.4v2.28h-6.27a.57.57,0,1,0,0,1.14h4.56a2.85,2.85,0,0,1,0,5.7h-1.14v2.28h-2.28v-2.28H9.415Z" transform="translate(174.595 686.597)" fill="#fff"/>
  </g>
</svg>
