<svg xmlns="http://www.w3.org/2000/svg" width="18" height="17.333" viewBox="0 0 18 17.333">
  <g id="back" transform="translate(-2.5 -3)">
    <g id="Group_9240" data-name="Group 9240" transform="translate(7.167 3)">
      <path id="Path_12085" data-name="Path 12085" d="M27.667,21.833h-1a.667.667,0,1,1,0-1.333H27v-.333a.667.667,0,1,1,1.333,0v1a.666.666,0,0,1-.667.667Z" transform="translate(-15 -8.5)" fill="#00c6fb"/>
      <path id="Path_12086" data-name="Path 12086" d="M22.833,21h-2a.644.644,0,0,0-.333.093V22.24a.644.644,0,0,0,.333.093h2a.667.667,0,1,0,0-1.333Z" transform="translate(-13.167 -9)" fill="#00c6fb"/>
      <path id="Path_12087" data-name="Path 12087" d="M10.167,7.5a.669.669,0,0,0-.667.667V9.833h1.333V8.167A.669.669,0,0,0,10.167,7.5Z" transform="translate(-9.5 -4.5)" fill="#00c6fb"/>
      <path id="Path_12088" data-name="Path 12088" d="M10.167,5.333A.666.666,0,0,1,9.5,4.667v-1A.666.666,0,0,1,10.167,3h1a.667.667,0,1,1,0,1.333h-.333v.333a.666.666,0,0,1-.667.667Z" transform="translate(-9.5 -3)" fill="#00c6fb"/>
      <path id="Path_12089" data-name="Path 12089" d="M16.667,3h-2a.667.667,0,0,0,0,1.333h2a.667.667,0,1,0,0-1.333Zm4,0h-2a.667.667,0,0,0,0,1.333h2a.667.667,0,1,0,0-1.333Z" transform="translate(-11 -3)" fill="#00c6fb"/>
      <path id="Path_12090" data-name="Path 12090" d="M27.667,5.333A.666.666,0,0,1,27,4.667V4.333h-.333a.667.667,0,1,1,0-1.333h1a.666.666,0,0,1,.667.667v1a.666.666,0,0,1-.667.667Z" transform="translate(-15 -3)" fill="#00c6fb"/>
      <path id="Path_12091" data-name="Path 12091" d="M28.167,7.5a.669.669,0,0,0-.667.667v2a.667.667,0,0,0,1.333,0v-2A.669.669,0,0,0,28.167,7.5Zm0,4a.669.669,0,0,0-.667.667v2a.667.667,0,0,0,1.333,0v-2a.669.669,0,0,0-.667-.667Z" transform="translate(-15.5 -4.5)" fill="#00c6fb"/>
    </g>
    <path id="Path_12092" data-name="Path 12092" d="M15.167,9h-12a.669.669,0,0,0-.667.667v12a.669.669,0,0,0,.667.667h12a.669.669,0,0,0,.667-.667v-12A.669.669,0,0,0,15.167,9ZM14.5,21H3.833V10.333H14.5Z" transform="translate(0 -2)" fill="#fff"/>
  </g>
</svg>
