<svg xmlns="http://www.w3.org/2000/svg" xmlns:xlink="http://www.w3.org/1999/xlink" width="59" height="59" viewBox="0 0 59 59">
  <defs>
    <linearGradient id="linear-gradient" x1="0.5" x2="0.5" y2="1.341" gradientUnits="objectBoundingBox">
      <stop offset="0" stop-color="#00c6fb"/>
      <stop offset="1" stop-color="#121c3d"/>
    </linearGradient>
    <filter id="Ellipse_29" x="0" y="0" width="59" height="59" filterUnits="userSpaceOnUse">
      <feOffset dy="3" input="SourceAlpha"/>
      <feGaussianBlur stdDeviation="3" result="blur"/>
      <feFlood flood-opacity="0.49"/>
      <feComposite operator="in" in2="blur"/>
      <feComposite in="SourceGraphic"/>
    </filter>
  </defs>
  <g id="Group_722" data-name="Group 722" transform="translate(-154 -238)">
    <g transform="matrix(1, 0, 0, 1, 154, 238)" filter="url(#Ellipse_29)">
      <circle id="Ellipse_29-2" data-name="Ellipse 29" cx="20.5" cy="20.5" r="20.5" transform="translate(9 6)" fill="url(#linear-gradient)"/>
    </g>
    <path id="exchange" d="M13.386,4.187a.837.837,0,0,0-.837-.837h-9.7L4.776,1.434A.84.84,0,0,0,3.588.246L.241,3.593A.842.842,0,0,0,.835,5.024H12.55A.837.837,0,0,0,13.386,4.187Zm3.28,3.029A.837.837,0,0,0,15.9,6.7H4.182a.837.837,0,1,0,0,1.673h9.7l-1.924,1.916a.84.84,0,1,0,1.188,1.188l3.347-3.347A.837.837,0,0,0,16.666,7.216Z" transform="translate(178.055 272.452) rotate(-90)" fill="#fff"/>
  </g>
</svg>
