<svg width="45" height="45" viewBox="0 0 45 45" fill="none" xmlns="http://www.w3.org/2000/svg">
<rect y="0.203735" width="44.3106" height="44.3106" rx="22.1553" fill="#38FF8E"/>
<path d="M19.3936 23.903C19.3936 24.8133 20.0974 25.5452 20.9607 25.5452H22.7249C23.4756 25.5452 24.0856 24.9071 24.0856 24.1095C24.0856 23.2555 23.7102 22.9459 23.1565 22.7488L20.332 21.7635C19.7783 21.5664 19.4029 21.2661 19.4029 20.4028C19.4029 19.6145 20.0129 18.967 20.7636 18.967H22.5278C23.3911 18.967 24.0949 19.699 24.0949 20.6092" stroke="#292D32" stroke-width="1.12608" stroke-linecap="round" stroke-linejoin="round"/>
<path d="M21.7393 18.038V26.4836" stroke="#292D32" stroke-width="1.12608" stroke-linecap="round" stroke-linejoin="round"/>
<path d="M31.1235 22.2608C31.1235 27.4408 26.9194 31.6448 21.7395 31.6448C16.5595 31.6448 12.3555 27.4408 12.3555 22.2608C12.3555 17.0809 16.5595 12.8768 21.7395 12.8768" stroke="#292D32" stroke-width="1.12608" stroke-linecap="round" stroke-linejoin="round"/>
<path d="M31.1237 16.6304V12.8768H27.3701" stroke="#292D32" stroke-width="1.12608" stroke-linecap="round" stroke-linejoin="round"/>
<path d="M26.4316 17.5688L31.1236 12.8768" stroke="#292D32" stroke-width="1.12608" stroke-linecap="round" stroke-linejoin="round"/>
</svg>
