<svg xmlns="http://www.w3.org/2000/svg" width="40" height="40" viewBox="0 0 40 40">
  <g id="Group_1067" data-name="Group 1067" transform="translate(-320 -50)">
    <rect id="Rectangle_4" data-name="Rectangle 4" width="40" height="40" rx="10" transform="translate(320 50)" fill="#202148"/>
    <g id="line-chart" transform="translate(329 58.997)">
      <path id="Path_4572" data-name="Path 4572" d="M21.535,19.247H2.749V.461a.458.458,0,1,0-.916,0V19.247H.458a.458.458,0,1,0,0,.916H1.833v1.375a.458.458,0,1,0,.916,0V20.163H21.535a.458.458,0,1,0,0-.916Z" fill="#c390fc"/>
      <path id="Path_4573" data-name="Path 4573" d="M85.806,79.573a.458.458,0,0,1-.357-.744l3.665-4.582a.458.458,0,0,1,.332-.172.451.451,0,0,1,.349.134l1.418,1.419,2.447-4.079a.458.458,0,0,1,.367-.222.479.479,0,0,1,.389.171l1.226,1.533,1.63-7.753a.458.458,0,0,1,.772-.229l2.375,2.375,2.432-3.246a.458.458,0,0,1,.734.549h0l-2.749,3.665a.458.458,0,0,1-.69.049l-2.151-2.152-1.659,7.881a.458.458,0,0,1-.806.192l-1.421-1.776L91.7,76.6a.458.458,0,0,1-.717.092l-1.466-1.466L86.165,79.4A.458.458,0,0,1,85.806,79.573Z" transform="translate(-81.683 -61.242)" fill="#00c6fb"/>
    </g>
  </g>
</svg>
