<svg width="20" height="20" viewBox="0 0 20 20" fill="none" xmlns="http://www.w3.org/2000/svg">
<circle cx="10" cy="10" r="10" fill="#38FF8E"/>
<path d="M7.88867 10L9.29451 11.4117L12.112 8.58838" stroke="#292D32" stroke-width="0.875" stroke-linecap="round" stroke-linejoin="round"/>
<path d="M9.27117 4.42927C9.67367 4.0851 10.3328 4.0851 10.7412 4.42927L11.6628 5.2226C11.8378 5.37427 12.1645 5.49677 12.3978 5.49677H13.3895C14.0078 5.49677 14.5153 6.00427 14.5153 6.6226V7.61427C14.5153 7.84177 14.6378 8.17427 14.7895 8.34927L15.5828 9.27093C15.927 9.67343 15.927 10.3326 15.5828 10.7409L14.7895 11.6626C14.6378 11.8376 14.5153 12.1643 14.5153 12.3976V13.3893C14.5153 14.0076 14.0078 14.5151 13.3895 14.5151H12.3978C12.1703 14.5151 11.8378 14.6376 11.6628 14.7893L10.7412 15.5826C10.3387 15.9268 9.6795 15.9268 9.27117 15.5826L8.34951 14.7893C8.17451 14.6376 7.84784 14.5151 7.6145 14.5151H6.60534C5.98701 14.5151 5.47951 14.0076 5.47951 13.3893V12.3918C5.47951 12.1643 5.35701 11.8376 5.21117 11.6626L4.42367 10.7351C4.08534 10.3326 4.08534 9.67927 4.42367 9.27677L5.21117 8.34927C5.35701 8.17427 5.47951 7.8476 5.47951 7.6201V6.61677C5.47951 5.99843 5.98701 5.49093 6.60534 5.49093H7.6145C7.842 5.49093 8.17451 5.36843 8.34951 5.21677L9.27117 4.42927Z" stroke="#292D32" stroke-width="0.875" stroke-linecap="round" stroke-linejoin="round"/>
</svg>
