<svg width="16" height="16" viewBox="0 0 16 16" fill="none" xmlns="http://www.w3.org/2000/svg">
<g clip-path="url(#clip0_558_3569)">
<path d="M10.8508 10.3456C10.1149 10.3456 9.45181 10.6638 8.99164 11.1701L4.85245 8.60311C4.96609 8.31224 5.02435 8.00264 5.02423 7.69031C5.02438 7.37797 4.96611 7.06837 4.85245 6.7775L8.99164 4.21043C9.45183 4.71666 10.1149 5.03501 10.8508 5.03501C12.2371 5.03501 13.3649 3.90571 13.3649 2.51757C13.3649 1.12942 12.2371 0.000244141 10.8508 0.000244141C9.4645 0.000244141 8.33668 1.12954 8.33668 2.51769C8.33662 2.83001 8.39488 3.13959 8.50846 3.43046L4.3694 5.99744C3.9092 5.49122 3.24617 5.17286 2.51024 5.17286C1.12391 5.17286 -0.00390625 6.30228 -0.00390625 7.69031C-0.00390625 9.07842 1.12391 10.2078 2.51024 10.2078C3.24614 10.2078 3.90923 9.88951 4.3694 9.38317L8.50849 11.9502C8.39489 12.2411 8.33662 12.5507 8.33668 12.863C8.33668 14.2511 9.46447 15.3804 10.8508 15.3804C12.2371 15.3804 13.3649 14.2511 13.3649 12.8631C13.3649 11.4749 12.2371 10.3456 10.8508 10.3456ZM9.25342 2.51769C9.25342 1.63573 9.97002 0.918215 10.8508 0.918215C11.7316 0.918215 12.4482 1.63573 12.4482 2.51769C12.4482 3.39964 11.7316 4.11716 10.8508 4.11716C9.96999 4.11716 9.25342 3.39961 9.25342 2.51769ZM2.51024 9.28978C1.62932 9.28978 0.912742 8.57223 0.912742 7.69031C0.912742 6.80838 1.62932 6.09083 2.51024 6.09083C3.39104 6.09083 4.1075 6.80838 4.1075 7.69031C4.1075 8.57223 3.39101 9.28978 2.51024 9.28978ZM9.25342 12.863C9.25342 11.981 9.97002 11.2635 10.8508 11.2635C11.7316 11.2635 12.4482 11.981 12.4482 12.8629C12.4482 13.7449 11.7316 14.4624 10.8508 14.4624C9.96999 14.4624 9.25342 13.7449 9.25342 12.8629V12.863Z" fill="black"/>
</g>
<defs>
<clipPath id="clip0_558_3569">
<rect width="15.36" height="15.3802" fill="white"/>
</clipPath>
</defs>
</svg>
