<svg id="Component_4_1" data-name="Component 4 – 1" xmlns="http://www.w3.org/2000/svg" width="16.009" height="14.665" viewBox="0 0 16.009 14.665">
  <path id="eye-crossed_1_" data-name="eye-crossed (1)" d="M15.515,6.615a10.579,10.579,0,0,0-2.248-2.606l1.867-1.867a.667.667,0,1,0-.943-.943l-2.03,2.033A8.037,8.037,0,0,0,8,2.1,8.833,8.833,0,0,0,.485,6.615a3.273,3.273,0,0,0,0,3.442,10.579,10.579,0,0,0,2.248,2.606L.865,14.53a.667.667,0,1,0,.943.943l2.035-2.035A8.037,8.037,0,0,0,8,14.567a8.833,8.833,0,0,0,7.515-4.51A3.273,3.273,0,0,0,15.515,6.615ZM1.621,9.358a1.946,1.946,0,0,1,0-2.046A7.548,7.548,0,0,1,8,3.438a6.734,6.734,0,0,1,3.178.777L9.836,5.557a3.329,3.329,0,0,0-4.614,4.614l-1.54,1.54a9.15,9.15,0,0,1-2.06-2.353ZM10,8.336a2,2,0,0,1-2,2,1.968,1.968,0,0,1-.857-.2L9.8,7.479A1.968,1.968,0,0,1,10,8.336Zm-4,0a2,2,0,0,1,2-2,1.968,1.968,0,0,1,.857.2L6.2,9.192A1.968,1.968,0,0,1,6,8.336Zm8.379,1.023A7.548,7.548,0,0,1,8,13.233a6.735,6.735,0,0,1-3.178-.777l1.342-1.342A3.329,3.329,0,0,0,10.778,6.5l1.54-1.54a9.15,9.15,0,0,1,2.06,2.353,1.946,1.946,0,0,1,0,2.046Z" transform="translate(0.004 -1.003)" fill="#fff"/>
</svg>
