<svg xmlns="http://www.w3.org/2000/svg" xmlns:xlink="http://www.w3.org/1999/xlink" width="177.2" height="177.2" viewBox="0 0 177.2 177.2">
  <defs>
    <filter id="Ellipse_5" x="0" y="0" width="177.2" height="177.2" filterUnits="userSpaceOnUse">
      <feOffset dx="1" dy="2" input="SourceAlpha"/>
      <feGaussianBlur stdDeviation="1.5" result="blur"/>
      <feFlood flood-color="#c38ffb" flood-opacity="0.31"/>
      <feComposite operator="in" in2="blur"/>
      <feComposite in="SourceGraphic"/>
    </filter>
    <linearGradient id="linear-gradient" x1="0.477" y1="0.036" x2="0.017" y2="0.5" gradientUnits="objectBoundingBox">
      <stop offset="0" stop-color="#48c6ef"/>
      <stop offset="1" stop-color="#6f86d6"/>
    </linearGradient>
    <linearGradient id="linear-gradient-2" x1="0.5" x2="0.5" y2="1" gradientUnits="objectBoundingBox">
      <stop offset="0" stop-color="#c693fe"/>
      <stop offset="1" stop-color="#9654d9"/>
    </linearGradient>
    <linearGradient id="linear-gradient-3" x1="0.5" x2="0.5" y2="1" gradientUnits="objectBoundingBox">
      <stop offset="0" stop-color="#5abef8"/>
      <stop offset="1" stop-color="#00c6fb"/>
    </linearGradient>
    <linearGradient id="linear-gradient-4" x1="0.5" x2="0.5" y2="1" gradientUnits="objectBoundingBox">
      <stop offset="0" stop-color="#c471f5"/>
      <stop offset="1" stop-color="#fa71cd"/>
    </linearGradient>
  </defs>
  <g id="Group_192" data-name="Group 192" transform="translate(-557.182 -47.466)">
    <g transform="matrix(1, 0, 0, 1, 557.18, 47.47)" filter="url(#Ellipse_5)">
      <circle id="Ellipse_5-2" data-name="Ellipse 5" cx="84.1" cy="84.1" r="84.1" transform="translate(3.5 2.5)" fill="#0d0d2b"/>
    </g>
    <g id="Group_193" data-name="Group 193" transform="translate(-0.333 0.167)">
      <path id="Ellipse_5-3" data-name="Ellipse 5" d="M80.672-3.43a84.1,84.1,0,1,1-84.1,84.1A84.2,84.2,0,0,1,80.672-3.43Zm0,161.177A77.075,77.075,0,1,0,3.6,80.672,77.163,77.163,0,0,0,80.672,157.747Z" transform="translate(564.509 53.294)" fill="url(#linear-gradient)"/>
      <path id="Path_3" data-name="Path 3" d="M688.66,137.546a3.579,3.579,0,0,1-3.577-3.579,77.1,77.1,0,0,0-77.009-77.009,3.579,3.579,0,0,1,0-7.158,84.262,84.262,0,0,1,84.166,84.167A3.579,3.579,0,0,1,688.66,137.546Z" transform="translate(37.109)" fill="url(#linear-gradient-2)"/>
      <path id="Path_4" data-name="Path 4" d="M608.073,181.025a3.579,3.579,0,0,1,0-7.158,77.1,77.1,0,0,0,77.009-77.009,3.578,3.578,0,1,1,7.156,0A84.262,84.262,0,0,1,608.073,181.025Z" transform="translate(37.109 37.109)" fill="url(#linear-gradient-3)"/>
      <path id="Path_5" data-name="Path 5" d="M645.182,181.025a84.263,84.263,0,0,1-84.167-84.167,3.578,3.578,0,1,1,7.156,0,77.1,77.1,0,0,0,77.011,77.009,3.579,3.579,0,0,1,0,7.158Z" transform="translate(0 37.109)" fill="url(#linear-gradient-4)"/>
    </g>
  </g>
</svg>
