<svg xmlns="http://www.w3.org/2000/svg" xmlns:xlink="http://www.w3.org/1999/xlink" width="49" height="49" viewBox="0 0 49 49">
  <defs>
    <linearGradient id="linear-gradient" x1="0.5" y1="0.05" x2="0.5" y2="1.506" gradientUnits="objectBoundingBox">
      <stop offset="0" stop-color="#00c6fb"/>
      <stop offset="1" stop-color="#121c3d"/>
    </linearGradient>
  </defs>
  <g id="Group_1078" data-name="Group 1078" transform="translate(-108 -592)">
    <circle id="Ellipse_21" data-name="Ellipse 21" cx="24.5" cy="24.5" r="24.5" transform="translate(108 592)" fill="url(#linear-gradient)"/>
    <path id="arrow-to-bottom" d="M19,20H5a1,1,0,0,0,0,2H19a1,1,0,0,0,0-2Zm-7.71-2.29a1,1,0,0,0,.33.21.94.94,0,0,0,.76,0,1,1,0,0,0,.33-.21l4-4a1,1,0,0,0-1.42-1.42L13,14.59V3a1,1,0,0,0-2,0V14.59l-2.29-2.3a1,1,0,0,0-1.42,1.42Z" transform="translate(121 605)" fill="#fff"/>
  </g>
</svg>
